SplineFontDB: 3.0
FontName: Experiment-Latin-Sans
FullName: Experiment-Latin
FamilyName: Experiment-Latin
Weight: Sans
Copyright: Copyright (c) 2015, Pathum Egodawatta
UComments: "2015-9-29: Created with FontForge (http://fontforge.org)"
Version: 0.001
ItalicAngle: 0
UnderlinePosition: 100
UnderlineWidth: 49
Ascent: 1000
Descent: 0
InvalidEm: 0
LayerCount: 3
Layer: 0 0 "Back" 1
Layer: 1 0 "Fore" 0
Layer: 2 0 "new" 1
PreferredKerning: 4
XUID: [1021 779 -1439063335 14876943]
FSType: 0
OS2Version: 0
OS2_WeightWidthSlopeOnly: 0
OS2_UseTypoMetrics: 1
CreationTime: 1443542790
ModificationTime: 1464467063
PfmFamily: 17
TTFWeight: 400
TTFWidth: 5
LineGap: 122
VLineGap: 0
OS2TypoAscent: 129
OS2TypoAOffset: 1
OS2TypoDescent: 0
OS2TypoDOffset: 1
OS2TypoLinegap: 122
OS2WinAscent: 129
OS2WinAOffset: 1
OS2WinDescent: -161
OS2WinDOffset: 1
HheadAscent: 29
HheadAOffset: 1
HheadDescent: 183
HheadDOffset: 1
OS2Vendor: 'PfEd'
MarkAttachClasses: 1
DEI: 91125
LangName: 1033
Encoding: Adobe-Latin-2
UnicodeInterp: none
NameList: Adobe Glyph List
DisplaySize: -128
AntiAlias: 1
FitToEm: 1
WinInfo: 50 10 5
BeginPrivate: 0
EndPrivate
Grid
-1000 686 m 0
 2000 686 l 1024
-1000 -45 m 0
 2000 -45 l 1024
-1000 -143 m 0
 2000 -143 l 1024
-1000 620.651062012 m 0
 2000 620.651062012 l 1024
-1000 822.174682617 m 0
 2000 822.174682617 l 1024
-1000 801 m 0
 2000 801 l 1024
-1000 62 m 0
 2000 62 l 1024
2000 766 m 1024
-1000 1143 m 0
 2000 1143 l 1024
665 1500 m 0
 665 -500 l 1024
149 1500 m 0
 149 -500 l 1024
-1000 499 m 0
 2000 499 l 1024
-1000 612 m 0
 2000 612 l 1024
EndSplineSet
AnchorClass2: "bottom" "" "bootm" "" "top" "" "thn_ubufibi" "" 
BeginChars: 257 227

StartChar: a
Encoding: 65 97 1
AltUni2: 0000aa.ffffffff.0
GlifName: uni0061
Width: 779
VWidth: 153
Flags: HMW
AnchorPoint: "top" 373 807.651 basechar 0
LayerCount: 3
Back
SplineSet
14 118 m 4
 13.3408203125 235 117.333007812 300 289 341 c 4
 380.78515625 362.920898438 415 362 415 362 c 5
 415 249 l 5
 415 249 399.782226562 274 351 274 c 4
 302.784179688 274 246.059570312 234.724609375 244 177 c 4
 242.66796875 139.66796875 273.95703125 110.37890625 315 111 c 4
 354.999023438 111.60546875 384 150 390 191 c 5
 426 105 l 5
 426 105 355 -25 205 -25 c 4
 90.4853515625 -25 14.5302734375 23.9658203125 14 118 c 4
74 542 m 5
 125.576171875 575 241.7734375 634 378 634 c 4
 533.90234375 634 609.560546875 585 613 453 c 4
 615 375 598 198 615 127 c 4
 624 89 659 77 701 82 c 5
 712 19 l 5
 685.036132812 -1.8916015625 597.142578125 -27.8173828125 534 -27.708984375 c 4
 443.091796875 -27.5517578125 392 14.1591796875 392 98 c 5
 382 112 l 5
 394 201 388.536132812 378.591796875 383 438 c 4
 377.575195312 496.213867188 355.676376724 516.409372038 321 515.530273438 c 4
 265.9921875 514.135742188 237.883789062 461.141601562 213 421 c 5
 279 564 l 5
 258 519 241 459 235 391 c 5
 77 365 l 5
 71 432 74 542 74 542 c 5
EndSplineSet
Fore
SplineSet
-16 118 m 0
 -6.6591796875 245 127.333007812 310.000976562 299 351 c 0
 314.0971187 354.605620116 327.366140704 357.322714219 339 359.346028476 c 0
 341 341 l 0
 295.314453125 332 272.097516913 240.626622625 274 171 c 0
 275.483398438 116.7109375 295.776423573 80.298170535 328 81 c 0
 357.000006668 64.2274065456 l 0
 312.522014607 16.7087915901 249.171600425 -30.6272414053 171 -35 c 0
 26.7109193777 -43.0712344891 -22.8976703558 24.2176440737 -16 118 c 0
356.915958356 633.543357806 m 1
 343.622014588 632.976166705 365.28515625 600.89453125 352 599.375976562 c 1
 382.67578125 584.369140625 393.790043778 537.62096507 398 440 c 0
 400.5703125 380.389648438 394 201 382 112 c 1
 412 128 l 1
 412 44.1591796875 463.250801437 -22.3336980961 554 -27.708984375 c 0
 657.142578125 -33.818359375 745.036132812 -1.8916015625 772 19 c 1
 761 35 l 1
 719 30 684 42 675 80 c 0
 658.174804688 151.041992188 675 375 673 453 c 0
 669.615234375 585.000976562 533.90234375 634 378 634 c 0
 370.993617748 634 363.960860656 633.843931207 356.915958356 633.543357806 c 1025
317 605.265625 m 1
 260.345902858 599.343718608 245.069055545 503.436835144 223 431 c 1
 259 574 l 1
 247.545454545 529 238.272727273 469 235 401 c 1
 47 365 l 1
 41 432 44 542 44 542 c 1
 87.9178702161 570.099986184 200.443351423 617.051983216 317 630.375976562 c 1
 308.249023438 634.791992188 339.247070312 612.354492187 327 612 c 0
 325.644536203 611.960766019 318.310546875 605.40234375 317 605.265625 c 1
EndSplineSet
Layer: 2
SplineSet
14 118 m 0
 13.3408203125 235 117.332769757 300.000996751 289 341 c 0
 380.78515625 362.920898438 415 362 415 362 c 1
 415 249 l 1
 415 249 391.297851562 337.848632812 321 324 c 0
 275.314453125 315 245.740481717 230.161491243 254 161 c 4
 260.483398438 106.7109375 282.774414062 80.3974609375 315 81 c 4
 364.595260396 81.927309181 382.040039062 130 387 171 c 1
 430 165 l 1
 430 165 365.892110399 -25 205 -25 c 0
 90.4853515625 -25 14.52978994 23.9658175872 14 118 c 0
74 542 m 1
 125.576171875 575 241.7734375 634 378 634 c 0
 533.90234375 634 609.615348294 585.001416548 613 453 c 0
 615 375 598.174375514 198.041525608 615 127 c 0
 624 89 659 77 701 82 c 1
 712 19 l 1
 685.036132812 -1.8916015625 597.142576734 -27.8181900346 534 -27.708984375 c 0
 443.091796875 -27.5517578125 412 44.1591796875 412 128 c 1
 382 112 l 1
 394 201 385.5707283 378.389810258 383 438 c 0
 377.575195312 563.790670604 375.686457645 607.113295564 321 605.530273438 c 0
 261.049279808 603.794865429 245.579734519 505.113026886 223 431 c 1
 259 574 l 1
 247.545454545 529 238.272727273 469 235 401 c 1
 77 365 l 1
 71 432 74 542 74 542 c 1
EndSplineSet
EndChar

StartChar: n
Encoding: 78 110 2
GlifName: uni006E_
Width: 958
VWidth: 79
Flags: HMWO
LayerCount: 3
Back
SplineSet
16 82 m 5
 28 81 39 80 49 80 c 4
 111.815429688 80 121.897460938 115.872070312 124.893554688 150.140625 c 4
 132.083984375 232.366210938 134 318.5390625 134 377 c 4
 134 413 129.890625 444.987304688 128 462 c 4
 123 507 87 535 5 537 c 5
 -2 612 l 5
 13 611 29 611 46 611 c 4
 140 611 345 625 345 625 c 5
 345 625 333.116210938 575.41796875 326.432617188 532 c 5
 323.818359375 515.014648438 302 490.502929688 302 483 c 4
 302 474 324 470 327 470 c 4
 334 470 345 491 345 491 c 5
 339.46875 377.604492188 335.4453125 257.033203125 341.209960938 143.514648438 c 4
 344.668945312 75.3955078125 390.079101562 68 417 68 c 4
 420 68 424.958007812 68.2880859375 425 68 c 6
 435 0 l 5
 24 0 l 5
 16 82 l 5
293 479 m 5
 345.563476562 547 440.9453125 633 563 633 c 4
 639 633 721.159179688 599.165039062 734 505 c 4
 737 483 739 438 739 393 c 4
 739 323.544921875 731.900390625 240.881835938 731.961914062 144.415039062 c 4
 732 85 778.505859375 68 804 68 c 4
 807 68 810.918945312 68.552734375 811 68 c 6
 821 0 l 5
 461 0 l 5
 451 87 l 5
 451 87 454.666992188 84 457 84 c 4
 491.943359375 84 510.639648438 101.615234375 514.375976562 142.180664062 c 4
 521.399414062 218.446289062 526.826171875 359.779296875 510 432 c 4
 498.073242188 483.189453125 468.03515625 503 435 503 c 4
 345.077148438 503 308 409 308 409 c 5
 293 479 l 5
EndSplineSet
Fore
SplineSet
18 32 m 1
 30 31 41 30 51 30 c 0
 113.815429688 30 131.897460938 65.8720703125 134.893554688 100.140625 c 0
 142.083984375 214.987304688 144 335.346679688 144 417 c 0
 144 453 139.890625 484.987304688 138 502 c 0
 133 547 97 575 15 577 c 1
 8 612 l 1
 23 611 39 611 56 611 c 0
 150 611 415 625 415 625 c 1
 415 625 410.116210938 535.41796875 403.432617188 492 c 0
 407 470 l 0
 414 470 435 501 435 501 c 1
 429.46875 371.288085938 425.4453125 223.3671875 431.209960938 93.5146484375 c 0
 434.668945312 25.3955078125 450.079101562 18 477 18 c 0
 480 18 484.958007812 18.2880859375 485 18 c 2
 495 0 l 1
 26 0 l 1
 18 32 l 1
466.999996107 577.323306789 m 1
 518.48027041 616.048393477 586.954358817 638.949770588 662 635 c 0
 738 631 829.039175091 599.40233877 840 505 c 0
 855.111598442 374.848278089 831.870684131 263.379889268 831.961914062 94.4150390625 c 0
 832 23.876953125 888.505859375 28 914 28 c 1
 921 0 l 1
 508 0 l 1
 501 27 l 1
 533.267578125 30.6025390625 541.676627179 62.8737445554 544.375976562 92.1806640625 c 0
 551.399414062 181.603515625 550.627929688 346.3203125 540 432 c 0
 530.073242188 512.028320312 523.03515625 553 490 553 c 0
 466.999996107 577.323306789 l 1
EndSplineSet
Layer: 2
SplineSet
16 32 m 1
 28 31 39 30 49 30 c 0
 111.815429688 30 121.897460938 65.872070312 124.893554688 100.140625 c 0
 132.083984375 214.986871796 134 335.346349503 134 417 c 0
 134 453 129.890625 484.987304688 128 502 c 0
 123 547 87 575 5 577 c 1
 -2 612 l 1
 13 611 29 611 46 611 c 0
 140 611 355 625 355 625 c 1
 355 625 340.116210938 535.41796875 333.432617188 492 c 4
 347 470 l 0
 354 470 375 501 375 501 c 1
 369.46875 371.288085938 365.4453125 223.3671875 371.209960938 93.5146484375 c 0
 374.668945312 25.3955078125 390.079101562 18 417 18 c 0
 420 18 424.958007812 18.2880859375 425 18 c 2
 435 0 l 1
 24 0 l 1
 16 32 l 1
333 489 m 5
 375.563476562 577 450.9453125 633 573 633 c 0
 649 633 721.159179688 599.165039062 734 505 c 0
 737 483 739 438 739 393 c 0
 739 298.398762559 731.900390626 185.807567914 731.961914062 54.4150390625 c 0
 732 33.8765351634 778.505859375 28 804 28 c 0
 807 18 810.918945312 18.552734375 811 18 c 2
 821 0 l 1
 461 0 l 1
 451 37 l 1
 451 37 454.666992188 34 457 34 c 0
 491.943359375 34 490.639648438 51.615234375 494.375976562 92.1806640625 c 0
 501.399414062 181.603515625 500.627740081 346.320445456 490 432 c 0
 480.073242188 512.028320312 463.03515625 553 430 553 c 0
 360.077148438 553 368 409 368 409 c 1
 333 489 l 5
EndSplineSet
EndChar

StartChar: d
Encoding: 68 100 3
GlifName: uni0064
Width: 950
VWidth: 79
Flags: HMW
LayerCount: 3
Back
SplineSet
16 225 m 4
 14.9326171875 397 100.515625 544.006835938 303 601 c 4
 408.01199001 630.55766624 522 623.619140625 562 592 c 5
 474 444 l 5
 474 444 452.405273438 561.047851562 342 531 c 4
 267.458984375 510.712890625 225.481445312 407.98828125 230 288 c 4
 233.017215666 207.87913239 276.143554688 133.080078125 349 137 c 4
 395.169921875 139.484375 422.220703125 180.272460938 425 231 c 5
 496 170 l 5
 464 96 393 -16 250 -16 c 4
 122.053710938 -16 16.9991223964 63.9996070995 16 225 c 4
285 830 m 5
 368 828 645 850 645 850 c 5
 613 682 606.163085938 257.46484375 613 200 c 4
 621.981445312 131.017578125 646.641601562 78 732 90 c 5
 742 23 l 5
 688.953125 -12.0712890625 582.377929688 -35.509765625 510 -14 c 4
 446.447644548 4.88692142207 425 67.3388671875 425 109 c 4
 425 119 416 140 416 152 c 4
 430 256 426 594 417 687 c 4
 412.468665794 733.8237868 362 747 290 746 c 5
 285 830 l 5
EndSplineSet
Fore
SplineSet
46 235 m 0
 54.9697265625 467 234.201461064 569.176851139 403 621 c 0
 505.918249891 652.597120557 602 623.619140625 642 592 c 1
 544 514 l 1
 544 514 510.15625 654.12109375 416 594 c 4
 370.407226562 564.887695312 359.645507812 357.633789062 362 258 c 4
 364.471137147 153.430208469 395.208984375 96.80859375 458 102 c 0
 500.208007812 105.489257812 516.85546875 129.479492188 520 191 c 1
 569 180 l 1
 529.6015625 90.0859375 449.748046875 -16 300 -16 c 0
 122.989257812 -16 39.7798388313 74.1169027191 46 235 c 0
385 830 m 1
 468 828 843 850 843 850 c 1
 811 669.077148438 802.961914062 211.740234375 811 150 c 0
 819.981445312 81.017578125 844.641601562 28 930 40 c 1
 940 23 l 1
 886.953125 -12.0712890625 682.377929688 -35.509765625 610 -14 c 0
 546.447265625 4.88671875 545 77.3388671875 555 139 c 0
 556.600585938 148.87109375 514.555664062 140.086914062 516 152 c 0
 530 267.46875 526.983398438 642.833984375 517 746 c 0
 512.46875 792.82421875 462 806 390 805 c 1
 385 830 l 1
EndSplineSet
Layer: 2
SplineSet
-4 225 m 0
 -5.0302734375 417 97.0442734583 545.844450978 293 601 c 0
 398.01199001 630.55766624 512 623.619140625 552 592 c 1
 424 444 l 1
 424 444 404.108398438 616.319335938 302 571 c 0
 236.407226562 541.887695312 250.49609375 347.509765625 255 288 c 0
 259.12609501 233.482225131 276.208626953 81.8089094558 349 87 c 4
 391.245117188 90.0126953125 416.85546875 129.479492188 420 191 c 5
 469 180 l 1
 429.6015625 90.0859375 369.748046875 -16 220 -16 c 0
 102.989257812 -16 -3.13606703351 63.9989263746 -4 225 c 0
285 830 m 1
 368 828 665 850 665 850 c 1
 633 669.077148438 624.961914062 211.740234375 633 150 c 0
 641.981445312 81.017578125 666.641601562 28 752 40 c 1
 762 23 l 1
 708.953125 -12.0712890625 582.377929688 -35.5097656253 510 -14 c 0
 446.447644548 4.88692142207 445 77.3388671875 455 139 c 0
 456.600585938 148.87109375 414.555643499 140.087240693 416 152 c 0
 430 267.469158879 426.983767896 642.834398394 417 746 c 0
 412.468665794 792.8237868 362 806 290 805 c 1
 285 830 l 1
EndSplineSet
EndChar

StartChar: h
Encoding: 72 104 4
GlifName: uni0068
Width: 958
VWidth: 79
Flags: HMW
LayerCount: 3
Back
SplineSet
303 479 m 1
 355.563476562 547 450.9453125 633 573 633 c 0
 649 633 728.159179688 599.165039062 741 505 c 0
 744 483 746 438 746 393 c 0
 746 323.544921875 738.900390625 240.881835938 738.961914062 144.415039062 c 0
 739 85 785.505859375 68 811 68 c 0
 814 68 817.918945312 68.552734375 818 68 c 2
 828 0 l 1
 471 0 l 1
 461 87 l 1
 461 87 464.666992188 84 467 84 c 0
 501.943359375 84 520.639648438 101.615234375 524.375976562 142.180664062 c 0
 531.399414062 218.446289062 536.826171875 359.779296875 520 432 c 0
 508.073242188 483.189453125 478.03515625 503 445 503 c 0
 355.077148438 503 318 409 318 409 c 1
 303 479 l 1
27 829 m 1
 110 827 374 850 374 850 c 1
 357.796877925 711.949399922 349.154941401 496.606680875 346.168404457 345.000004825 c 0
 343.216628548 195.157916076 337.638808481 75.2021560267 442 81 c 1
 452 0 l 1
 113 0 l 1
 36 0 l 1
 26 91 l 1
 174.639648438 83.1767578125 149.194335938 209.959960938 150.775390625 350 c 0
 151.96484375 455.357421875 150.03515625 573.653320312 147 689 c 0
 142 733 112 736 34 736 c 1
 27 829 l 1
EndSplineSet
Fore
SplineSet
28 32 m 1
 40 31 51 30 61 30 c 0
 123.815429688 30 141.897460938 65.8720703125 144.893554688 100.140625 c 0
 152.083984375 214.987304688 154 565.346679688 154 647 c 4
 154 683 149.890625 714.987304688 148 732 c 4
 143 777 107 805 25 807 c 5
 18 842 l 5
 33 841 49.013671875 841.684570312 66 841 c 4
 190 836 455 865 455 865 c 5
 441.071289062 827.956054688 435 661 435 661 c 5
 429.46875 531.288085938 425.4453125 223.3671875 431.209960938 93.5146484375 c 0
 434.668945312 25.3955078125 450.079101562 18 477 18 c 0
 480 18 484.958007812 18.2880859375 485 18 c 2
 495 0 l 1
 36 0 l 1
 28 32 l 1
404 489 m 1
 446.563476562 577 540.114257812 641.415039062 662 635 c 0
 738 631 824.288787255 598.728859174 840 505 c 0
 855.111598442 414.848278089 831.870684131 263.379889268 831.961914062 94.4150390625 c 0
 832 23.876953125 888.505859375 28 914 28 c 1
 921 0 l 1
 508 0 l 1
 501 27 l 1
 533.267578125 30.6025390625 541.676627179 62.8737445554 544.375976562 92.1806640625 c 0
 551.399414062 181.603515625 550.627929688 346.3203125 540 432 c 0
 530.073242188 512.028320312 523.03515625 553 490 553 c 0
 420.077148438 553 428 409 428 409 c 1
 404 489 l 1
EndSplineSet
Layer: 2
SplineSet
36 61 m 1
 114.303710938 56.87890625 146.954101562 90.62109375 153 142 c 0
 177 346 172 483 158 687 c 0
 154.779296875 733.931640625 110 767 38 766 c 1
 33 830 l 1
 116 828 294 850 294 850 c 1
 252 672 265.985351562 230.2734375 273 172 c 0
 283.4140625 85.484375 320.295898438 48.2939453125 369 51 c 1
 379 0 l 1
 46 0 l 1
 36 61 l 1
241 454 m 1
 290 522 400 612 507 612 c 0
 583 612 639 582 653 488 c 4
 656 466 658 408 658 363 c 4
 658 244 657 82 653 0 c 5
 524 0 l 1
 542 79 561 202 561 303 c 0
 561 347 559 387 555 417 c 0
 546 480 494 513 435 513 c 0
 334 513 266 417 266 417 c 1
 241 454 l 1
428 62 m 1
 432 62 450 59 464 59 c 0
 503 59 542 69 548 140 c 1
 657 139 l 5
 654 60 714 50 741 50 c 4
 744 50 746 50 748 50 c 5
 758 0 l 5
 438 0 l 1
 428 62 l 1
EndSplineSet
EndChar

StartChar: e
Encoding: 69 101 5
GlifName: uni0065
Width: 672
VWidth: 153
Flags: HMW
AnchorPoint: "top" 380 630 basechar 0
LayerCount: 3
Back
SplineSet
21 266 m 0
 19.978515625 517.934570312 195.12890625 621.26953125 342 629 c 0
 490.426757812 636.8125 630 561 622 298 c 1
 220 295 l 1
 190 363 l 1
 374 377 l 1
 428 378 l 1
 428.432617188 497.090820312 392.897460938 554.37109375 334 552.4609375 c 0
 266.62109375 550.275390625 246.291015625 431.56640625 244.938476562 350 c 0
 243.080078125 237.90234375 274.375 113.2265625 429 113.590820312 c 0
 539.772460938 113.8515625 567.35546875 163 569 163 c 1
 610 102 l 1
 595 85 532.994140625 -28.2939453125 326 -26 c 0
 162.984375 -24.193359375 21.81640625 64.6787109375 21 266 c 0
EndSplineSet
Fore
SplineSet
-19 266 m 4
 -20.021484375 567.934570312 195.12890625 621.26953125 342 629 c 0
 490.426757812 636.8125 650 561 642 298 c 1
 220 295 l 1
 190 363 l 1
 344 377 l 1
 398 378 l 1
 398.432617188 497.090820312 392.897460938 604.37109375 334 602.4609375 c 0
 266.62109375 600.275390625 246.291015625 431.56640625 244.938476562 350 c 0
 243.080078125 237.90234375 334.375 73.2265625 489 73.5908203125 c 0
 599.772460938 73.8515625 627.35546875 123 629 123 c 1
 640 102 l 1
 625 85 532.994140625 -48.2939453125 326 -46 c 0
 162.984375 -44.193359375 -18.3193359375 64.677734375 -19 266 c 4
EndSplineSet
Layer: 2
SplineSet
50 240 m 0
 37 479 179.969726562 599.38671875 307 609 c 4
 492 623 580 527 562 298 c 1
 160 296 l 1
 130 344 l 1
 387 367 l 1
 447 368 l 1
 437 507 352.079101562 554.162109375 293 549 c 4
 190 540 159 452 162 319 c 4
 164 218 205.325195312 79.7333984375 343 53 c 0
 446 33 536 102 538 102 c 1
 562 68 l 1
 543 51 458 -19 331 -21 c 0
 204 -23 61 36 50 240 c 0
EndSplineSet
EndChar

StartChar: i
Encoding: 73 105 6
GlifName: uni0069
Width: 477
VWidth: 79
Flags: HMW
LayerCount: 3
Back
Refer: 204 729 N 1 0 0 1 231 616 2
Refer: 109 305 N 1 0 0 1 0 0 3
Fore
SplineSet
51 596 m 1x34
 134 594 341 607 341 607 c 1
 331 552 330 87 321 0 c 1x8c
 161 0 l 1
 176 218.666666667 177 424.213333333 170 492 c 0
 165 537 129 567 57 567 c 1
 51 596 l 1x34
52 28 m 1x44
 118 24 166 46 170 104 c 1x84
 327 109 l 1
 325 14 387 20 415 21 c 1
 425 0 l 1x24
 59 0 l 1
 52 28 l 1x44
155.799804688 805.499023438 m 4
 155.799804688 857.228515625 197.999023438 908.388671875 258.5 908.388671875 c 4
 329.635742188 908.388671875 366.201171875 864.944335938 366.201171875 803.215820312 c 4
 366.201171875 741.487304688 309.00390625 706 258.5 706 c 4
 197.999023438 706 155.799804688 753.771484375 155.799804688 805.499023438 c 4
EndSplineSet
Refer: 204 729 N 1 0 0 1 -129 616 2
Refer: 109 305 N 1 0 0 1 -360 0 3
Layer: 2
SplineSet
51 596 m 1x34
 134 594 341 607 341 607 c 1
 331 552 330 87 321 0 c 1x8c
 161 0 l 1
 176 218.666666667 177 424.213333333 170 492 c 0
 165 537 129 567 57 567 c 1
 51 596 l 1x34
52 28 m 1x44
 118 24 166 46 170 104 c 1x84
 327 109 l 1
 325 14 387 20 415 21 c 1
 425 0 l 1x24
 59 0 l 1
 52 28 l 1x44
155.799804688 805.499023438 m 4
 155.799804688 857.228515625 197.999023438 908.388671875 258.5 908.388671875 c 4
 329.635742188 908.388671875 366.201171875 864.944335938 366.201171875 803.215820312 c 4
 366.201171875 741.487304688 309.00390625 706 258.5 706 c 4
 197.999023438 706 155.799804688 753.771484375 155.799804688 805.499023438 c 4
EndSplineSet
Refer: 204 729 N 1 0 0 1 -129 616 2
Refer: 109 305 N 1 0 0 1 -360 0 3
EndChar

StartChar: s
Encoding: 83 115 7
GlifName: uni0073
Width: 555
VWidth: 153
Flags: HMW
LayerCount: 3
Back
SplineSet
8 6 m 5
 4 41 9 124 18 184 c 5
 144 175 l 5
 147 128 163 74 187 39 c 5
 146 50 134 104 127 147 c 5
 159 113 157.009765625 67.6533203125 243 66 c 4
 295 65 325.7109375 85.296875 327 129 c 4
 330.067514308 232.998030539 52.6015625 232.668945312 41 416 c 4
 31.8349609375 560.823242188 159 632 316 629 c 4
 410 627 524 586 524 586 c 5
 528 548 526 434 521 400 c 5
 399 421 l 5
 388 518 342 594 342 594 c 6
 342 594 409.655273438 544.036132812 403 468 c 5
 389 484 385 551 301 552 c 4
 245 552 225.974609375 490.604492188 248 449 c 4
 293 364 498 339 516 184 c 4
 529.096679688 71.2236328125 423 -27 259 -27 c 4
 146 -27 8 6 8 6 c 5
EndSplineSet
Fore
SplineSet
8 6 m 1
 4 41 9 124 18 184 c 1
 144 175 l 1
 147 128 163 74 187 39 c 1
 146 50 134 104 127 147 c 1
 159 92.012345679 157.009765625 18.6738884066 243 16 c 4
 295 14.8412698413 325.7109375 38.3598710317 327 89 c 0
 330.067514308 207.492529569 52.6015625 207.117578805 41 416 c 0
 31.8349609375 560.823242188 159 632 316 629 c 0
 410 627 524 586 524 586 c 1
 528 548 526 434 521 400 c 1
 399 421 l 1
 388 518 342 594 342 594 c 2
 342 594 409.655273438 544.036132812 403 468 c 1
 389 493.523809524 385 600.404761905 301 602 c 0
 245 602 225.974609375 510.800847619 248 449 c 0
 293 364 498 339 516 184 c 0
 529.096679688 71.2236328125 423 -27 259 -27 c 0
 146 -27 8 6 8 6 c 1
EndSplineSet
Layer: 2
SplineSet
8 6 m 1
 4 41 9 124 18 184 c 1
 144 175 l 1
 147 128 163 74 187 39 c 1
 146 50 134 104 127 147 c 1
 159 92.012345679 157.009765625 18.6738884066 243 16 c 4
 295 14.8412698413 325.7109375 38.3598710317 327 89 c 0
 330.067514308 207.492529569 52.6015625 207.117578805 41 416 c 0
 31.8349609375 560.823242188 159 632 316 629 c 0
 410 627 524 586 524 586 c 1
 528 548 526 434 521 400 c 1
 399 421 l 1
 388 518 342 594 342 594 c 2
 342 594 409.655273438 544.036132812 403 468 c 1
 389 493.523809524 385 600.404761905 301 602 c 0
 245 602 225.974609375 510.800847619 248 449 c 0
 293 364 498 339 516 184 c 0
 529.096679688 71.2236328125 423 -27 259 -27 c 0
 146 -27 8 6 8 6 c 1
EndSplineSet
EndChar

StartChar: o
Encoding: 79 111 8
AltUni2: 0000ba.ffffffff.0
GlifName: o
Width: 662
VWidth: 153
Flags: HMW
AnchorPoint: "top" 384 621 basechar 0
LayerCount: 3
Back
SplineSet
36 262 m 0
 37.5595703125 106.004882812 103 -29 281 -32 c 0
 504 -36 631 149 636 325 c 0
 642 532 526 615 382 616 c 0
 199.001953125 617.270507812 34 462 36 262 c 0
222 338 m 0
 223 451 262.12890625 517.329101562 323 519 c 0
 394.530273438 520.962890625 448 445 453 308 c 0
 457.927734375 172.956054688 428.334960938 69.814453125 349 71.701171875 c 0
 278.383789062 73.380859375 220.696289062 190.694335938 222 338 c 0
EndSplineSet
Fore
SplineSet
36 262 m 0
 37.5595703125 106.004882812 103 -29 281 -32 c 0
 504 -36 631 149 636 325 c 0
 642 532 526 615 382 616 c 0
 199.001953125 617.270507812 34 462 36 262 c 0
222 338 m 0
 223 451 262.12890625 517.329101562 323 519 c 0
 394.530273438 520.962890625 448 445 453 308 c 0
 457.927734375 172.956054688 428.334960938 69.814453125 349 71.701171875 c 0
 278.383789062 73.380859375 220.696289062 190.694335938 222 338 c 0
EndSplineSet
Layer: 2
SplineSet
44 246 m 0
 45 90 121 -15 299 -18 c 0
 522 -22 611 148 616 324 c 0
 622 531 516 614 362 615 c 0
 179 616 42 466 44 246 c 0
161 298 m 4
 166 466 237 532 293 546 c 0
 401.122070312 573.030273438 503 476 508 308 c 0
 511.869140625 177.99609375 463 60 366 49 c 0
 252 36 156.178710938 135.994140625 161 298 c 4
EndSplineSet
EndChar

StartChar: b
Encoding: 66 98 9
GlifName: b
Width: 737
VWidth: 79
Flags: HMW
LayerCount: 3
Back
SplineSet
699 366 m 4
 700 224 591.078125 41.9931640625 392 -7 c 4
 286.068359375 -33.0703125 124 -9.619140625 84 2 c 5
 231 153 l 5
 231 153 272.594726562 55.9521484375 383 86 c 4
 457.541015625 106.287109375 488.518554688 213.01171875 485 313 c 4
 482.080670291 395.959847411 461.729492188 470.674804688 393 481 c 4
 332.160357549 490.139907354 293 446 272 392 c 5
 247 463 l 5
 279 537 362 619 475 619 c 4
 610 619 698 527 699 366 c 4
-35 829 m 5
 48 827 309 850 309 850 c 5
 284 637 279 259.126953125 279 196 c 4
 279 102 296 49 296 49 c 5
 333 1 l 5
 82 0 l 5
 82 0 92 106 93 170 c 4
 95.115234375 305.353515625 100 509 85 699 c 4
 81.5146484375 743.145507812 50 746 -28 746 c 5
 -35 829 l 5
EndSplineSet
Fore
SplineSet
689 385 m 0
 690.09765625 239.193359375 591.07790007 43.3075921867 392 -7 c 0
 286.068359375 -33.0703125 124 -9.619140625 84 2 c 1
 261 173 l 1
 261 173 302.421875 16.8525390625 413 46 c 0
 494.307642395 67.432008642 488.374209766 252.627662935 481 319 c 0
 471.226252064 406.969628333 439.864257812 508.583007812 383 521 c 0
 323.055066623 534.089694618 293 489.93258427 272 442 c 1
 247 463 l 1
 277.596491228 537 366.956054688 619 475 619 c 4
 585.5390625 619 687.759765625 549.634765625 689 385 c 0
-35 829 m 1
 48 827 309 850 309 850 c 1
 284 637 279 259.126953125 279 196 c 0
 279 102 296 49 296 49 c 1
 333 1 l 1
 82 0 l 1
 82 0 92.0971059707 105.998556404 93 170 c 0
 95.115234375 319.9379209 101.607581899 545.648153616 85 756 c 0
 81.5146484375 800.145507812 50 803 -28 803 c 1
 -35 829 l 1
EndSplineSet
Layer: 2
SplineSet
689 385 m 0
 690.09765625 239.193359375 591.07790007 43.3075921867 392 -7 c 0
 286.068359375 -33.0703125 124 -9.619140625 84 2 c 1
 261 173 l 1
 261 173 302.421875 16.8525390625 413 46 c 0
 494.307642395 67.432008642 488.374209766 252.627662935 481 319 c 0
 471.226252064 406.969628333 439.864257812 508.583007812 383 521 c 0
 323.055066623 534.089694618 293 489.93258427 272 442 c 1
 247 463 l 1
 277.596491228 537 366.956054688 619 475 619 c 4
 585.5390625 619 687.759765625 549.634765625 689 385 c 0
-35 829 m 1
 48 827 309 850 309 850 c 1
 284 637 279 259.126953125 279 196 c 0
 279 102 296 49 296 49 c 1
 333 1 l 1
 82 0 l 1
 82 0 92.0971059707 105.998556404 93 170 c 0
 95.115234375 319.9379209 101.607581899 545.648153616 85 756 c 0
 81.5146484375 800.145507812 50 803 -28 803 c 1
 -35 829 l 1
EndSplineSet
EndChar

StartChar: r
Encoding: 82 114 10
GlifName: r
Width: 640
VWidth: 79
Flags: HMW
LayerCount: 3
Back
SplineSet
49 602 m 5
 132 600 339 613 339 613 c 5
 329 557.456342669 328 87.8599670511 319 0 c 1
 159 0 l 1
 174 202.666666667 174.890254695 393.160877185 168 456 c 4
 163 501 127 531 55 531 c 5
 49 602 l 5
50 87 m 1
 116 83 164 105 168 163 c 1
 325 168 l 1
 323 73 385 79 413 80 c 1
 423 0 l 1
 57 0 l 1
 50 87 l 1
246 350 m 5
 275 454 383.192339671 562.407835409 501 601 c 0
 570.262135922 620 624 609 624 609 c 1
 626 563.321243523 616 431.093264249 609 377 c 1
 529 383 l 1
 508 426 479 465 430 499 c 1
 551 436 l 1
 551 436 489.16255933 464.397713029 415 447 c 0
 321.538830008 425.075047173 292 363.521276596 290 325 c 1
 246 350 l 5
EndSplineSet
Fore
SplineSet
49 602 m 5
 132 600 339 613 339 613 c 5
 329 557.456342669 328 87.8599670511 319 0 c 1
 159 0 l 1
 174 202.666666667 174.890254695 393.160877185 168 456 c 4
 163 501 127 531 55 531 c 5
 49 602 l 5
50 87 m 1
 116 83 164 105 168 163 c 1
 325 168 l 1
 323 73 385 79 413 80 c 1
 423 0 l 1
 57 0 l 1
 50 87 l 1
246 350 m 5
 275 454 383.192339671 562.407835409 501 601 c 0
 570.262135922 620 624 609 624 609 c 1
 626 563.321243523 616 431.093264249 609 377 c 1
 529 383 l 1
 508 426 479 465 430 499 c 1
 551 436 l 1
 551 436 489.16255933 464.397713029 415 447 c 0
 321.538830008 425.075047173 292 363.521276596 290 325 c 1
 246 350 l 5
EndSplineSet
Layer: 2
SplineSet
49 595 m 1
 64 594 80 594 97 594 c 0
 191 594 293 608 293 608 c 1
 293 608 276 486 270 460 c 1
 293 468 l 1
 290 402 280 349 280 279 c 0
 280 193 291 100 304 0 c 1
 165 0 l 1
 176 144 191 206 191 328 c 0
 191 455.258495323 194.318280091 530.626383412 56 534 c 1
 49 595 l 1
52 63 m 1
 64 62 75 61 85 61 c 0
 140 61 174 82 177 131 c 1
 288 150 l 1
 288 146 288 142 288 139 c 0
 288 63 357 49 405 49 c 0
 408 49 411 49 413 49 c 1
 423 1 l 1
 60 1 l 1
 52 63 l 1
215 350 m 1
 224 454 352 563 470 601 c 0
 528 620 573 609 573 609 c 1
 575 571 565 461 558 416 c 1
 498 422 l 1
 477 465 448 504 399 538 c 1
 520 475 l 1
 520 475 456 504 384 483 c 0
 318 464 261 416 259 295 c 1
 215 350 l 1
461 429 m 1049
EndSplineSet
EndChar

StartChar: period
Encoding: 14 46 11
GlifName: period
Width: 277
VWidth: 79
Flags: HMW
LayerCount: 3
Back
SplineSet
36.568359375 44.4892578125 m 4
 36.568359375 96.21875 78.767578125 147.37890625 139.268554688 147.37890625 c 4
 210.404296875 147.37890625 246.969726562 103.934570312 246.969726562 42.2060546875 c 4
 246.969726562 -19.5224609375 189.772460938 -55.009765625 139.268554688 -55.009765625 c 4
 78.767578125 -55.009765625 36.568359375 -7.23828125 36.568359375 44.4892578125 c 4
EndSplineSet
Fore
SplineSet
36.568359375 44.4892578125 m 4
 36.568359375 96.21875 78.767578125 147.37890625 139.268554688 147.37890625 c 4
 210.404296875 147.37890625 246.969726562 103.934570312 246.969726562 42.2060546875 c 4
 246.969726562 -19.5224609375 189.772460938 -55.009765625 139.268554688 -55.009765625 c 4
 78.767578125 -55.009765625 36.568359375 -7.23828125 36.568359375 44.4892578125 c 4
EndSplineSet
Layer: 2
SplineSet
65.568359375 51.4892578125 m 0
 65.568359375 103.21875 106.767578125 136.37890625 157.268554688 136.37890625 c 0
 218.404296875 136.37890625 248.969726562 93.9345703125 248.969726562 42.2060546875 c 0
 248.969726562 -9.5224609375 207.772460938 -44.009765625 157.268554688 -44.009765625 c 0
 106.767578125 -44.009765625 65.568359375 -0.23828125 65.568359375 51.4892578125 c 0
EndSplineSet
EndChar

StartChar: t
Encoding: 84 116 12
GlifName: t
Width: 470
VWidth: 79
Flags: HMW
LayerCount: 3
Back
SplineSet
15 604 m 1
 49 606 113 603 135 604 c 1
 248.5 604 l 1
 412 604 l 1
 424 496 l 1
 245.87890625 484.751953125 l 1
 128 474 l 1
 128 474 98 493 30 493 c 1
 15 604 l 1
456 52 m 1
 437.599609375 34.587890625 378.782226562 -24.43359375 272 -22 c 0
 197.036132812 -20.705078125 104.829101562 12.1201171875 108 141 c 0
 115 381.513671875 114 701.184570312 114 757 c 1
 288 796 l 1
 280 696.12109375 256 624.540039062 272 241 c 1
 271.712890625 241 l 1
 275.942382812 101.005859375 347.37109375 72.4580078125 423 103 c 1
 456 52 l 1
EndSplineSet
Fore
SplineSet
15 604 m 1
 49 606 113 603 135 604 c 1
 248.5 604 l 1
 412 604 l 1
 424 496 l 1
 245.87890625 484.751953125 l 1
 128 474 l 1
 128 474 98 493 30 493 c 1
 15 604 l 1
456 52 m 1
 437.599609375 34.587890625 378.782226562 -24.43359375 272 -22 c 0
 197.036132812 -20.705078125 104.829101562 12.1201171875 108 141 c 0
 115 381.513671875 114 701.184570312 114 757 c 1
 288 796 l 1
 280 696.12109375 256 624.540039062 272 241 c 1
 271.712890625 241 l 1
 275.942382812 101.005859375 347.37109375 72.4580078125 423 103 c 1
 456 52 l 1
EndSplineSet
Layer: 2
SplineSet
31 584 m 5
 65 586 129 583 151 584 c 5
 151 584 156 678 158 767 c 5
 267 792 l 5
 265.51953125 533.103515625 162.453125 -39.9326171875 446 95 c 1
 472 60 l 1
 451 36 380 -12 299 -13 c 0
 215 -14 138 42 142 140 c 4
 144 193 155 340 148 498 c 5
 148 498 114 517 46 517 c 5
 31 584 l 5
153 584 m 1
 175 585 198 583 223 584 c 1
 418 584 l 1
 430 520 l 1
 253 505 l 1
 228 506 195 465 167 485 c 1
 153 584 l 1
EndSplineSet
EndChar

StartChar: p
Encoding: 80 112 13
GlifName: p
Width: 773
VWidth: 79
Flags: HMW
LayerCount: 3
Back
SplineSet
15 599 m 1
 30 598 46 598 63 598 c 0
 157 598 319 612 319 612 c 1
 319 612 302 496 296 470 c 1
 296 461 298 457 301 457 c 0
 308 457 319 478 319 478 c 1
 317 437 317 395 317 351 c 0
 317 327 317 304 317 279 c 0
 317 119.021484375 316 -53.978515625 306 -240 c 1
 131 -240 l 1
 142 -1.0546875 151 211.340820312 151 364 c 0
 151 400 146.890625 431.987304688 145 449 c 0
 140 494 104 522 22 524 c 1
 15 599 l 1
36 -158 m 1
 48 -159 59 -160 69 -160 c 0
 124 -160 135 -139 138 -90 c 1
 313 -77 l 1
 313 -81 313 -85 313 -88 c 0
 313 -164 361 -172 389 -172 c 0
 392 -172 395 -172 397 -172 c 1
 407 -240 l 1
 44 -240 l 1
 36 -158 l 1
738 369 m 0
 739 227 640.078125 44.994140625 441 -4 c 0
 335.068359375 -30.0703125 222 -26.619140625 182 5 c 1
 280 163 l 1
 280 163 331.594726562 55.9521484375 442 86 c 0
 516.541015625 106.287109375 557.518554688 196.01171875 554 306 c 0
 551.345703125 388.96875 510.729492188 471.674804688 432 482 c 0
 371 490 335 437 314 383 c 1
 283 444 l 1
 315 518 401 610 514 610 c 0
 659 610 736.866210938 529.999023438 738 369 c 0
EndSplineSet
Fore
SplineSet
15 599 m 1
 30 598 46 598 63 598 c 0
 157 598 319 612 319 612 c 1
 319 612 302 496 296 470 c 1
 296 461 298 457 301 457 c 0
 308 457 319 478 319 478 c 1
 317 437 317 395 317 351 c 0
 317 327 317 304 317 279 c 0
 317 119.021484375 316 -53.978515625 306 -240 c 1
 131 -240 l 1
 142 -1.0546875 151 211.340820312 151 364 c 0
 151 400 146.890625 431.987304688 145 449 c 0
 140 494 104 522 22 524 c 1
 15 599 l 1
36 -158 m 1
 48 -159 59 -160 69 -160 c 0
 124 -160 135 -139 138 -90 c 1
 313 -77 l 1
 313 -81 313 -85 313 -88 c 0
 313 -164 361 -172 389 -172 c 0
 392 -172 395 -172 397 -172 c 1
 407 -240 l 1
 44 -240 l 1
 36 -158 l 1
738 369 m 0
 739 227 640.078125 44.994140625 441 -4 c 0
 335.068359375 -30.0703125 222 -26.619140625 182 5 c 1
 280 163 l 1
 280 163 331.594726562 55.9521484375 442 86 c 0
 516.541015625 106.287109375 557.518554688 196.01171875 554 306 c 0
 551.345703125 388.96875 510.729492188 471.674804688 432 482 c 0
 371 490 335 437 314 383 c 1
 283 444 l 1
 315 518 401 610 514 610 c 0
 659 610 736.866210938 529.999023438 738 369 c 0
EndSplineSet
Layer: 2
SplineSet
24 595 m 1
 39 594 55 594 72 594 c 0
 166 594 278 608 278 608 c 1
 278 608 261 506 255 480 c 1
 278 488 l 1
 275 422 267 309 267 239 c 0
 267 153 272 -117 285 -217 c 1
 140 -217 l 1
 151 -73 167 166 167 258 c 0
 167 448.081054688 168.337890625 537.791015625 31 534 c 1
 24 595 l 1
27 -156 m 1
 39 -157 50 -158 60 -158 c 0
 115 -158 144 -150 147 -101 c 1
 276 -82 l 1
 276 -86 276 -90 276 -93 c 0
 276 -169 335 -170 383 -170 c 0
 386 -170 389 -170 391 -170 c 1
 401 -218 l 1
 35 -218 l 1
 27 -156 l 1
167 32 m 5
 239 162 l 5
 239 162 314.483398438 38.1171875 432 56 c 0
 524 70 582 176 583 339 c 0
 583.840820312 476.000976562 502 545 410 524 c 0
 354.419921875 511.313476562 299 458 263 374 c 1
 233 415 l 1
 281 548 396 610 481 613 c 0
 625.91015625 618.114257812 693 515 687 344 c 0
 681 172 598 -10 368 -12 c 0
 270 -13 210 15 167 32 c 5
EndSplineSet
EndChar

StartChar: v
Encoding: 86 118 14
GlifName: v
Width: 721
VWidth: 79
Flags: HMW
LayerCount: 3
Back
SplineSet
9 596 m 1
 139.807617188 590.78125 276.192382812 592.904296875 407 596 c 1
 419 515 l 1
 352.5 509.731445312 314.875 500.073242188 328 443 c 1
 327.7265625 442.962890625 l 1
 350.4453125 369.133789062 384.286132812 279.43359375 404.678710938 208 c 1
 406.181640625 181.494140625 415.991210938 106 415.991210938 106 c 5
 440.725585938 165.569335938 503.000976562 304.583007812 555.733398438 441.791992188 c 1
 576.129882812 506.131835938 528.278320312 516.299804688 474 513 c 1
 462 596 l 1
 569.407226562 590.463867188 684.592773438 592.002929688 792 596 c 1
 802 512 l 1
 732.022460938 509.735351562 724.594726562 470.991210938 706.810546875 429.861328125 c 0
 630.35546875 262.4453125 547.770507812 83.24609375 510.661132812 7.6162109375 c 9
 285.399414062 -35.650390625 l 1
 241.375976562 74.5556640625 204.461914062 212.4921875 114.497070312 446.43359375 c 1
 95.3037109375 510.984375 79.650390625 516.875976562 23 516 c 1
 9 596 l 1
EndSplineSet
Fore
SplineSet
9 596 m 1
 139.807617188 590.78125 276.192382812 592.904296875 407 596 c 1
 419 515 l 1
 352.5 509.731445312 314.875 500.073242188 328 443 c 1
 327.7265625 442.962890625 l 1
 350.4453125 369.133789062 384.286132812 279.43359375 404.678710938 208 c 1
 406.181640625 181.494140625 415.991210938 106 415.991210938 106 c 5
 440.725585938 165.569335938 503.000976562 304.583007812 555.733398438 441.791992188 c 1
 576.129882812 506.131835938 528.278320312 516.299804688 474 513 c 1
 462 596 l 1
 569.407226562 590.463867188 684.592773438 592.002929688 792 596 c 1
 802 512 l 1
 732.022460938 509.735351562 724.594726562 470.991210938 706.810546875 429.861328125 c 0
 630.35546875 262.4453125 547.770507812 83.24609375 510.661132812 7.6162109375 c 9
 285.399414062 -35.650390625 l 1
 241.375976562 74.5556640625 204.461914062 212.4921875 114.497070312 446.43359375 c 1
 95.3037109375 510.984375 79.650390625 516.875976562 23 516 c 1
 9 596 l 1
EndSplineSet
Layer: 2
SplineSet
723 538 m 1
 653.022460938 535.735351562 645.594726562 496.991210938 627.810546875 455.861328125 c 0
 550.965820312 278.13671875 467.959960938 87.9033203125 430.661132812 7.6162109375 c 9
 316.399414062 -25.650390625 l 1
 277.270507812 85.927734375 244.459960938 205.581054688 164.497070312 442.43359375 c 5
 145.303710938 506.984375 119.650390625 532.875976562 63 532 c 1
 49 596 l 1
 163 590.78125 247 592.904296875 361 596 c 1
 375 542 l 1
 299 536 260 525 275 460 c 1
 274.7265625 459.962890625 l 1
 292.463867188 361.939453125 325.78125 251.842773438 354.678710938 147 c 1
 357.244140625 124.912109375 376 56 373.991210938 62 c 1
 403.858398438 133.987304688 489.057617188 302.979492188 552.733398438 468.791992188 c 1
 570.560546875 526.806640625 518.559570312 535.975585938 451 533 c 1
 442 596 l 1
 538.666992188 590.463867188 615.333007812 592.002929688 712 596 c 1
 723 538 l 1
EndSplineSet
EndChar

StartChar: m
Encoding: 77 109 15
GlifName: m
Width: 1352
VWidth: 79
Flags: HMW
LayerCount: 3
Back
SplineSet
670 479 m 1
 722.563476562 547 817.9453125 633 940 633 c 0
 1016 633 1095.15917969 599.165039062 1108 505 c 0
 1111 483 1113 438 1113 393 c 0
 1113 323.544921875 1105.90039062 240.881835938 1105.96191406 144.415039062 c 0
 1106 85 1152.50585938 68 1178 68 c 0
 1181 68 1184.91894531 68.552734375 1185 68 c 2
 1195 0 l 1
 838 0 l 1
 828 87 l 1
 828 87 831.666992188 84 834 84 c 0
 868.943359375 84 887.639648438 101.615234375 891.375976562 142.180664062 c 0
 898.399414062 218.446289062 903.826171875 359.779296875 887 432 c 0
 875.073242188 483.189453125 845.03515625 503 812 503 c 0
 722.077148438 503 685 419 685 419 c 1
 670 479 l 1
16 82 m 1
 28 81 39 80 49 80 c 0
 111.815429688 80 121.897460938 115.872070312 124.893554688 150.140625 c 0
 132.083984375 232.366210938 134 318.5390625 134 377 c 0
 134 413 129.890625 444.987304688 128 462 c 0
 123 507 87 535 5 537 c 1
 -2 612 l 1
 13 611 29 611 46 611 c 0
 140 611 345 625 345 625 c 1
 345 625 334.50390625 580.375976562 327.692382812 538 c 1
 324.420898438 517.646484375 302 491.658203125 302 483 c 0
 302 474 324 470 327 470 c 0
 334 470 345 491 345 491 c 1
 339.46875 377.604492188 335.4453125 257.033203125 341.209960938 143.514648438 c 0
 344.668945312 75.3955078125 390.079101562 68 417 68 c 0
 420 68 424.958007812 68.2880859375 425 68 c 2
 435 0 l 1
 24 0 l 1
 16 82 l 1
293 479 m 1
 345.563476562 547 440.9453125 633 563 633 c 0
 639 633 718.159179688 599.165039062 731 505 c 0
 734 483 736 438 736 393 c 0
 736 323.544921875 728.900390625 240.881835938 728.961914062 144.415039062 c 0
 729 85 775.505859375 68 801 68 c 0
 804 68 807.918945312 68.552734375 808 68 c 2
 818 0 l 1
 461 0 l 1
 451 87 l 1
 451 87 454.666992188 84 457 84 c 0
 491.943359375 84 510.639648438 101.615234375 514.375976562 142.180664062 c 0
 521.399414062 218.446289062 526.826171875 359.779296875 510 432 c 0
 498.073242188 483.189453125 468.03515625 503 435 503 c 0
 345.077148438 503 308 409 308 409 c 1
 293 479 l 1
EndSplineSet
Fore
SplineSet
810 489 m 1
 852.563476562 577 957.114257812 641.415039062 1079 635 c 0
 1155 631 1241.58075139 598.777332123 1257 505 c 0
 1275.11162939 394.848051124 1248.87023956 263.379937507 1248.96191406 94.4150390625 c 0
 1249 23.876953125 1305.50585938 28 1331 28 c 1
 1338 0 l 1
 925 0 l 1
 918 27 l 1
 950.267578125 30.6025390625 958.676757812 42.8740234375 961.375976562 72.1806640625 c 4
 968.399414062 161.603515625 967.627929688 346.3203125 957 432 c 0
 947.073242188 512.028320312 940.03515625 553 907 553 c 0
 837.077148438 553 825 409 825 409 c 1
 810 489 l 1
18 32 m 1
 30 31 41 30 51 30 c 0
 113.815429688 30 131.897460938 65.8720703125 134.893554688 100.140625 c 0
 142.083984375 214.987304688 144 335.346679688 144 417 c 0
 144 453 139.890625 484.987304688 138 502 c 0
 133 547 97 575 15 577 c 1
 8 612 l 1
 23 611 39 611 56 611 c 0
 150 611 415 625 415 625 c 1
 415 625 400.116210938 535.41796875 393.432617188 492 c 0
 407 470 l 0
 414 470 435 501 435 501 c 1
 429.46875 371.288085938 425.4453125 223.3671875 431.209960938 93.5146484375 c 0
 434.668945312 25.3955078125 450.079101562 18 477 18 c 0
 480 18 484.958007812 18.2880859375 485 18 c 2
 495 0 l 1
 26 0 l 1
 18 32 l 1
393 489 m 1
 435.563476562 577 540.114257812 641.415039062 662 635 c 0
 738 631 827.159179688 599.165039062 840 505 c 0
 843 483 845 438 845 393 c 0
 845 328.3984375 837.890970695 225.807612439 831.961914062 94.4150390625 c 0
 828.78213607 23.9486496972 870.505859375 28 896 28 c 1
 903 0 l 1
 508 0 l 1
 501 27 l 1
 533.267578125 30.6025390625 541.676627179 62.8737445554 544.375976562 92.1806640625 c 0
 551.399414062 181.603515625 550.627929688 346.3203125 540 432 c 0
 530.073242188 512.028320312 523.03515625 563 490 563 c 0
 420.077148438 563 428 409 428 409 c 1
 393 489 l 1
EndSplineSet
Layer: 2
SplineSet
49 595 m 1
 64 594 80 594 97 594 c 0
 191 594 293 608 293 608 c 1
 293 608 276 496 270 470 c 1
 270 461 272 457 275 457 c 0
 282 457 293 478 293 478 c 1
 291 437 281 395 281 351 c 0
 281 327 281 304 281 279 c 0
 281 193 290 100 300 0 c 1
 165 0 l 1
 176 144 189 226 189 318 c 0
 189 443.881835938 193.056691327 530.65715387 56 534 c 1
 49 595 l 1
52 62 m 1
 64 61 75 60 85 60 c 0
 140 60 172 81 175 130 c 1
 288 143 l 1
 288 139 288 135 288 132 c 0
 288 56 337 48 365 48 c 0
 368 48 371 48 373 48 c 1
 383 0 l 1
 60 0 l 1
 52 62 l 1
237 454 m 1
 286 522 396 612 503 612 c 0
 579 612 631 582 645 488 c 0
 648 466 650 408 650 363 c 0
 650 244 649 82 645 0 c 1
 520 0 l 1
 538 79 557 202 557 303 c 0
 557 347 555 387 551 417 c 0
 542 480 490 513 431 513 c 0
 330 513 262 417 262 417 c 1
 237 454 l 1
423 62 m 1
 427 62 445 59 459 59 c 0
 498 59 537 69 543 140 c 1
 648 139 l 1
 645 60 705 50 732 50 c 0
 735 50 737 50 739 50 c 1
 749 0 l 1
 433 0 l 1
 423 62 l 1
616 454 m 1
 665 522 775 612 882 612 c 0
 958 612 1010 582 1024 488 c 0
 1027 466 1029 408 1029 363 c 0
 1029 244 1028 82 1024 0 c 1
 899 0 l 1
 917 79 936 202 936 303 c 0
 936 347 934 387 930 417 c 0
 921 480 869 513 810 513 c 0
 709 513 641 417 641 417 c 1
 616 454 l 1
802 62 m 1
 806 62 824 59 838 59 c 0
 877 59 916 69 922 140 c 1
 1027 139 l 1
 1024 60 1084 50 1111 50 c 0
 1114 50 1116 50 1118 50 c 1
 1128 0 l 1
 812 0 l 1
 802 62 l 1
EndSplineSet
EndChar

StartChar: g
Encoding: 71 103 16
GlifName: g
Width: 799
VWidth: 153
Flags: HMW
LayerCount: 3
Back
SplineSet
57 -180 m 0
 57.9684955069 -79.1719134469 134.754690576 -15.755859375 291 42 c 1
 395 26 l 1
 319.167696852 -0.828125 264.103399007 -64.1386684396 263.491210938 -125 c 0
 262.810036083 -192.719726562 298.735848961 -235.007250041 374 -228 c 0
 441.120117188 -221.750976562 492 -159.78515625 492 -96 c 0
 492 -6.2041015625 408.227592424 28.3415579574 286 28.00390625 c 0
 158.383287584 27.6513671875 93.6186655405 54.8203125 91 120 c 1
 94.2112676056 154 181.985915493 212 243 251 c 1
 303 226 l 1
 272 207.791378997 222 144.458621003 282 150 c 1
 516.724609375 176.012310606 737.726600371 129.273353002 717 -58 c 0
 699.405273438 -216.975585938 502.96133633 -312.731966213 292 -314 c 0
 158.125057444 -314.8046875 56.1156265139 -272.070315004 57 -180 c 0
37 370 m 0
 35.940652819 521 222.385756677 611 394 611 c 0
 529.12145749 611 661 571 661 453 c 0
 661 294.559322034 481.387096774 207 341 207 c 0
 180.124087591 207 37.8371105044 250.677752843 37 370 c 0
265 407 m 0
 265 336.23046875 308.333977803 305.810793704 353 307 c 0
 408.458984375 308.4765625 458 363.197265625 458 437 c 0
 458 493.409179688 418.865234375 539 375 539 c 0
 304.6953125 539 265 485.831054688 265 407 c 0
567 520 m 1
 598.415039062 522.439453125 692.188476562 557.813476562 799 631 c 1
 805 585.77734375 806 502.666992188 802 466 c 1
 742.762695312 468 672.948242188 468 619 468 c 1
 567 520 l 1
EndSplineSet
Fore
SplineSet
57 -180 m 0
 57.9684955069 -79.1719134469 134.754690576 -15.755859375 291 42 c 1
 395 26 l 1
 319.167696852 -0.828125 264.103399007 -64.1386684396 263.491210938 -125 c 0
 262.810036083 -192.719726562 298.735848961 -235.007250041 374 -228 c 0
 441.120117188 -221.750976562 492 -159.78515625 492 -96 c 0
 492 -6.2041015625 408.227592424 28.3415579574 286 28.00390625 c 0
 158.383287584 27.6513671875 93.6186655405 54.8203125 91 120 c 1
 94.2112676056 154 181.985915493 212 243 251 c 1
 303 226 l 1
 272 207.791378997 222 144.458621003 282 150 c 1
 516.724609375 176.012310606 737.726600371 129.273353002 717 -58 c 0
 699.405273438 -216.975585938 502.96133633 -312.731966213 292 -314 c 0
 158.125057444 -314.8046875 56.1156265139 -272.070315004 57 -180 c 0
37 370 m 0
 35.940652819 521 222.385756677 611 394 611 c 0
 529.12145749 611 661 571 661 453 c 0
 661 294.559322034 481.387096774 207 341 207 c 0
 180.124087591 207 37.8371105044 250.677752843 37 370 c 0
265 407 m 0
 265 336.23046875 308.333977803 305.810793704 353 307 c 0
 408.458984375 308.4765625 458 363.197265625 458 437 c 0
 458 493.409179688 418.865234375 539 375 539 c 0
 304.6953125 539 265 485.831054688 265 407 c 0
567 520 m 1
 598.415039062 522.439453125 692.188476562 557.813476562 799 631 c 1
 805 585.77734375 806 502.666992188 802 466 c 1
 742.762695312 468 672.948242188 468 619 468 c 1
 567 520 l 1
EndSplineSet
Layer: 2
SplineSet
31 -192 m 0
 -2.28888377178 -89.7377163266 98 27 231 62 c 1
 295 56 l 21
 212 26 162.804784507 -22.2859563788 149 -75 c 0
 129.104492188 -150.971679688 207 -215 283 -215 c 0
 434 -215 522 -138 522 -66 c 0
 522 83 128 60 52 57 c 1
 54 74 47 96 41 119 c 1
 71 154 136 201 193 240 c 1
 243 226 l 1
 212 203 142 123 202 130 c 1
 459 150 638 124 637 -38 c 0
 636 -181 423.999023438 -292.821289062 232 -294 c 0
 102.999023438 -294.791992188 49.5776033744 -249.069746143 31 -192 c 0
57 370 m 0
 56 511 192 611 334 611 c 0
 449 611 561 571 561 453 c 0
 561 301 427 217 291 217 c 0
 146 217 58 258 57 370 c 0
178 404 m 0
 178 312 240 273 305 274 c 0
 388.99609375 275.291992188 443 347 443 426 c 0
 443 499 404 558 316 558 c 0
 248 558 178 499 178 404 c 0
507 520 m 17
 537 522 617 551 719 611 c 1
 725 574 726 506 722 476 c 1
 666 478 600 478 549 478 c 9
 507 520 l 17
EndSplineSet
EndChar

StartChar: H
Encoding: 40 72 17
GlifName: H_
Width: 902
VWidth: 79
Flags: HMW
LayerCount: 3
Back
SplineSet
475 87 m 1
 541 83 587 105 591 163 c 1
 591.453125 163.014648438 l 1
 591.61328125 295.588867188 594.359375 601.201171875 591 646 c 0
 586.579101562 704.951171875 560 721 488 721 c 1
 482 806 l 1
 675 790 835 804 835 804 c 5
 841.416015625 717 l 5
 770.6796875 714.928710938 760.001953125 688.081054688 759.368164062 638 c 5
 756.107421875 483.112304688 754.03125 278.509765625 751.251953125 162.916015625 c 5
 755.864257812 83.6591796875 812.57421875 89.056640625 839 90 c 5
 849 0 l 5
 482 0 l 1
 475 87 l 1
23 87 m 1
 89 83 127 105 131 163 c 1
 131.453125 163.014648438 l 1
 131.61328125 295.588867188 134.359375 601.201171875 131 646 c 0
 126.579101562 704.951171875 108 721 36 721 c 1
 30 806 l 1
 223 790 391 804 391 804 c 1
 397.416015625 717 l 1
 326.6796875 714.928710938 296.001953125 688.081054688 295.368164062 638 c 1
 292.107421875 483.112304688 290.03125 278.509765625 287.251953125 162.916015625 c 1
 291.864257812 83.6591796875 368.57421875 89.056640625 395 90 c 1
 405 0 l 1
 30 0 l 1
 23 87 l 1
188 344 m 1
 188 433 l 1
 557 434 l 1
 701 441 l 1
 701 347 l 1
 188 344 l 1
EndSplineSet
Fore
SplineSet
475 87 m 1
 541 83 587 105 591 163 c 1
 591.453125 163.014648438 l 1
 591.61328125 295.588867188 594.359375 601.201171875 591 646 c 0
 586.579101562 704.951171875 560 721 488 721 c 1
 482 806 l 1
 675 790 835 804 835 804 c 5
 841.416015625 717 l 5
 770.6796875 714.928710938 760.001953125 688.081054688 759.368164062 638 c 5
 756.107421875 483.112304688 754.03125 278.509765625 751.251953125 162.916015625 c 5
 755.864257812 83.6591796875 812.57421875 89.056640625 839 90 c 5
 849 0 l 5
 482 0 l 1
 475 87 l 1
23 87 m 1
 89 83 127 105 131 163 c 1
 131.453125 163.014648438 l 1
 131.61328125 295.588867188 134.359375 601.201171875 131 646 c 0
 126.579101562 704.951171875 108 721 36 721 c 1
 30 806 l 1
 223 790 391 804 391 804 c 1
 397.416015625 717 l 1
 326.6796875 714.928710938 296.001953125 688.081054688 295.368164062 638 c 1
 292.107421875 483.112304688 290.03125 278.509765625 287.251953125 162.916015625 c 1
 291.864257812 83.6591796875 368.57421875 89.056640625 395 90 c 1
 405 0 l 1
 30 0 l 1
 23 87 l 1
188 344 m 1
 188 433 l 1
 557 434 l 1
 701 441 l 1
 701 347 l 1
 188 344 l 1
EndSplineSet
Layer: 2
SplineSet
42 61 m 1
 118 57 148 89 155 137 c 1
 274 146 l 1
 272 51 348 50 366 51 c 1
 376 0 l 1
 52 0 l 1
 42 61 l 1
61 800 m 5
 174 792 253 795 361 800 c 5
 371 749 l 5
 353 750 284 749 286 654 c 5
 160 663 l 5
 153 711 143 743 67 739 c 5
 61 800 l 5
127 0 m 1
 127 0 146 72 154 136 c 1
 166 298 166 583 156 768 c 1
 299 793 l 1
 274 593 270 208 274 145 c 0
 277 101 256 49 338 49 c 1
 322 1 l 1
 127 0 l 1
194 367 m 1
 194 433 l 1
 603 434 l 1
 747 441 l 1
 747 370 l 1
 194 367 l 1
537 58 m 1
 613 54 648 92 652 140 c 1
 770 139 l 1
 767 49 833 49 852 50 c 1
 862 0 l 1
 547 0 l 1
 537 58 l 1
552 800 m 1
 668 790 750 794 856 800 c 1
 861 749 l 1
 843 750 783 749 779 654 c 1
 655 663 l 1
 648 711 636 743 560 739 c 1
 552 800 l 1
624 0 m 1
 624 0 643 72 651 136 c 1
 663 298 660 583 650 768 c 1
 792 793 l 1
 767 593 767 208 770 145 c 0
 772 101 752 49 834 49 c 1
 818 1 l 1
 624 0 l 1
EndSplineSet
EndChar

StartChar: A
Encoding: 33 65 18
GlifName: A_
Width: 923
VWidth: 79
Flags: HMW
LayerCount: 3
Back
SplineSet
52 101 m 1
 113 92 145 126 164 176 c 0
 257 417 320 583 375 768 c 5
 414 770 525 788 571 799 c 5
 632 589 697 448 797 180 c 0
 814 134 835 83 893 85 c 1
 903 0 l 1
 791 0 629 0 517 0 c 1
 499 84 l 1
 570 73 625.297362309 86.3370388958 605 144 c 0
 561 269 525 376 472 521 c 0
 458.33203125 558.392578125 451 630 443 671 c 5
 383 463 299 250 284 185 c 0
 263 89 328 80 376 91 c 1
 386 0 l 1
 278 0 170 0 62 0 c 1
 52 101 l 1
285 272 m 1
 285 356 l 1
 688 364 l 1
 688 275 l 1
 285 272 l 1
EndSplineSet
Fore
SplineSet
52 101 m 1
 113 92 145 126 164 176 c 0
 257 417 320 584 375 769 c 5
 414 771 525 789 571 800 c 5
 632 590 697 448 797 180 c 0
 814 134 835 83 893 85 c 1
 903 0 l 1
 791 0 629 0 517 0 c 1
 499 84 l 1
 570 73 625.297362309 86.3370388958 605 144 c 0
 561 269 525 376 472 521 c 0
 458.33203125 558.392578125 451 630 443 671 c 1
 383 463 299 250 284 185 c 0
 263 89 328 80 376 91 c 1
 386 0 l 1
 278 0 170 0 62 0 c 1
 52 101 l 1
285 272 m 1
 285 356 l 1
 688 364 l 1
 688 275 l 1
 285 272 l 1
EndSplineSet
Layer: 2
SplineSet
42 61 m 1
 123 52 145 86 164 136 c 0
 257 377 326 583 381 768 c 5
 420 774 468 786 507 799 c 5
 568 589 637 418 737 150 c 0
 754 104 775 43 843 55 c 1
 853 0 l 1
 741 0 629 0 517 0 c 1
 507 64 l 1
 578 53 629 65 613 124 c 0
 579 249 505 396 462 541 c 4
 454 580 439 635 431 676 c 5
 371 468 279 210 264 145 c 0
 243 49 318 50 366 51 c 1
 376 0 l 1
 268 0 160 0 52 0 c 1
 42 61 l 1
285 308 m 1
 285 366 l 1
 608 374 l 1
 608 311 l 1
 285 308 l 1
EndSplineSet
EndChar

StartChar: B
Encoding: 34 66 19
GlifName: B_
Width: 719
VWidth: 79
Flags: HMW
LayerCount: 3
Back
SplineSet
-23 798 m 1
 165 786 246 803 396 803 c 0
 531 803 632 738 633 618 c 0
 634 524 548 417 441 412 c 1
 473 437 l 1
 613 401 679.073242188 322.999023438 678 220 c 0
 676 28 521 0 320 0 c 1
 252 -1 67 0 -7 0 c 1
 -17 84 l 1
 62 74 93 100 95 150 c 0
 104 365 107 458 99 618 c 0
 96 676 79 732 -13 725 c 1
 -23 798 l 1
244 375 m 1
 243 275 243 227 253 153 c 0
 260 95 305 84 358 84 c 0
 471 85 526 119 526 219 c 0
 526 306 475 383 370 386 c 0
 327 387 279 382 244 375 c 1
246 450 m 1
 442 426 478 530 480 587 c 0
 483 677 433 727 355 729 c 4
 309 730 275 721 252 712 c 5
 244 635 247 548 246 450 c 1
EndSplineSet
Fore
SplineSet
-23 798 m 1
 165 786 246 803 396 803 c 0
 531 803 632 738 633 618 c 0
 634 524 548 417 441 412 c 1
 473 437 l 1
 613 401 679.073242188 322.999023438 678 220 c 0
 676 28 521 0 320 0 c 1
 252 -1 67 0 -7 0 c 1
 -17 84 l 1
 62 74 93 100 95 150 c 0
 104 365 107 458 99 618 c 0
 96 676 79 732 -13 725 c 1
 -23 798 l 1
244 375 m 1
 243 275 243 227 253 153 c 0
 260 95 305 84 358 84 c 0
 471 85 526 119 526 219 c 0
 526 306 475 383 370 386 c 0
 327 387 279 382 244 375 c 1
246 450 m 1
 442 426 478 530 480 587 c 0
 483 677 433 727 355 729 c 4
 309 730 275 721 252 712 c 5
 244 635 247 548 246 450 c 1
EndSplineSet
Layer: 2
SplineSet
17 798 m 1
 205 786 246 803 396 803 c 0
 531 803 612 738 613 618 c 0
 614 524 548 417 441 412 c 1
 473 437 l 1
 613 401 669.072909024 322.999266338 668 220 c 4
 666 28 521 0 320 0 c 1
 252 -1 107 0 33 0 c 1
 23 61 l 1
 102 51 133 77 135 127 c 0
 144 342 147 468 139 628 c 0
 136 686 119 742 27 735 c 1
 17 798 l 1
244 375 m 1
 243 275 243 197 253 123 c 0
 260 65 305 61 358 61 c 0
 471 62 546 119 546 219 c 0
 546 306 475 383 370 386 c 0
 327 387 279 382 244 375 c 1
246 450 m 1
 442 426 488 530 490 587 c 0
 493 677 433 745 355 747 c 0
 309 748 275 739 252 730 c 1
 244 653 247 548 246 450 c 1
EndSplineSet
EndChar

StartChar: W
Encoding: 55 87 20
GlifName: W_
Width: 1231
VWidth: 79
Flags: HMW
LayerCount: 3
Back
SplineSet
-15 800 m 1
 101 796 233 793 321 800 c 1
 331 736 l 1
 260 747 209 735 225 676 c 0
 259 551 333 370 376 225 c 0
 384 192 399 135 407 100 c 1
 467 301 559 592 574 655 c 1
 674 664 l 1
 581 430 512 188 457 8 c 1
 418 2 370 -10 331 -23 c 1
 270 181 201 390 101 650 c 0
 84 696 63 748 -5 736 c 1
 -15 800 l 1
459 800 m 1
 571 800 683 800 795 800 c 1
 805 736 l 1
 734 747 683 735 699 676 c 0
 733 551 799 370 842 225 c 0
 850 192 865 135 873 100 c 1
 933 301 1024 592 1039 655 c 0
 1060 751 985 750 937 749 c 1
 927 800 l 1
 1035 800 1143 800 1251 800 c 1
 1261 739 l 1
 1180 748 1158 714 1139 664 c 0
 1046 430 978 188 923 8 c 1
 884 2 836 -10 797 -23 c 1
 736 181 675 390 575 650 c 0
 558 696 537 757 469 745 c 1
 459 800 l 1
EndSplineSet
Fore
SplineSet
-15 800 m 1
 101 796 233 793 321 800 c 1
 331 736 l 1
 260 747 209 735 225 676 c 0
 259 551 333 370 376 225 c 0
 384 192 399 135 407 100 c 1
 467 301 559 592 574 655 c 1
 674 664 l 1
 581 430 512 188 457 8 c 1
 418 2 370 -10 331 -23 c 1
 270 181 201 390 101 650 c 0
 84 696 63 748 -5 736 c 1
 -15 800 l 1
459 800 m 1
 571 800 683 800 795 800 c 1
 805 736 l 1
 734 747 683 735 699 676 c 0
 733 551 799 370 842 225 c 0
 850 192 865 135 873 100 c 1
 933 301 1024 592 1039 655 c 0
 1060 751 985 750 937 749 c 1
 927 800 l 1
 1035 800 1143 800 1251 800 c 1
 1261 739 l 1
 1180 748 1158 714 1139 664 c 0
 1046 430 978 188 923 8 c 1
 884 2 836 -10 797 -23 c 1
 736 181 675 390 575 650 c 0
 558 696 537 757 469 745 c 1
 459 800 l 1
EndSplineSet
Layer: 2
SplineSet
-15 800 m 1
 101 796 233 793 321 800 c 1
 331 736 l 1
 260 747 209 735 225 676 c 0
 259 551 333 370 376 225 c 0
 384 192 399 135 407 100 c 1
 467 301 559 592 574 655 c 1
 674 664 l 1
 581 430 512 188 457 8 c 1
 418 2 370 -10 331 -23 c 1
 270 181 201 390 101 650 c 0
 84 696 63 748 -5 736 c 1
 -15 800 l 1
459 800 m 1
 571 800 683 800 795 800 c 1
 805 736 l 1
 734 747 683 735 699 676 c 0
 733 551 799 370 842 225 c 0
 850 192 865 135 873 100 c 1
 933 301 1024 592 1039 655 c 0
 1060 751 985 750 937 749 c 1
 927 800 l 1
 1035 800 1143 800 1251 800 c 1
 1261 739 l 1
 1180 748 1158 714 1139 664 c 0
 1046 430 978 188 923 8 c 1
 884 2 836 -10 797 -23 c 1
 736 181 675 390 575 650 c 0
 558 696 537 757 469 745 c 1
 459 800 l 1
EndSplineSet
EndChar

StartChar: c
Encoding: 67 99 21
GlifName: c
Width: 587
VWidth: 79
Flags: HMW
AnchorPoint: "bottom" 300 -10 basechar 0
AnchorPoint: "top" 313 606 basechar 0
LayerCount: 3
Back
SplineSet
29 247 m 0
 28 431 187 613 410 613 c 0
 508 613 550 592 550 592 c 1
 552 554 552 446 545 401 c 1
 451 407 l 1
 436 470 411 509 372 543 c 1
 513.194335938 531.966796875 503.056640625 453.424804688 503 420 c 1
 451.370117188 484.075195312 405.811523438 527.974609375 336 527.501953125 c 0
 252.767578125 526.938476562 210.465820312 430.908203125 207.666992188 329 c 0
 203.474609375 176.399414062 286.030273438 93.984375 384 93.6162109375 c 0
 431.094726562 93.439453125 473.51953125 111.204101562 501 132 c 1
 546 70 l 1
 494 6 390 -38 276 -28 c 0
 127.5703125 -14.9794921875 29.875 85.9990234375 29 247 c 0
EndSplineSet
Fore
SplineSet
29 247 m 0
 28 431 187 613 410 613 c 0
 508 613 550 592 550 592 c 1
 552 554 552 446 545 401 c 1
 451 407 l 1
 436 470 411 509 372 543 c 1
 513.194335938 531.966796875 503.056640625 453.424804688 503 420 c 1
 451.370117188 484.075195312 405.811523438 527.974609375 336 527.501953125 c 0
 252.767578125 526.938476562 210.465820312 430.908203125 207.666992188 329 c 0
 203.474609375 176.399414062 286.030273438 93.984375 384 93.6162109375 c 0
 431.094726562 93.439453125 473.51953125 111.204101562 501 132 c 1
 546 70 l 1
 494 6 390 -38 276 -28 c 0
 127.5703125 -14.9794921875 29.875 85.9990234375 29 247 c 0
EndSplineSet
Layer: 2
SplineSet
45 230 m 0
 44 404 149 598 392 598 c 0
 490 598 543 569 543 569 c 1
 545 531 545 461 538 416 c 1
 478 412 l 1
 457 455 438 494 389 528 c 1
 470 465 l 1
 448 470 406 524 314 523 c 0
 235 522 161 466 159 315 c 4
 157 192 210 64 344 62 c 0
 409 61 468 86 505 121 c 1
 536 87 l 1
 484 23 410 -15 306 -15 c 0
 157 -15 46 69 45 230 c 0
EndSplineSet
EndChar

StartChar: w
Encoding: 87 119 22
GlifName: w
Width: 1106
VWidth: 79
Flags: HMW
LayerCount: 3
Back
SplineSet
396 596 m 1
 528.26953125 590.78125 625.73046875 592.904296875 758 596 c 1
 772 525 l 1
 703.307692308 519 664.442307692 508 678 443 c 1
 677.7265625 442.962890625 l 1
 697.197586583 375.418109226 726.201587232 293.353178791 743.678710938 228 c 5
 746.642851051 192.919030231 765.991210938 93 765.991210938 93 c 1
 788.6015625 157.891601562 845.529296875 309.32421875 893.733398438 458.791992188 c 1
 909.282226562 516.806640625 863.926757812 525.975585938 805 523 c 1
 793 596 l 1
 896.827148438 590.463867188 979.172851562 592.002929688 1083 596 c 1
 1093 522 l 1
 1023.02246094 519.735351562 1013.98242188 481.651367188 997.810546875 439.861328125 c 0
 931.489257812 268.48046875 859.8515625 85.037109375 827.661132812 7.6162109375 c 1
 672.399414062 -35.650390625 l 1
 628.375976562 74.5556640625 591.461914062 212.4921875 501.497070312 446.43359375 c 1
 482.303710938 510.984375 466.650390625 516.875976562 410 516 c 1
 396 596 l 1
6 596 m 1
 138.26953125 590.78125 235.73046875 592.904296875 368 596 c 1
 382 525 l 1
 320.615317487 519 285.884682513 508 298 443 c 1
 297.7265625 442.962890625 l 1
 317.788045713 369.133789062 347.671593165 279.43359375 365.678710938 208 c 1
 368.377157819 178.116210938 385.991210938 93 385.991210938 93 c 1
 413.203125 157.891601562 481.717773438 309.32421875 539.733398438 458.791992188 c 1
 643.810546875 439.861328125 l 0
 567.35546875 260.55078125 484.770507812 68.619140625 447.661132812 -12.3837890625 c 1
 282.399414062 -35.650390625 l 1
 238.375976562 74.5556640625 191.461914062 212.4921875 111.497070312 446.43359375 c 1
 92.3037109375 510.984375 76.650390625 516.875976562 20 516 c 1
 6 596 l 1
EndSplineSet
Fore
SplineSet
396 596 m 1
 528.26953125 590.78125 625.73046875 592.904296875 758 596 c 1
 772 525 l 1
 703.307692308 519 664.442307692 508 678 443 c 1
 677.7265625 442.962890625 l 1
 697.197586583 375.418109226 726.201587232 293.353178791 743.678710938 228 c 5
 746.642851051 192.919030231 765.991210938 93 765.991210938 93 c 1
 788.6015625 157.891601562 845.529296875 309.32421875 893.733398438 458.791992188 c 1
 909.282226562 516.806640625 863.926757812 525.975585938 805 523 c 1
 793 596 l 1
 896.827148438 590.463867188 979.172851562 592.002929688 1083 596 c 1
 1093 522 l 1
 1023.02246094 519.735351562 1013.98242188 481.651367188 997.810546875 439.861328125 c 0
 931.489257812 268.48046875 859.8515625 85.037109375 827.661132812 7.6162109375 c 1
 672.399414062 -35.650390625 l 1
 628.375976562 74.5556640625 591.461914062 212.4921875 501.497070312 446.43359375 c 1
 482.303710938 510.984375 466.650390625 516.875976562 410 516 c 1
 396 596 l 1
6 596 m 1
 138.26953125 590.78125 235.73046875 592.904296875 368 596 c 1
 382 525 l 1
 320.615317487 519 285.884682513 508 298 443 c 1
 297.7265625 442.962890625 l 1
 317.788045713 369.133789062 347.671593165 279.43359375 365.678710938 208 c 1
 368.377157819 178.116210938 385.991210938 93 385.991210938 93 c 1
 413.203125 157.891601562 481.717773438 309.32421875 539.733398438 458.791992188 c 1
 643.810546875 439.861328125 l 0
 567.35546875 260.55078125 484.770507812 68.619140625 447.661132812 -12.3837890625 c 1
 282.399414062 -35.650390625 l 1
 238.375976562 74.5556640625 191.461914062 212.4921875 111.497070312 446.43359375 c 1
 92.3037109375 510.984375 76.650390625 516.875976562 20 516 c 1
 6 596 l 1
EndSplineSet
Layer: 2
SplineSet
37 596 m 1
 157 587 233 589 339 596 c 1
 353 542 l 1
 297 546 240 538 264 460 c 1
 292 362 319 292 344 197 c 1
 355 162 369 74 369 74 c 1
 401 146 472 293 536 459 c 1
 617 456 l 1
 548 279 443 71 406 -9 c 9
 302 -26 l 1
 263 86 222 225 142 462 c 1
 123 527 92 533 45 532 c 1
 37 596 l 1
422 596 m 1
 533 592 610 594 704 596 c 1
 714 542 l 1
 653 546 633 525 648 460 c 1
 676 362 697 292 722 197 c 5
 733 162 746 77 746 77 c 1
 778 149 828 293 882 459 c 1
 905 517 861 536 793 533 c 1
 784 596 l 1
 881 590 950 590 1044 596 c 1
 1055 538 l 1
 995 536 987 508 967 456 c 0
 898 279 827 71 790 -9 c 9
 686 -26 l 1
 652 86 597 245 527 482 c 1
 518 517 487 538 440 532 c 1
 422 596 l 1
EndSplineSet
EndChar

StartChar: V
Encoding: 54 86 23
GlifName: V_
Width: 826
VWidth: 79
Flags: HMW
LayerCount: 3
Back
SplineSet
-5 799 m 1
 107 794 249 793 331 799 c 1
 341 735 l 1
 270 746 219 734 235 675 c 0
 269 556 340 384 383 245 c 0
 391 206 409 127 417 86 c 5
 487 277 606 591 621 654 c 0
 642 750 560 749 512 748 c 1
 502 799 l 1
 613 795 723 790 826 799 c 1
 836 738 l 1
 755 747 733 713 714 663 c 0
 621 429 529 188 474 8 c 1
 435 2 387 -10 348 -23 c 1
 287 187 211 401 111 669 c 0
 94 705 73 754 5 744 c 1
 -5 799 l 1
EndSplineSet
Fore
SplineSet
-5 799 m 1
 107 794 249 793 331 799 c 1
 341 735 l 1
 270 746 219 734 235 675 c 0
 269 556 340 384 383 245 c 0
 391 206 409 127 417 86 c 5
 487 277 606 591 621 654 c 0
 642 750 560 749 512 748 c 1
 502 799 l 1
 613 795 723 790 826 799 c 1
 836 738 l 1
 755 747 733 713 714 663 c 0
 621 429 529 188 474 8 c 1
 435 2 387 -10 348 -23 c 1
 287 187 211 401 111 669 c 0
 94 705 73 754 5 744 c 1
 -5 799 l 1
EndSplineSet
Layer: 2
SplineSet
-5 799 m 1
 107 794 249 793 331 799 c 1
 341 735 l 1
 270 746 219 734 235 675 c 0
 269 556 340 384 383 245 c 0
 391 206 409 127 417 86 c 5
 487 277 606 591 621 654 c 0
 642 750 560 749 512 748 c 1
 502 799 l 1
 613 795 723 790 826 799 c 1
 836 738 l 1
 755 747 733 713 714 663 c 0
 621 429 529 188 474 8 c 1
 435 2 387 -10 348 -23 c 1
 287 187 211 401 111 669 c 0
 94 705 73 754 5 744 c 1
 -5 799 l 1
EndSplineSet
EndChar

StartChar: C
Encoding: 35 67 24
GlifName: C_
Width: 788
VWidth: 79
Flags: HMW
LayerCount: 3
Back
SplineSet
57 289 m 0
 45 527 201 809 533 809 c 0
 674 809 753 773 753 773 c 1
 756 722 752 592 742 550 c 1
 643 553 l 1
 611 641 528 755 482 762 c 1
 496 783 718 679 665 584 c 1
 648 588 582 707 459 707 c 0
 321 707 233 599 230 403 c 0
 227 236 317 109 481 111 c 0
 569.999023438 112.084960938 622 158 673 206 c 1
 723 123 l 1
 652 35 541 -17 399 -17 c 0
 235 -17 67.423828125 82.259765625 57 289 c 0
EndSplineSet
Fore
SplineSet
57 289 m 0
 45 527 201 809 533 809 c 0
 674 809 753 773 753 773 c 1
 756 722 752 592 742 550 c 1
 643 553 l 1
 611 641 528 755 482 762 c 1
 496 783 718 679 665 584 c 1
 648 588 582 707 459 707 c 0
 321 707 233 599 230 403 c 0
 227 236 317 109 481 111 c 0
 569.999023438 112.084960938 622 158 673 206 c 1
 723 123 l 1
 652 35 541 -17 399 -17 c 0
 235 -17 67.423828125 82.259765625 57 289 c 0
EndSplineSet
Layer: 2
SplineSet
57 289 m 4
 45 527 201 809 533 809 c 0
 694 809 753 773 753 773 c 1
 756 722 752 592 742 550 c 1
 683 553 l 1
 651 641 568 755 522 762 c 1
 536 783 718 739 665 644 c 1
 648 648 581 737 458 737 c 0
 300 737 193 589 190 393 c 0
 187 226 277 69 461 71 c 0
 550.000360373 71.9673952214 632 118 683 166 c 1
 723 123 l 1
 652 35 541 -17 399 -17 c 0
 195 -17 67.423828125 82.259765625 57 289 c 4
EndSplineSet
EndChar

StartChar: q
Encoding: 81 113 25
GlifName: q
Width: 700
VWidth: 79
Flags: HMW
LayerCount: 3
Back
SplineSet
289 -158 m 1
 301 -159 312 -160 322 -160 c 0
 384.971014493 -160 397.565217391 -139 401 -90 c 1
 576 -77 l 1
 576 -81 576 -85 576 -88 c 0
 576 -164 624 -172 652 -172 c 0
 655 -172 658 -172 660 -172 c 1
 670 -240 l 1
 297 -240 l 1
 289 -158 l 1
15 224 m 0
 14 374.375335121 110.968226903 575.294676753 312 619 c 0
 418.719236466 641.262404794 537.70260223 620.439453125 583 590 c 1
 473 430 l 1
 473 430 423.05553456 562.546781638 311 529 c 0
 236.458984375 506.684179688 195.129781361 407.976370708 199 287 c 0
 201.654296875 204.03125 241.667118626 114.352093579 321 111 c 0
 392 108 418 156 439 210 c 1
 470 149 l 1
 438 45 341.893345894 -21.9084063432 229 -17 c 0
 114 -12 16.0706512843 63.0004543304 15 224 c 0
398 -220 m 1
 398 -18.5355862461 425 340.698922822 425 400 c 0
 425 444 426 531 426 531 c 1
 371 589 l 1
 583 590 l 1
 583 590 573.571566245 484.005260034 573 420 c 0
 571.791294643 284.646484375 568.428571429 81 577 -109 c 0
 398 -220 l 1
EndSplineSet
Fore
SplineSet
289 -158 m 1
 301 -159 312 -160 322 -160 c 0
 384.971014493 -160 397.565217391 -139 401 -90 c 1
 576 -77 l 1
 576 -81 576 -85 576 -88 c 0
 576 -164 624 -172 652 -172 c 0
 655 -172 658 -172 660 -172 c 1
 670 -240 l 1
 297 -240 l 1
 289 -158 l 1
15 224 m 0
 14 374.375335121 110.968226903 575.294676753 312 619 c 0
 418.719236466 641.262404794 537.70260223 620.439453125 583 590 c 1
 473 430 l 1
 473 430 423.05553456 562.546781638 311 529 c 0
 236.458984375 506.684179688 195.129781361 407.976370708 199 287 c 0
 201.654296875 204.03125 241.667118626 114.352093579 321 111 c 0
 392 108 418 156 439 210 c 1
 470 149 l 1
 438 45 341.893345894 -21.9084063432 229 -17 c 0
 114 -12 16.0706512843 63.0004543304 15 224 c 0
398 -220 m 1
 398 -18.5355862461 425 340.698922822 425 400 c 0
 425 444 426 531 426 531 c 1
 371 589 l 1
 583 590 l 1
 583 590 573.571566245 484.005260034 573 420 c 0
 571.791294643 284.646484375 568.428571429 81 577 -109 c 0
 398 -220 l 1
EndSplineSet
Layer: 2
SplineSet
56 225 m 0
 55 367 135.280273438 551.5703125 334 602 c 0
 409.931640625 621.26953125 534 604 574 589 c 1
 494 497 l 1
 494 497 425.563476562 560.984375 332 550 c 0
 248.401367188 540.185546875 181 434 179 284 c 0
 178 181 212.200332381 73.4828614212 302 73 c 0
 412.511367226 72.4057697846 459 187 480 241 c 1
 511 200 l 1
 479 126 433 -3 280 -13 c 0
 135.308721181 -22.456946328 57 64 56 225 c 0
394 598 m 1
 575 589 l 1
 553.027835253 255.755501334 562.680511928 186.049140101 572 -69 c 0
 574.803681259 -145.729160289 602.051825966 -170.000000016 659 -170 c 2
 667 -170 l 1
 677 -218 l 1
 341 -218 l 1
 333 -156 l 1
 345 -157 356 -158 366 -158 c 0
 421 -158 450 -137 453 -88 c 1
 454.499581691 -87.7605709905 l 1
 478.179410056 157.042252006 467.583570356 488.059226466 457 554 c 1
 394 598 l 1
EndSplineSet
EndChar

StartChar: f
Encoding: 70 102 26
GlifName: f
Width: 502
VWidth: 79
Flags: HMW
LayerCount: 3
Back
SplineSet
33 603 m 1
 174.5078125 598.043945312 260.553710938 597.5 392 603 c 1
 405 500 l 1
 229 481.526367188 l 1
 177 420.640625 l 5
 177.805664062 487.45703125 101.041015625 497.84765625 43 498 c 5
 33 603 l 1
12 91 m 1
 88 87 124 119 131 167 c 1
 290 178 l 1
 288 83 368 80 386 81 c 1
 396 0 l 1
 22 0 l 1
 12 91 l 1
402 908 m 0
 477.017578125 910.50390625 570 886 570 886 c 1
 570.15234375 830.548828125 548.223632812 678.377929688 527 638 c 1
 504.625976562 668.877929688 418.774414062 841.544921875 364.018554688 827.666992188 c 0
 318.517578125 813.630859375 298.140625 736.119140625 292.923828125 632 c 0
 282.465820312 439.653320312 286.852539062 226.578125 290 177 c 0
 293 133 276 79 358 79 c 1
 342 1 l 1
 99 0 l 1
 99 0 122 102 130 166 c 0
 140 301 138 479 133 669 c 1
 134.374023438 814.537109375 265.78515625 903.453125 402 908 c 0
EndSplineSet
Fore
SplineSet
33 603 m 1
 174.5078125 598.043945312 260.553710938 597.5 392 603 c 1
 405 500 l 1
 229 481.526367188 l 1
 177 420.640625 l 5
 177.805664062 487.45703125 101.041015625 497.84765625 43 498 c 5
 33 603 l 1
12 91 m 1
 88 87 124 119 131 167 c 1
 290 178 l 1
 288 83 368 80 386 81 c 1
 396 0 l 1
 22 0 l 1
 12 91 l 1
402 908 m 0
 477.017578125 910.50390625 570 886 570 886 c 1
 570.15234375 830.548828125 548.223632812 678.377929688 527 638 c 1
 504.625976562 668.877929688 418.774414062 841.544921875 364.018554688 827.666992188 c 0
 318.517578125 813.630859375 298.140625 736.119140625 292.923828125 632 c 0
 282.465820312 439.653320312 286.852539062 226.578125 290 177 c 0
 293 133 276 79 358 79 c 1
 342 1 l 1
 99 0 l 1
 99 0 122 102 130 166 c 0
 140 301 138 479 133 669 c 1
 134.374023438 814.537109375 265.78515625 903.453125 402 908 c 0
EndSplineSet
Layer: 2
SplineSet
29 61 m 1
 105 57 137 78 141 136 c 1
 141.247070312 136.033203125 l 1
 143.762695312 193.512695312 153.75 335.641601562 147 488 c 1
 150 574 l 1
 254.353515625 559 l 1
 245.447265625 418.577148438 242.17578125 309.595703125 258.0625 151.873046875 c 4
 265 83 285.166015625 52.86328125 367 54 c 5
 377 0 l 5
 36 0 l 1
 29 61 l 1
63 520 m 1
 53 588 l 1
 194.5078125 583.043945312 276.553710938 582.5 408 588 c 1
 421 522 l 1
 229 503.526367188 l 1
 150 439.640625 l 1
 150.805664062 506.45703125 141.041015625 529.84765625 63 520 c 1
139 573 m 1
 127.348632812 890.875976562 303.700195312 908.90234375 422 908 c 0
 487.017578125 907.50390625 550 886 550 886 c 1
 550.15234375 830.548828125 528.223632812 758.377929688 507 718 c 1
 466.314453125 780.97265625 405.509765625 857.119140625 332 849 c 0
 268.068359375 841.939453125 255.26171875 726.715820312 253.463867188 561 c 1
 139 573 l 1
EndSplineSet
EndChar

StartChar: y
Encoding: 89 121 30
GlifName: y
Width: 730
VWidth: 79
Flags: HMW
LayerCount: 3
Back
SplineSet
-43 596 m 5
 82.68359375 591 226.316794656 593 352 596 c 5
 363 512 l 5
 300.9453125 507.463867188 261.751953125 499.146484375 274 450 c 5
 299 355.798828125 328.56640625 301.190429688 349 222 c 5
 353.004882812 191.149414062 359 126 359 126 c 5
 391.194335938 191.221679688 456.510742188 354.092773438 483 451 c 4
 500.181640625 499.634765625 468.524188702 513 409 513 c 5
 400 596 l 5
 509.933083417 590 606.067382812 592 716 596 c 5
 729 508 l 5
 661.142578125 506 651.243164062 477.037109375 630 426 c 4
 555.212890625 261.068359375 491.409179688 90.5458984375 455 16 c 5
 412.52734375 13 262.794921875 -4 213 -8 c 5
 176.193359375 98.28125 137.5 203.1015625 62 428 c 5
 43 493 12 505 -35 504 c 5
 -43 596 l 5
62 -143 m 5
 255 -167 299 -43 343 52 c 5
 470 50 l 5
 443.458007812 -9 388.14453125 -134.44140625 356 -188 c 4
 294.465820312 -293.428710938 180.686523438 -328.142578125 82 -323 c 5
 44 -283 51 -168 62 -143 c 5
EndSplineSet
Fore
SplineSet
-43 596 m 1
 82.68359375 591 226.316794656 593 352 596 c 1
 363 569 l 1
 300.9453125 564.463867188 261.751953125 556.146484375 274 507 c 1
 299 389.248535156 328.56640625 320.98803711 349 222 c 1
 353.004882812 165.440592447 359 46 359 46 c 1
 396.386970767 138.715126203 472.238281251 370.242650241 503 508 c 0
 524.82532728 556.634765625 484.61180727 570 409 570 c 1
 400 596 l 1
 509.933083417 590 606.067382812 592 716 596 c 1
 729 565 l 1
 640.579723011 563 627.680486505 534.037109375 600 483 c 0
 525.212890625 295.138838605 461.409179688 100.909596513 425 16 c 1
 387.79254907 13 256.621997676 -4 213 -8 c 1
 176.193359375 112.907110092 137.5 232.152236239 62 488 c 1
 43 553 12 565 -35 564 c 1
 -43 596 l 1
62 -143 m 1
 255 -162.076923077 299 -63.5128205128 343 12 c 1
 440 50 l 1
 425.099232456 5.87394957983 394.046052632 -87.9435727416 376 -128 c 0
 309.974274349 -280.285915799 187.889919309 -330.428168403 82 -323 c 1
 44 -283 51 -168 62 -143 c 1
EndSplineSet
Layer: 2
SplineSet
-43 596 m 1
 82.68359375 591 226.316794656 593 352 596 c 1
 363 569 l 1
 300.9453125 564.463867188 261.751953125 556.146484375 274 507 c 1
 299 389.248535156 328.56640625 320.98803711 349 222 c 1
 353.004882812 165.440592447 359 46 359 46 c 1
 396.386970767 138.715126203 472.238281251 370.242650241 503 508 c 0
 524.82532728 556.634765625 484.61180727 570 409 570 c 1
 400 596 l 1
 509.933083417 590 606.067382812 592 716 596 c 1
 729 565 l 1
 640.579723011 563 627.680486505 534.037109375 600 483 c 0
 525.212890625 295.138838605 461.409179688 100.909596513 425 16 c 1
 387.79254907 13 256.621997676 -4 213 -8 c 1
 176.193359375 112.907110092 137.5 232.152236239 62 488 c 1
 43 553 12 565 -35 564 c 1
 -43 596 l 1
62 -143 m 1
 255 -162.076923077 299 -63.5128205128 343 12 c 1
 440 50 l 1
 425.099232456 5.87394957983 394.046052632 -87.9435727416 376 -128 c 0
 309.974274349 -280.285915799 187.889919309 -330.428168403 82 -323 c 1
 44 -283 51 -168 62 -143 c 1
EndSplineSet
EndChar

StartChar: l
Encoding: 76 108 31
Width: 460
VWidth: 79
Flags: HMW
LayerCount: 3
Back
SplineSet
39 829 m 1
 122 827 374 850 374 850 c 1
 357.796877925 711.949399922 349.154941401 496.606680875 346.168404457 345.000004825 c 0
 343.216628548 195.157916076 337.638808481 75.2021560267 442 81 c 1
 452 0 l 1
 125 0 l 1
 48 0 l 1
 38 91 l 1
 186.639436072 83.1768717857 161.194378822 209.960184234 162.775599781 349.999991921 c 0
 163.965218118 455.357767695 162.035444434 573.653111513 159 689 c 0
 154 733 124 736 46 736 c 1
 39 829 l 1
EndSplineSet
Fore
SplineSet
39 829 m 1
 122 827 374 850 374 850 c 1
 357.796877925 711.949399922 349.154941401 496.606680875 346.168404457 345.000004825 c 0
 343.216628548 195.157916076 337.638808481 75.2021560267 442 81 c 1
 452 0 l 1
 125 0 l 1
 48 0 l 1
 38 91 l 1
 186.639436072 83.1768717857 161.194378822 209.960184234 162.775599781 349.999991921 c 0
 163.965218118 455.357767695 162.035444434 573.653111513 159 689 c 0
 154 733 124 736 46 736 c 1
 39 829 l 1
EndSplineSet
Layer: 2
SplineSet
28 61 m 5
 106.303710938 56.87890625 138.954101562 90.62109375 145 142 c 4
 169 346 164 483 150 687 c 4
 146.779296875 733.931640625 102 767 30 766 c 5
 25 830 l 5
 108 828 289 850 289 850 c 1
 247 672 260.985351562 230.2734375 268 172 c 0
 278.414226102 85.4842557894 315.296263572 48.2942368651 364 51 c 1
 374 0 l 1
 38 0 l 5
 28 61 l 5
EndSplineSet
EndChar

StartChar: u
Encoding: 85 117 34
Width: 764
VWidth: 79
Flags: HMW
AnchorPoint: "top" 350 620.651 basechar 0
LayerCount: 3
Back
SplineSet
-7 596 m 1
 103.9296875 591 201.596679688 599 286 608 c 1
 271.833749828 542.450983162 261.514744919 452.574268628 260.125872009 365.000004563 c 0
 257.801551712 218.441858112 280.73046875 115 371 115 c 0
 470.046875 115 530 211 530 211 c 1
 555 144 l 1
 509.684570312 76 407.955078125 -14 309 -14 c 0
 158.863528819 -14 107.151564926 52.6805551369 105.149240789 207.999995977 c 0
 104.175622871 283.523128229 110.004695536 368.101830666 113 439 c 0
 116 510 29 514 -1 512 c 1
 -7 596 l 1
383 598 m 1
 464.794921875 593 607.1328125 600 671 610 c 1
 661 468 l 1
 504 435 l 1
 509 522 429 520 391 518 c 1
 383 598 l 1
503 120 m 1
 505 161 505 203 505 247 c 0
 505 367.602579701 503.263479032 460.634790324 516 588 c 1
 670 600 l 1
 659 463.579101562 653 334.158203125 653 247 c 0
 653 112 662.692382812 86 737 83 c 1
 750 0 l 1
 499 0 l 1
 499 0 513.384765625 102 524 128 c 1
 503 120 l 1
EndSplineSet
Fore
SplineSet
-7 596 m 1
 103.9296875 591 201.596679688 599 286 608 c 1
 271.833749828 542.450983162 261.514744919 452.574268628 260.125872009 365.000004563 c 0
 257.801551712 218.441858112 280.73046875 115 371 115 c 0
 470.046875 115 530 211 530 211 c 1
 555 144 l 1
 509.684570312 76 407.955078125 -14 309 -14 c 0
 158.863528819 -14 107.151564926 52.6805551369 105.149240789 207.999995977 c 0
 104.175622871 283.523128229 110.004695536 368.101830666 113 439 c 0
 116 510 29 514 -1 512 c 1
 -7 596 l 1
383 598 m 1
 464.794921875 593 607.1328125 600 671 610 c 1
 661 468 l 1
 504 435 l 1
 509 522 429 520 391 518 c 1
 383 598 l 1
503 120 m 1
 505 161 505 203 505 247 c 0
 505 367.602579701 503.263479032 460.634790324 516 588 c 1
 670 600 l 1
 659 463.579101562 653 334.158203125 653 247 c 0
 653 112 662.692382812 86 737 83 c 1
 750 0 l 1
 499 0 l 1
 499 0 513.384765625 102 524 128 c 1
 503 120 l 1
EndSplineSet
Layer: 2
SplineSet
23 596 m 1
 115 591 196 599 266 608 c 1
 249 521 242 401 242 295 c 0
 242 251 244 211 248 181 c 0
 257 118 302 85 361 85 c 0
 462 85 530 181 530 181 c 1
 555 144 l 1
 506 76 396 -14 289 -14 c 0
 213 -14 155 23 141 117 c 0
 138 139 136 180 136 225 c 0
 136 296 140 383 143 459 c 0
 146 530 59 534 29 532 c 1
 23 596 l 1
403 598 m 1
 476 593 595 600 652 610 c 1
 642 468 l 1
 527 455 l 1
 532 542 449 540 411 538 c 1
 403 598 l 1
523 120 m 1
 525 161 525 203 525 247 c 0
 525 271 525 294 525 319 c 0
 525 405 526 488 536 588 c 1
 651 600 l 1
 640 456 634 312 634 220 c 0
 634 115 626 59 738 56 c 1
 747 0 l 1
 529 0 l 1
 529 0 536 102 542 128 c 1
 542 137 544 141 541 141 c 0
 534 141 523 120 523 120 c 1
EndSplineSet
EndChar

StartChar: k
Encoding: 75 107 35
Width: 828
VWidth: 79
Flags: HMW
LayerCount: 3
Back
SplineSet
40 91 m 1
 116 87 152 119 159 167 c 1
 316 178 l 1
 314 83 394 80 412 81 c 1
 422 0 l 1
 50 0 l 1
 40 91 l 1
41 829 m 1
 124 827 344 850 344 850 c 1
 319 637 312 240 316 177 c 0
 319 133 302 79 384 79 c 1
 368 1 l 1
 127 0 l 1
 127 0 150 102 158 166 c 0
 168 301 166 509 161 699 c 0
 156 743 126 746 48 746 c 1
 41 829 l 1
269 267 m 1
 314 389 l 1
 325 386 331 385 358 385 c 1
 384 401 421 424 464 477 c 0
 479.901367188 496.599609375 484 524 406 521 c 1
 397 594 l 1
 474 588 618 590 715 594 c 1
 718 516 l 1
 688 514 659 490 628 460 c 0
 557 391 470 293 439 266 c 1
 408 259 321 267 269 267 c 1
353 351 m 1
 382 344 429 377 463 387 c 1
 463 387 606 80 766 91 c 1
 778 20 l 1
 714 -1 626 -13 572 -10 c 1
 480.83984375 -3.140625 389.147460938 276.52734375 353 351 c 1
EndSplineSet
Fore
SplineSet
40 91 m 1
 116 87 152 119 159 167 c 1
 316 178 l 1
 314 83 394 80 412 81 c 1
 422 0 l 1
 50 0 l 1
 40 91 l 1
41 829 m 1
 124 827 344 850 344 850 c 1
 319 637 312 240 316 177 c 0
 319 133 302 79 384 79 c 1
 368 1 l 1
 127 0 l 1
 127 0 150 102 158 166 c 0
 168 301 166 509 161 699 c 0
 156 743 126 746 48 746 c 1
 41 829 l 1
269 267 m 1
 314 389 l 1
 325 386 331 385 358 385 c 1
 384 401 421 424 464 477 c 0
 479.901367188 496.599609375 484 524 406 521 c 1
 397 594 l 1
 474 588 618 590 715 594 c 1
 718 516 l 1
 688 514 659 490 628 460 c 0
 557 391 470 293 439 266 c 1
 408 259 321 267 269 267 c 1
353 351 m 1
 382 344 429 377 463 387 c 1
 463 387 606 80 766 91 c 1
 778 20 l 1
 714 -1 626 -13 572 -10 c 1
 480.83984375 -3.140625 389.147460938 276.52734375 353 351 c 1
EndSplineSet
Layer: 2
SplineSet
42 61 m 1
 118 57 153 89 160 137 c 1
 268 146 l 1
 266 51 330 50 348 51 c 1
 358 0 l 1
 52 0 l 1
 42 61 l 1
43 829 m 1
 126 827 292 850 292 850 c 1
 267 637 264 208 268 145 c 0
 271 101 238 49 320 49 c 1
 304 1 l 1
 129 0 l 1
 129 0 151 72 159 136 c 0
 169 271 168 529 163 719 c 0
 158 763 128 766 50 766 c 1
 43 829 l 1
249 307 m 1
 264 369 l 1
 295 367 311 359 338 359 c 1
 358 369 421 434 464 497 c 0
 478 518 484 544 406 541 c 1
 387 594 l 1
 464 588 538 590 635 594 c 1
 648 546 l 1
 618 544 589 520 558 490 c 0
 487 421 420 333 389 306 c 1
 358 299 301 307 249 307 c 1
313 341 m 1
 342 334 359 347 393 357 c 1
 393 357 536 50 696 61 c 5
 708 10 l 1
 644 -11 606 -13 552 -10 c 1
 460.83984375 -3.140625 349.147460938 266.52734375 313 341 c 1
EndSplineSet
EndChar

StartChar: j
Encoding: 74 106 36
Width: 396
VWidth: 79
Flags: HMW
LayerCount: 3
Back
SplineSet
9 596 m 1
 92 594 299 607 299 607 c 1
 289 552 288 87 279 0 c 1
 119 0 l 1
 134 200 135 388 128 450 c 0
 123 495 87 525 15 525 c 1
 9 596 l 1
81.7001953125 786.494140625 m 0
 81.7001953125 840.291015625 125.900390625 876.155273438 179.200195312 876.155273438 c 0
 244.200195312 876.155273438 276.700195312 826.201171875 276.700195312 772.404296875 c 0
 276.700195312 718.607421875 232.5 682.743164062 179.200195312 682.743164062 c 0
 125.900390625 682.743164062 81.7001953125 732.697265625 81.7001953125 786.494140625 c 0
-105 -249 m 1
 -82 -158 l 1
 14 -182 106 -140 120 8 c 1
 279 3 l 1
 271 -223 162 -282 35 -283 c 0
 -20 -284 -91 -257 -105 -249 c 1
EndSplineSet
Fore
SplineSet
9 596 m 1
 92 594 299 607 299 607 c 1
 289 552 288 87 279 0 c 1
 119 0 l 1
 134 200 135 388 128 450 c 0
 123 495 87 525 15 525 c 1
 9 596 l 1
81.7001953125 786.494140625 m 0
 81.7001953125 840.291015625 125.900390625 876.155273438 179.200195312 876.155273438 c 0
 244.200195312 876.155273438 276.700195312 826.201171875 276.700195312 772.404296875 c 0
 276.700195312 718.607421875 232.5 682.743164062 179.200195312 682.743164062 c 0
 125.900390625 682.743164062 81.7001953125 732.697265625 81.7001953125 786.494140625 c 0
-105 -249 m 1
 -82 -158 l 1
 14 -182 106 -140 120 8 c 1
 279 3 l 1
 271 -223 162 -282 35 -283 c 0
 -20 -284 -91 -257 -105 -249 c 1
EndSplineSet
Layer: 2
SplineSet
-51 -240 m 1
 -28 -189 l 5
 118 -213 150 -81 164 67 c 5
 261 -8 l 1
 263 -184 196 -263 69 -264 c 0
 14 -265 -37 -248 -51 -240 c 1
31 584 m 1
 114 582 271 595 271 595 c 1
 261 540 260 67 261 -20 c 1
 164 60 l 5
 179 260 157 386 150 448 c 0
 145 493 109 523 37 523 c 1
 31 584 l 1
100 782 m 0
 100 824 134 852 175 852 c 0
 225 852 250 813 250 771 c 0
 250 729 216 701 175 701 c 0
 134 701 100 740 100 782 c 0
100 782 m 0
 100 824 134 852 175 852 c 0
 225 852 250 813 250 771 c 0
 250 729 216 701 175 701 c 0
 134 701 100 740 100 782 c 0
EndSplineSet
EndChar

StartChar: comma
Encoding: 12 44 37
Width: 202
VWidth: 79
Flags: HMW
LayerCount: 3
Back
Refer: 84 39 S 1 0 0 1 -9 -704 2
Fore
Refer: 84 39 S 1 0 0 1 -9 -704 2
Layer: 2
SplineSet
11.5849609375 -145.053710938 m 1
 20.6640625 -132.9765625 87.2392578125 -78.91796875 61.90625 14.1474609375 c 9
 139.66796875 42.4033203125 l 25
 146.012695312 2.4716796875 203.37890625 69.6455078125 196.771484375 32.826171875 c 0
 185.129882812 -30.0673828125 87.3388671875 -148.610351562 54.0146484375 -168.109375 c 1
 11.5849609375 -145.053710938 l 1
27.7900390625 44.1494140625 m 0
 33.4384765625 99.388671875 88.248046875 129.25 133.591796875 122.614257812 c 4
 188.484375 114.58203125 203.58203125 79.365234375 196.771484375 32.826171875 c 0
 189.9609375 -13.7099609375 157.451171875 -44.2998046875 111.727539062 -48.578125 c 1
 90.6279296875 -34.5205078125 21.7958984375 -13.4775390625 27.7900390625 44.1494140625 c 0
EndSplineSet
EndChar

StartChar: acute
Encoding: 115 180 43
Width: 0
VWidth: 0
Flags: HMW
AnchorPoint: "top" 0 1000 mark 0
LayerCount: 3
Back
SplineSet
-197 1140 m 9
 -167 1036 l 17
 -59 1051 138 1128 201 1174 c 9
 121 1318 l 17
 58 1252 -105 1162 -197 1140 c 9
EndSplineSet
Fore
SplineSet
73 1120 m 9
 83 1066 l 17
 191 1081 368 1158 431 1204 c 9
 371 1298 l 21
 308 1232 165 1142 73 1120 c 9
EndSplineSet
Layer: 2
SplineSet
73 1120 m 9
 83 1066 l 17
 191 1081 368 1158 431 1204 c 9
 371 1298 l 21
 308 1232 165 1142 73 1120 c 9
EndSplineSet
EndChar

StartChar: x
Encoding: 88 120 50
Width: 698
VWidth: 79
Flags: HMW
LayerCount: 3
Back
SplineSet
11 84 m 1
 66.8671875 82.9638671875 104.680664062 109.439453125 137 142 c 0
 165.634765625 174.455078125 250.294117647 265.95805545 290 317 c 1
 334 334 l 1
 374.782226562 381.666992188 420.092689453 435.798341392 450 477 c 0
 464.452148438 496.909930889 455 518.322453425 401 519 c 1
 390 599 l 1
 476.785207235 593 589.724934896 593 667 598 c 1
 675 524 l 1
 602.35539363 519.481012658 564.839137572 457.305117602 520 405 c 0
 465.484164646 341.406957543 404 273.368164062 372 233 c 5
 393 270 l 1
 356.25203252 235.234177215 300.3984375 183.876953125 271 142 c 1
 247.615234375 111.861328125 257.565429688 77.4169921875 319 80 c 1
 331 -2 l 1
 21 -2 l 1
 11 84 l 1
13 598 m 1
 124.971046985 592 248.853006712 592 337 597 c 1
 351 526 l 1
 294.283203125 524.896484375 273.571289062 502.243164062 301 462 c 1
 321.35546875 430.784179688 368.541992188 370.134765625 400 330 c 1
 430 322 l 1
 464.216796875 280.361328125 534.01171875 190.23046875 594.462890625 130 c 0
 628.140625 92.7392578125 658.724609375 81.8876953125 688 81 c 1
 700 -2 l 1
 377 -2 l 1
 368 83 l 1
 414.666992188 80.9638671875 449.208007812 90.8896484375 414 136 c 0
 389.98488363 166.769430296 333.374023438 223.75390625 305 255 c 1
 280 254 l 1
 234.4609375 312.12890625 161.608342338 403.347981264 115 466 c 0
 86.5406463636 504.255725645 55.6959107545 514.705882353 21 514 c 1
 13 598 l 1
EndSplineSet
Fore
SplineSet
11 84 m 1
 66.8671875 82.9638671875 104.680664062 109.439453125 137 142 c 0
 165.634765625 174.455078125 250.294117647 265.95805545 290 317 c 1
 334 334 l 1
 374.782226562 381.666992188 420.092689453 435.798341392 450 477 c 0
 464.452148438 496.909930889 455 518.322453425 401 519 c 1
 390 599 l 1
 476.785207235 593 589.724934896 593 667 598 c 1
 675 524 l 1
 602.35539363 519.481012658 564.839137572 457.305117602 520 405 c 0
 465.484164646 341.406957543 404 273.368164062 372 233 c 5
 393 270 l 1
 356.25203252 235.234177215 300.3984375 183.876953125 271 142 c 1
 247.615234375 111.861328125 257.565429688 77.4169921875 319 80 c 1
 331 -2 l 1
 21 -2 l 1
 11 84 l 1
13 598 m 1
 124.971046985 592 248.853006712 592 337 597 c 1
 351 526 l 1
 294.283203125 524.896484375 273.571289062 502.243164062 301 462 c 1
 321.35546875 430.784179688 368.541992188 370.134765625 400 330 c 1
 430 322 l 1
 464.216796875 280.361328125 534.01171875 190.23046875 594.462890625 130 c 0
 628.140625 92.7392578125 658.724609375 81.8876953125 688 81 c 1
 700 -2 l 1
 377 -2 l 1
 368 83 l 1
 414.666992188 80.9638671875 449.208007812 90.8896484375 414 136 c 0
 389.98488363 166.769430296 333.374023438 223.75390625 305 255 c 1
 280 254 l 1
 234.4609375 312.12890625 161.608342338 403.347981264 115 466 c 0
 86.5406463636 504.255725645 55.6959107545 514.705882353 21 514 c 1
 13 598 l 1
EndSplineSet
Layer: 2
SplineSet
30 54 m 1
 87 53 113 78 136 110 c 0
 166 152 253 263 290 326 c 1
 349 326 l 1
 385 376 446 437 470 476 c 0
 498 523 475 537 421 538 c 1
 410 598 l 1
 483 592 578 592 643 598 c 1
 651 544 l 1
 577 544 579 520 541 465 c 0
 502 408 436 333 406 294 c 1
 353 284 l 1
 313 240 262 175 230 122 c 1
 211 87 203 47 269 50 c 1
 281 -2 l 1
 42 -2 l 1
 30 54 l 1
35 598 m 1
 129 590 233 591 307 597 c 1
 321 542 l 1
 245 541 229 529 254 484 c 1
 276 449 327 381 361 336 c 1
 400 318 l 1
 451 248 565 61 645 58 c 1
 657 -2 l 1
 367 -2 l 1
 358 53 l 1
 394 49 447 69 406 136 c 0
 379 179 332 243 299 286 c 1
 265 286 l 1
 228 337 175 411 139 472 c 1
 108 527 90 541 43 540 c 1
 35 598 l 1
EndSplineSet
EndChar

StartChar: dieresis
Encoding: 103 168 51
Width: 0
VWidth: 0
Flags: HMW
AnchorPoint: "top" 0 1000 mark 0
LayerCount: 3
Back
SplineSet
-187 1140 m 9
 -167 1036 l 21
 -59 1051 138 1138 201 1184 c 9
 111 1298 l 21
 64 1242 -95 1162 -187 1140 c 9
EndSplineSet
Fore
SplineSet
73 1140 m 13
 83 1066 l 21
 191 1081 368 1158 431 1204 c 13
 371 1298 l 21
 328 1242 165 1162 73 1140 c 13
EndSplineSet
Layer: 2
SplineSet
73 1140 m 13
 83 1066 l 21
 191 1081 368 1158 431 1204 c 13
 371 1298 l 21
 328 1242 165 1162 73 1140 c 13
EndSplineSet
EndChar

StartChar: z
Encoding: 90 122 52
Width: 612
VWidth: 79
Flags: HMW
LayerCount: 3
Back
SplineSet
26 0 m 1
 207.620117188 0 279.603515625 0 562 0 c 1
 575 62.29296875 576 133.646484375 574 205 c 1
 570.712243241 205 493.440912482 196 477 195 c 1
 475.608455882 152.525773196 469.347426471 113.237113402 461 92 c 1
 419.261083396 82.7858886719 352.481468844 78.1189453125 300 81 c 0
 285.182509937 82.2002238927 254.255719866 101.939956203 295 160 c 1
 312.583854167 188.848632812 494.015104167 436.288085938 568 517 c 1
 559 598 l 1
 478.860351562 593 217.861328125 588 50 598 c 1
 45 532.666992188 43 449.833007812 48 388 c 1
 139 394 l 1
 137 415.649414062 147 479.515625 158 499 c 1
 202.968074324 506.392578125 286.188904139 505.963867188 356 502 c 1
 295.139105205 418.98046875 130.974113244 187.63671875 32 92 c 1
 26 0 l 1
EndSplineSet
Fore
SplineSet
26 0 m 1
 207.620117188 0 279.603515625 0 562 0 c 1
 575 62.29296875 576 133.646484375 574 205 c 1
 570.712243241 205 493.440912482 196 477 195 c 1
 475.608455882 152.525773196 469.347426471 113.237113402 461 92 c 1
 419.261083396 82.7858886719 352.481468844 78.1189453125 300 81 c 0
 285.182509937 82.2002238927 254.255719866 101.939956203 295 160 c 1
 312.583854167 188.848632812 494.015104167 436.288085938 568 517 c 1
 559 598 l 1
 478.860351562 593 217.861328125 588 50 598 c 1
 45 532.666992188 43 449.833007812 48 388 c 1
 139 394 l 1
 137 415.649414062 147 479.515625 158 499 c 1
 202.968074324 506.392578125 286.188904139 505.963867188 356 502 c 1
 295.139105205 418.98046875 130.974113244 187.63671875 32 92 c 1
 26 0 l 1
EndSplineSet
Layer: 2
SplineSet
40 0 m 5
 204 0 269 0 524 0 c 1
 537 55 538 118 536 181 c 1
 534 181 487 175 477 175 c 1
 477 125 469 78 454 78 c 1
 385 68 317 67 309 67 c 0
 199 68 211 89 251 150 c 1
 270 182 501 491 546 546 c 5
 550 598 l 5
 476 593 235 588 80 598 c 1
 75 542 73 471 78 418 c 1
 139 424 l 1
 137 444 147 503 158 521 c 1
 206 529 337 534 393 525 c 1
 352 454 152 170 46 62 c 1
 40 0 l 5
EndSplineSet
EndChar

StartChar: E
Encoding: 37 69 54
Width: 679
VWidth: 79
Flags: HMW
LayerCount: 3
Back
SplineSet
20 91 m 1
 91 79 113 119 120 167 c 1
 294 175 l 1
 295 157 310 117 356 113 c 4
 446.108846001 105.164448174 490 119 527 126 c 1
 472 69 l 1
 505 108 540 185 547 244 c 1
 649 252 l 1
 649 252 656 189 656 110 c 0
 656 56 651 0 651 0 c 1
 460 0 219 0 28 0 c 1
 20 91 l 1
31 810 m 1
 107 804 303 803 386 803 c 0
 472 803 548 806 645 811 c 1
 645 811 650 744 650 720 c 0
 650 601 642 558 642 558 c 1
 540 566 l 1
 533 625 508 700 465 739 c 1
 560 690 l 1
 479 698 408 700 369 701 c 0
 319.016428455 702.28163004 302 671 299 641 c 0
 280 439 292 238 294 185 c 0
 296 139 304 84 363 84 c 1
 347 26 l 1
 92 60 l 1
 92 60 114.051757812 101.776367188 120 166 c 0
 131.947265625 295 134.416015625 469 130 643 c 1
 123 691 113 723 37 719 c 1
 31 810 l 1
194 350 m 1
 194 456 l 1
 394 457 l 1
 538 474 l 1
 538 353 l 1
 413 360 319 352 194 350 c 1
EndSplineSet
Fore
SplineSet
20 91 m 1
 91 79 113 119 120 167 c 1
 294 175 l 1
 295 157 310 117 356 113 c 4
 446.108846001 105.164448174 490 119 527 126 c 1
 472 69 l 1
 505 108 540 185 547 244 c 1
 649 252 l 1
 649 252 656 189 656 110 c 0
 656 56 651 0 651 0 c 1
 460 0 219 0 28 0 c 1
 20 91 l 1
31 810 m 1
 107 804 303 803 386 803 c 0
 472 803 548 806 645 811 c 1
 645 811 650 744 650 720 c 0
 650 601 642 558 642 558 c 1
 540 566 l 1
 533 625 508 700 465 739 c 1
 560 690 l 1
 479 698 408 700 369 701 c 0
 319.016428455 702.28163004 302 671 299 641 c 0
 280 439 292 238 294 185 c 0
 296 139 304 84 363 84 c 1
 347 26 l 1
 92 60 l 1
 92 60 114.051757812 101.776367188 120 166 c 0
 131.947265625 295 134.416015625 469 130 643 c 1
 123 691 113 723 37 719 c 1
 31 810 l 1
194 350 m 1
 194 456 l 1
 394 457 l 1
 538 474 l 1
 538 353 l 1
 413 360 319 352 194 350 c 1
EndSplineSet
Layer: 2
SplineSet
40 61 m 5
 111 49 133 89 140 137 c 5
 264 135 l 1
 265 117 270 77 306 73 c 0
 396 64 500 79 537 86 c 1
 482 29 l 1
 515 68 550 145 557 204 c 1
 629 212 l 1
 629 212 638 139 638 80 c 24
 638 56 631 0 631 0 c 1
 440 0 239 0 48 0 c 5
 40 61 l 5
51 800 m 5
 127 794 273 795 356 795 c 0
 442 795 551 796 648 801 c 1
 648 801 651 744 651 720 c 24
 651 661 642 588 642 588 c 1
 570 596 l 1
 563 655 538 732 495 771 c 1
 590 722 l 1
 509 730 438 733 339 733 c 0
 289 733 277 703 274 673 c 0
 255 471 262 198 264 145 c 0
 266 99 274 44 333 44 c 1
 317 26 l 1
 112 30 l 5
 112 30 132 72 140 136 c 4
 150 265 155 489 150 663 c 5
 143 711 133 743 57 739 c 5
 51 800 l 5
194 367 m 1
 194 443 l 1
 394 444 l 1
 538 461 l 1
 538 370 l 1
 413 377 319 369 194 367 c 1
EndSplineSet
EndChar

StartChar: F
Encoding: 38 70 55
Width: 691
VWidth: 79
Flags: HMW
LayerCount: 3
Back
SplineSet
2 91 m 1
 85 87 107 119 115 167 c 1
 287 186 l 1
 285 91 397 90 414 91 c 1
 424 0 l 1
 32 0 l 1
 2 91 l 1
29 808 m 1
 105 802 273 802 356 802 c 0
 442 802 551 804 678 809 c 1
 678 809 681 744 681 720 c 24
 681 661 672 578 672 578 c 1
 560 586 l 1
 553 645 528 740 485 779 c 1
 610 702 l 1
 373 709 l 2
 325.012327013 710.41735743 299 682 296 650 c 4
 275.411132812 430.381835938 283 242 287 185 c 0
 290 141 307 89 386 89 c 1
 370 1 l 1
 87 0 l 1
 87 0 106 102 114 166 c 0
 124 300 125 477 120 658 c 1
 116 706 80 724 37 720 c 1
 29 808 l 1
204 347 m 1
 204 453 l 1
 424 454 l 1
 568 471 l 1
 568 340 l 1
 443 347 329 349 204 347 c 1
EndSplineSet
Fore
SplineSet
2 91 m 1
 85 87 107 119 115 167 c 1
 287 186 l 1
 285 91 397 90 414 91 c 1
 424 0 l 1
 32 0 l 1
 2 91 l 1
29 808 m 1
 105 802 273 802 356 802 c 0
 442 802 551 804 678 809 c 1
 678 809 681 744 681 720 c 24
 681 661 672 578 672 578 c 1
 560 586 l 1
 553 645 528 740 485 779 c 1
 610 702 l 1
 373 709 l 2
 325.012327013 710.41735743 299 682 296 650 c 4
 275.411132812 430.381835938 283 242 287 185 c 0
 290 141 307 89 386 89 c 1
 370 1 l 1
 87 0 l 1
 87 0 106 102 114 166 c 0
 124 300 125 477 120 658 c 1
 116 706 80 724 37 720 c 1
 29 808 l 1
204 347 m 1
 204 453 l 1
 424 454 l 1
 568 471 l 1
 568 340 l 1
 443 347 329 349 204 347 c 1
EndSplineSet
Layer: 2
SplineSet
32 61 m 5
 115 57 137 89 145 137 c 5
 267 146 l 1
 265 51 377 50 394 51 c 1
 404 0 l 1
 42 0 l 5
 32 61 l 5
51 800 m 5
 127 794 253 794 336 794 c 0
 422 794 551 796 678 801 c 1
 678 801 681 744 681 720 c 24
 681 661 672 588 672 588 c 1
 600 596 l 1
 593 655 568 732 525 771 c 1
 610 721 l 1
 353 728 l 2
 295 729 279 705 276 663 c 0
 260 443 263 202 267 145 c 0
 270 101 287 49 366 49 c 1
 350 1 l 1
 117 0 l 5
 117 0 136 72 144 136 c 4
 154 270 155 482 150 663 c 5
 143 711 133 743 57 739 c 5
 51 800 l 5
184 377 m 5
 184 443 l 5
 424 444 l 1
 568 461 l 1
 568 370 l 1
 443 377 309 379 184 377 c 5
EndSplineSet
EndChar

StartChar: P
Encoding: 48 80 56
Width: 650
VWidth: 79
Flags: HMW
LayerCount: 3
Back
SplineSet
17 797 m 1
 205 785 276 802 426 802 c 0
 581 802 639 717 640 607 c 0
 642 438 521 303 363 301 c 4
 312 300 244 314 244 314 c 5
 243 214 243 197 253 123 c 0
 260 65 305 61 358 61 c 1
 380 0 l 1
 312 -1 107 0 33 0 c 1
 23 61 l 1
 102 51 133 77 135 127 c 0
 144 342 147 467 139 627 c 0
 136 685 119 741 27 734 c 1
 17 797 l 1
246 409 m 5
 280 383 324 366 376 367 c 4
 489 368 526 464 527 571 c 0
 528 684 455 744 375 746 c 0
 329 747 275 738 252 729 c 1
 244 652 247 507 246 409 c 5
EndSplineSet
Fore
SplineSet
17 797 m 1
 205 785 276 802 426 802 c 0
 581 802 639 717 640 607 c 0
 642 438 521 303 363 301 c 4
 312 300 244 314 244 314 c 5
 243 214 243 197 253 123 c 0
 260 65 305 61 358 61 c 1
 380 0 l 1
 312 -1 107 0 33 0 c 1
 23 61 l 1
 102 51 133 77 135 127 c 0
 144 342 147 467 139 627 c 0
 136 685 119 741 27 734 c 1
 17 797 l 1
246 409 m 5
 280 383 324 366 376 367 c 4
 489 368 526 464 527 571 c 0
 528 684 455 744 375 746 c 0
 329 747 275 738 252 729 c 1
 244 652 247 507 246 409 c 5
EndSplineSet
Layer: 2
SplineSet
17 797 m 1
 205 785 276 802 426 802 c 0
 581 802 639 717 640 607 c 0
 642 438 521 303 363 301 c 4
 312 300 244 314 244 314 c 5
 243 214 243 197 253 123 c 0
 260 65 305 61 358 61 c 1
 380 0 l 1
 312 -1 107 0 33 0 c 1
 23 61 l 1
 102 51 133 77 135 127 c 0
 144 342 147 467 139 627 c 0
 136 685 119 741 27 734 c 1
 17 797 l 1
246 409 m 5
 280 383 324 366 376 367 c 4
 489 368 526 464 527 571 c 0
 528 684 455 744 375 746 c 0
 329 747 275 738 252 729 c 1
 244 652 247 507 246 409 c 5
EndSplineSet
EndChar

StartChar: S
Encoding: 51 83 57
Width: 657
VWidth: 153
Flags: HMW
LayerCount: 3
Back
SplineSet
46.5478515625 24.642578125 m 1
 41.3779296875 69.8798828125 47.83984375 177.157226562 59.47265625 254.70703125 c 1
 182.599609375 243.075195312 l 1
 186.477539062 182.327148438 207.157226562 112.532226562 238.177734375 67.294921875 c 1
 185.184570312 81.5126953125 143.825195312 151.307617188 134.77734375 206.884765625 c 1
 176.137695312 162.940429688 189.078125 90.197265625 300.217773438 87.974609375 c 0
 364.842773438 86.6826171875 407.590820312 120.962890625 413.6171875 178.450195312 c 0
 422.376332498 261.997553243 342.181317035 293.821574754 259.000002351 339.065365806 c 0
 182.613969326 380.613082749 103.7096235 433.477541566 88.8603515625 548.10546875 c 0
 71.3884179464 682.97885128 173.552734375 815.65234375 376.474609375 811.775390625 c 0
 497.969726562 809.190429688 581.030273438 778.169921875 581.030273438 778.169921875 c 1
 586.200195312 729.0546875 583.615234375 598.512695312 577.15234375 554.567382812 c 1
 457.90234375 564.907226562 l 1
 443.684570312 690.280273438 368.379882812 766.537109375 368.379882812 766.537109375 c 2
 368.379882812 766.537109375 502.694335938 685.15625 494.092773438 586.879882812 c 1
 475.997070312 607.559570312 461.780273438 715.790039062 353.209960938 717.08203125 c 0
 280.835202482 717.943294521 250.307664183 632.998845169 278.584960938 579.125 c 0
 308.391962742 522.336764049 370.772268279 489.328164032 433.2670004 454 c 0
 513.684084575 408.540361334 594.290637137 359.239971379 605.927734375 250.490234375 c 0
 621.541246126 104.580540411 514.772460938 -16.7177734375 302.802734375 -16.7177734375 c 0
 156.75 -16.7177734375 46.5478515625 24.642578125 46.5478515625 24.642578125 c 1
EndSplineSet
Fore
SplineSet
46.5478515625 24.642578125 m 1
 41.3779296875 69.8798828125 47.83984375 177.157226562 59.47265625 254.70703125 c 1
 182.599609375 243.075195312 l 1
 186.477539062 182.327148438 207.157226562 112.532226562 238.177734375 67.294921875 c 1
 185.184570312 81.5126953125 143.825195312 151.307617188 134.77734375 206.884765625 c 1
 176.137695312 162.940429688 189.078125 90.197265625 300.217773438 87.974609375 c 0
 364.842773438 86.6826171875 407.590820312 120.962890625 413.6171875 178.450195312 c 0
 422.376332498 261.997553243 342.181317035 293.821574754 259.000002351 339.065365806 c 0
 182.613969326 380.613082749 103.7096235 433.477541566 88.8603515625 548.10546875 c 0
 71.3884179464 682.97885128 173.552734375 815.65234375 376.474609375 811.775390625 c 0
 497.969726562 809.190429688 581.030273438 778.169921875 581.030273438 778.169921875 c 1
 586.200195312 729.0546875 583.615234375 598.512695312 577.15234375 554.567382812 c 1
 457.90234375 564.907226562 l 1
 443.684570312 690.280273438 368.379882812 766.537109375 368.379882812 766.537109375 c 2
 368.379882812 766.537109375 502.694335938 685.15625 494.092773438 586.879882812 c 1
 475.997070312 607.559570312 461.780273438 715.790039062 353.209960938 717.08203125 c 0
 280.835202482 717.943294521 250.307664183 632.998845169 278.584960938 579.125 c 0
 308.391962742 522.336764049 370.772268279 489.328164032 433.2670004 454 c 0
 513.684084575 408.540361334 594.290637137 359.239971379 605.927734375 250.490234375 c 0
 621.541246126 104.580540411 514.772460938 -16.7177734375 302.802734375 -16.7177734375 c 0
 156.75 -16.7177734375 46.5478515625 24.642578125 46.5478515625 24.642578125 c 1
EndSplineSet
Layer: 2
SplineSet
64 24 m 5
 59 69 61 149 73 226 c 5
 169 215 l 5
 173 155 187 98 225 54 c 5
 166 68 139 124 128 179 c 5
 165 136 197.40625 63.0537109375 297 54 c 4
 418 43 467.051757812 95.4609375 476 155 c 4
 502 328 140 345 105 554 c 4
 85 680 175 814 376 810 c 4
 496 808 572 781 572 781 c 5
 578 733 575 642 568 598 c 5
 476 609 l 5
 474 657 456 733 429 795 c 6
 499 630 l 5
 480 653 455 754 341 755 c 4
 260 756 222 692 231 623 c 4
 253 452 572 459 592 233 c 4
 605 83 514 -16 294 -17 c 4
 161.000976562 -17.6044921875 64 24 64 24 c 5
EndSplineSet
EndChar

StartChar: U
Encoding: 53 85 58
Width: 767
VWidth: 79
Flags: HMW
LayerCount: 3
Back
SplineSet
-9 800 m 1
 57 794 75 791 147 792 c 0
 188 792 278 793 339 801 c 1
 339 801 344 755 347 736 c 1
 246 750 220 679 215 612 c 0
 206 484 204 298 208 255 c 0
 218 138 282.870117188 53.642578125 417 65 c 0
 511.917881182 73.0371532239 578.082839218 146.32902485 587 267 c 4
 596 388.791992188 587.44440464 515.368963952 591 641 c 1
 591 642 l 1
 590 733 534 738 464 728 c 1
 461 744 457 790 455 799 c 1
 521 793 569 790 641 791 c 0
 682 791 707 792 768 800 c 1
 768 800 773 754 776 735 c 1
 726 742 682 716 676 663 c 1
 670 499 674.932065851 346.626536095 666 240 c 4
 650 49 500 -14 371 -14 c 0
 256 -14 92 30 92 235 c 0
 92 359 103 556 99 640 c 0
 95 711 83 740 0 729 c 1
 -3 745 -7 791 -9 800 c 1
EndSplineSet
Fore
SplineSet
-9 800 m 1
 57 794 75 791 147 792 c 0
 188 792 278 793 339 801 c 1
 339 801 344 755 347 736 c 1
 246 750 220 679 215 612 c 0
 206 484 204 298 208 255 c 0
 218 138 282.870117188 53.642578125 417 65 c 0
 511.917881182 73.0371532239 578.082839218 146.32902485 587 267 c 4
 596 388.791992188 587.44440464 515.368963952 591 641 c 1
 591 642 l 1
 590 733 534 738 464 728 c 1
 461 744 457 790 455 799 c 1
 521 793 569 790 641 791 c 0
 682 791 707 792 768 800 c 1
 768 800 773 754 776 735 c 1
 726 742 682 716 676 663 c 1
 670 499 674.932065851 346.626536095 666 240 c 4
 650 49 500 -14 371 -14 c 0
 256 -14 92 30 92 235 c 0
 92 359 103 556 99 640 c 0
 95 711 83 740 0 729 c 1
 -3 745 -7 791 -9 800 c 1
EndSplineSet
Layer: 2
SplineSet
-9 800 m 1
 57 794 75 791 147 792 c 0
 188 792 278 793 339 801 c 1
 339 801 344 755 347 736 c 1
 246 750 220 679 215 612 c 0
 206 484 204 298 208 255 c 0
 218 138 282.870117188 53.642578125 417 65 c 0
 511.917881182 73.0371532239 578.082839218 146.32902485 587 267 c 4
 596 388.791992188 587.44440464 515.368963952 591 641 c 1
 591 642 l 1
 590 733 534 738 464 728 c 1
 461 744 457 790 455 799 c 1
 521 793 569 790 641 791 c 0
 682 791 707 792 768 800 c 1
 768 800 773 754 776 735 c 1
 726 742 682 716 676 663 c 1
 670 499 674.932065851 346.626536095 666 240 c 4
 650 49 500 -14 371 -14 c 0
 256 -14 92 30 92 235 c 0
 92 359 103 556 99 640 c 0
 95 711 83 740 0 729 c 1
 -3 745 -7 791 -9 800 c 1
EndSplineSet
EndChar

StartChar: I
Encoding: 41 73 59
Width: 460
VWidth: 79
Flags: HMW
LayerCount: 3
Back
SplineSet
23 87 m 1
 89 83 145 105 149 163 c 1
 149.453125 163.014648438 l 1
 149.61328125 295.588867188 152.359375 606.201171875 149 651 c 4
 144.579101562 709.951171875 108 726 36 726 c 5
 30 811 l 5
 223 795 406 809 406 809 c 5
 412.416015625 722 l 5
 341.6796875 719.928710938 311.001953125 693.081054688 310.368164062 643 c 5
 307.107421875 488.112304688 305.03125 278.509765625 302.251953125 162.916015625 c 1
 306.864257812 83.6591796875 383.57421875 89.056640625 410 90 c 1
 420 0 l 1
 30 0 l 1
 23 87 l 1
EndSplineSet
Fore
SplineSet
23 87 m 1
 89 83 145 105 149 163 c 1
 149.453125 163.014648438 l 1
 149.61328125 295.588867188 152.359375 606.201171875 149 651 c 4
 144.579101562 709.951171875 108 726 36 726 c 5
 30 811 l 5
 223 795 406 809 406 809 c 5
 412.416015625 722 l 5
 341.6796875 719.928710938 311.001953125 693.081054688 310.368164062 643 c 5
 307.107421875 488.112304688 305.03125 278.509765625 302.251953125 162.916015625 c 1
 306.864257812 83.6591796875 383.57421875 89.056640625 410 90 c 1
 420 0 l 1
 30 0 l 1
 23 87 l 1
EndSplineSet
Layer: 2
SplineSet
20 69 m 1
 93 54 145 63 150 146 c 0
 158 257 160 460 155 643 c 0
 153.37658823 702.416870788 116 739 28 729 c 1
 25 745 21 791 19 800 c 1
 85 794 133 791 205 792 c 0
 246 792 336 793 397 801 c 1
 397 801 402 755 405 736 c 1
 354 743 286.9921875 723.918945312 282 669 c 4
 270 537 265 354 273 139 c 0
 275.634791164 68.1899874628 337 62 389 69 c 1
 400 0 l 1
 28 -1 l 1
 20 69 l 1
EndSplineSet
EndChar

StartChar: O
Encoding: 47 79 60
Width: 832
VWidth: 153
Flags: HMW
LayerCount: 3
Back
SplineSet
56.208984375 332.41796875 m 0
 57.5078125 129.8046875 146.217773438 -11.5693359375 367.404296875 -15.4658203125 c 0
 657.037109375 -20.568359375 775.6171875 205.134765625 782.111328125 433.724609375 c 0
 789.904296875 702.575195312 639.2421875 810.375976562 459.227539062 811.674804688 c 0
 221.55078125 813.389648438 53.611328125 618.154296875 56.208984375 332.41796875 c 0
234.408203125 438.931640625 m 0
 240.901367188 577.90234375 307.0078125 677.916015625 379.482421875 689.081054688 c 0
 494.139648438 706.744140625 603.912109375 593.87890625 610.40625 415.942382812 c 0
 616.568359375 247.131835938 539.1875 121.247070312 453.124023438 102.024414062 c 0
 345.033203125 77.880859375 224.58203125 228.655273438 234.408203125 438.931640625 c 0
EndSplineSet
Fore
SplineSet
56.208984375 332.41796875 m 0
 57.5078125 129.8046875 146.217773438 -11.5693359375 367.404296875 -15.4658203125 c 0
 657.037109375 -20.568359375 775.6171875 205.134765625 782.111328125 433.724609375 c 0
 789.904296875 702.575195312 639.2421875 810.375976562 459.227539062 811.674804688 c 0
 221.55078125 813.389648438 53.611328125 618.154296875 56.208984375 332.41796875 c 0
234.408203125 438.931640625 m 0
 240.901367188 577.90234375 307.0078125 677.916015625 379.482421875 689.081054688 c 0
 494.139648438 706.744140625 603.912109375 593.87890625 610.40625 415.942382812 c 0
 616.568359375 247.131835938 539.1875 121.247070312 453.124023438 102.024414062 c 0
 345.033203125 77.880859375 224.58203125 228.655273438 234.408203125 438.931640625 c 0
EndSplineSet
Layer: 2
SplineSet
31.0029296875 302.139648438 m 0
 18.8486328125 592.892578125 197.879537172 795.476723072 433.72265625 804.151367188 c 0
 620.637695312 811.026367188 761.21875 709.872070312 762.262695312 450.750976562 c 0
 763.397460938 217.6484375 656.276602785 -9.76113462238 369.286132812 -15.2470703125 c 0
 160.286132812 -19.2421875 39.7724609375 108.328125 31.0029296875 302.139648438 c 0
156.572265625 392.72265625 m 4
 157.981335073 190.638889192 257.008789062 36.220703125 427.352539062 57.8310546875 c 4
 565.061523438 75.3017578125 638.526367188 200.548828125 637.521484375 412.618164062 c 0
 636.597056058 607.708473936 515.778258235 754.041193827 362.448242188 731.96484375 c 4
 272.952142366 719.079256954 154.912109375 630.81640625 156.572265625 392.72265625 c 4
EndSplineSet
EndChar

StartChar: T
Encoding: 52 84 68
Width: 660
VWidth: 79
Flags: HMW
LayerCount: 3
Back
SplineSet
-6 594 m 1
 -1 641 6 743 7 800 c 1
 115 794 202 791 320 792 c 0
 389 792 565 793 667 801 c 1
 665.043945312 773.125 655 592.036132812 655 588 c 1
 583 596 l 1
 576 655 551 732 508 771 c 1
 593 702 l 1
 504 733 405 721 320 728 c 1
 229 727 120 723 83 724 c 5
 137 761 l 5
 99 725 81 641 77 605 c 5
 -6 594 l 1
145 61 m 1
 221 57 244 89 251 137 c 1
 376 146 l 1
 374 51 460 50 478 51 c 1
 488 0 l 1
 155 0 l 1
 145 61 l 1
196 759 m 1
 259 757 400 780 400 780 c 1
 375 588 372 202 376 145 c 0
 379 101 368 49 450 49 c 1
 434 1 l 1
 222 0 l 1
 222 0 245 72 250 136 c 0
 260 266 264 516 256 699 c 0
 254 743 233 746 203 746 c 1
 196 759 l 1
EndSplineSet
Fore
SplineSet
-6 594 m 1
 -1 641 6 743 7 800 c 1
 115 794 202 791 320 792 c 0
 389 792 565 793 667 801 c 1
 665.043945312 773.125 655 592.036132812 655 588 c 1
 583 596 l 1
 576 655 551 732 508 771 c 1
 593 702 l 1
 504 733 405 721 320 728 c 1
 229 727 120 723 83 724 c 5
 137 761 l 5
 99 725 81 641 77 605 c 5
 -6 594 l 1
145 61 m 1
 221 57 244 89 251 137 c 1
 376 146 l 1
 374 51 460 50 478 51 c 1
 488 0 l 1
 155 0 l 1
 145 61 l 1
196 759 m 1
 259 757 400 780 400 780 c 1
 375 588 372 202 376 145 c 0
 379 101 368 49 450 49 c 1
 434 1 l 1
 222 0 l 1
 222 0 245 72 250 136 c 0
 260 266 264 516 256 699 c 0
 254 743 233 746 203 746 c 1
 196 759 l 1
EndSplineSet
Layer: 2
SplineSet
-6 594 m 1
 -1 641 6 743 7 800 c 1
 115 794 202 791 320 792 c 0
 389 792 565 793 667 801 c 1
 665.043945312 773.125 655 592.036132812 655 588 c 1
 583 596 l 1
 576 655 551 732 508 771 c 1
 593 702 l 1
 504 733 405 721 320 728 c 1
 229 727 120 723 83 724 c 5
 137 761 l 5
 99 725 81 641 77 605 c 5
 -6 594 l 1
145 61 m 1
 221 57 244 89 251 137 c 1
 376 146 l 1
 374 51 460 50 478 51 c 1
 488 0 l 1
 155 0 l 1
 145 61 l 1
196 759 m 1
 259 757 400 780 400 780 c 1
 375 588 372 202 376 145 c 0
 379 101 368 49 450 49 c 1
 434 1 l 1
 222 0 l 1
 222 0 245 72 250 136 c 0
 260 266 264 516 256 699 c 0
 254 743 233 746 203 746 c 1
 196 759 l 1
EndSplineSet
EndChar

StartChar: R
Encoding: 50 82 69
Width: 788
VWidth: 79
Flags: HMW
LayerCount: 3
Back
SplineSet
17 797 m 1
 205 785 276 802 426 802 c 0
 581 802 639 717 640 607 c 0
 642 438 521 343 363 341 c 0
 312 340 244 334 244 334 c 1
 243 234 243 197 253 123 c 0
 260 65 305 61 358 61 c 1
 380 0 l 1
 312 -1 107 0 33 0 c 1
 23 61 l 1
 102 51 133 77 135 127 c 0
 144 342 147 467 139 627 c 0
 136 685 119 741 27 734 c 1
 17 797 l 1
246 429 m 1
 273 413 324.350585938 400.890625 376 407 c 0
 469 418 516 464 517 571 c 0
 518 684 455 744 375 746 c 0
 329 747 275 738 252 729 c 1
 244 652 247 527 246 429 c 1
383 351 m 1
 412 344 429 387 463 397 c 1
 463 397 596 72 766 63 c 5
 778 0 l 1
 602 0 l 1
 510.83984375 6.859375 419.147460938 276.52734375 383 351 c 1
EndSplineSet
Fore
SplineSet
17 797 m 1
 205 785 276 802 426 802 c 0
 581 802 639 717 640 607 c 0
 642 438 521 343 363 341 c 0
 312 340 244 334 244 334 c 1
 243 234 243 197 253 123 c 0
 260 65 305 61 358 61 c 1
 380 0 l 1
 312 -1 107 0 33 0 c 1
 23 61 l 1
 102 51 133 77 135 127 c 0
 144 342 147 467 139 627 c 0
 136 685 119 741 27 734 c 1
 17 797 l 1
246 429 m 1
 273 413 324.350585938 400.890625 376 407 c 0
 469 418 516 464 517 571 c 0
 518 684 455 744 375 746 c 0
 329 747 275 738 252 729 c 1
 244 652 247 527 246 429 c 1
383 351 m 1
 412 344 429 387 463 397 c 1
 463 397 596 72 766 63 c 5
 778 0 l 1
 602 0 l 1
 510.83984375 6.859375 419.147460938 276.52734375 383 351 c 1
EndSplineSet
Layer: 2
SplineSet
17 797 m 1
 205 785 276 802 426 802 c 0
 581 802 639 717 640 607 c 0
 642 438 521 343 363 341 c 0
 312 340 244 334 244 334 c 1
 243 234 243 197 253 123 c 0
 260 65 305 61 358 61 c 1
 380 0 l 1
 312 -1 107 0 33 0 c 1
 23 61 l 1
 102 51 133 77 135 127 c 0
 144 342 147 467 139 627 c 0
 136 685 119 741 27 734 c 1
 17 797 l 1
246 429 m 1
 273 413 324.350585938 400.890625 376 407 c 0
 469 418 516 464 517 571 c 0
 518 684 455 744 375 746 c 0
 329 747 275 738 252 729 c 1
 244 652 247 527 246 429 c 1
383 351 m 1
 412 344 429 387 463 397 c 1
 463 397 596 72 766 63 c 5
 778 0 l 1
 602 0 l 1
 510.83984375 6.859375 419.147460938 276.52734375 383 351 c 1
EndSplineSet
EndChar

StartChar: Q
Encoding: 49 81 70
Width: 832
VWidth: 153
Flags: HMW
LayerCount: 3
Back
SplineSet
234 12 m 1
 305 51 l 1
 361 -50 567 -86 680 -88 c 0
 803 -90 892 -56 892 -56 c 1
 907.965820312 -90 l 1
 898 -214 l 1
 835 -234 768 -240 655 -239 c 0
 411 -235 263 -58 234 12 c 1
EndSplineSet
Refer: 60 79 N 1 0 0 1 0 0 2
Fore
SplineSet
234 12 m 1
 305 51 l 1
 361 -50 567 -86 680 -88 c 0
 803 -90 892 -56 892 -56 c 1
 907.965820312 -90 l 1
 898 -214 l 1
 835 -234 768 -240 655 -239 c 0
 411 -235 263 -58 234 12 c 1
EndSplineSet
Refer: 60 79 N 1 0 0 1 0 0 2
Layer: 2
SplineSet
234 12 m 1
 305 21 l 1
 361 -80 567 -126 680 -128 c 0
 803 -130 892 -96 892 -96 c 1
 907.965820312 -130 l 1
 898 -214 l 1
 835 -234 768 -240 655 -239 c 0
 411 -235 263 -58 234 12 c 1
EndSplineSet
Refer: 60 79 N 1 0 0 1 0 0 2
EndChar

StartChar: L
Encoding: 44 76 71
Width: 717
VWidth: 79
Flags: HMW
LayerCount: 3
Back
SplineSet
30 87 m 1
 96 83 144 105 148 163 c 1
 148.453125 163.014648438 l 1
 148.61328125 295.588867188 153.37890625 601.3984375 148 646 c 0
 142.579101562 690.951171875 107 721 35 721 c 1
 29 806 l 1
 222 790 405 804 405 804 c 1
 411.416015625 717 l 1
 340.6796875 714.928710938 310.001953125 688.081054688 309.368164062 638 c 5
 301.107421875 483.112304688 301.03125 296.509765625 298.251953125 180.916015625 c 5
 302.864257812 111.659179688 363.57421875 107.056640625 390 108 c 1
 400 0 l 1
 37 0 l 1
 30 87 l 1
52 69 m 1
 145 46 148 89 155 137 c 1
 264 163 l 1
 265 145 272 116 308 112 c 0
 398 103 524 119 561 126 c 1
 506 48 l 1
 529 87 565 156 572 215 c 1
 677 223 l 1
 677 223 681 163 681 91 c 0
 681 67 674 1 674 1 c 1
 478 1 256 0 60 0 c 1
 52 69 l 1
EndSplineSet
Fore
SplineSet
30 87 m 1
 96 83 144 105 148 163 c 1
 148.453125 163.014648438 l 1
 148.61328125 295.588867188 153.37890625 601.3984375 148 646 c 0
 142.579101562 690.951171875 107 721 35 721 c 1
 29 806 l 1
 222 790 405 804 405 804 c 1
 411.416015625 717 l 1
 340.6796875 714.928710938 310.001953125 688.081054688 309.368164062 638 c 5
 301.107421875 483.112304688 301.03125 296.509765625 298.251953125 180.916015625 c 5
 302.864257812 111.659179688 363.57421875 107.056640625 390 108 c 1
 400 0 l 1
 37 0 l 1
 30 87 l 1
52 69 m 1
 145 46 148 89 155 137 c 1
 264 163 l 1
 265 145 272 116 308 112 c 0
 398 103 524 119 561 126 c 1
 506 48 l 1
 529 87 565 156 572 215 c 1
 677 223 l 1
 677 223 681 163 681 91 c 0
 681 67 674 1 674 1 c 1
 478 1 256 0 60 0 c 1
 52 69 l 1
EndSplineSet
Layer: 2
SplineSet
60 0 m 5
 52 69 l 5
 145 46 148 89 155 137 c 1
 269 135 l 1
 270 117 275 77 311 73 c 0
 401 64 505 79 542 86 c 1
 487 29 l 1
 520 68 555 145 562 204 c 1
 634 212 l 1
 634 212 643 139 643 80 c 24
 643 56 636 0 636 0 c 1
 440 0 256 0 60 0 c 5
61 800 m 1
 137 794 193 792 276 792 c 0
 314 792 351 794 396 796 c 1
 392 732 l 1
 375 732 357 733 339 733 c 0
 289 733 287 693 285 673 c 0
 263 471 267 198 269 145 c 0
 271 99 279 44 338 44 c 1
 322 26 l 1
 127 30 l 1
 127 30 147 72 155 136 c 0
 165 265 165 489 160 663 c 1
 153 711 143 743 67 739 c 1
 61 800 l 1
EndSplineSet
EndChar

StartChar: G
Encoding: 39 71 72
Width: 827
VWidth: 79
Flags: HMW
LayerCount: 3
Back
SplineSet
18 271 m 0
 -4 509 172 812 503 812 c 0
 624 812 703 777 703 777 c 1
 706 726 712 626 709 584 c 1
 593 587 l 1
 561 675 518 738 472 745 c 1
 486 766 658 737 605 642 c 1
 588 646 539.124023438 727.655273438 417 713 c 0
 292 698 179 588 176 412 c 0
 173.034179688 237.999023438 269.0234375 101.202148438 456 97 c 0
 545 95 601 127 646 179 c 1
 715 96 l 1
 642 11 518.858042881 -21.4918534598 412 -27 c 0
 218 -37 37.0537109375 64.8759765625 18 271 c 0
479 390 m 1
 592 382 686 385 794 390 c 1
 804 300 l 1
 787.15234375 300.935546875 721 294 717.45703125 216.010742188 c 0
 715.62109375 175.586914062 717.400390625 161.206054688 715 96 c 1
 561 76 l 5
 568.953125 108.3828125 579.501953125 145.282226562 578.641601562 216.15625 c 0
 578.147460938 256.852539062 553.821289062 292.622070312 485 289 c 1
 479 390 l 1
EndSplineSet
Fore
SplineSet
18 271 m 0
 -4 509 172 812 503 812 c 0
 624 812 703 777 703 777 c 1
 706 726 712 626 709 584 c 1
 593 587 l 1
 561 675 518 738 472 745 c 1
 486 766 658 737 605 642 c 1
 588 646 539.124023438 727.655273438 417 713 c 0
 292 698 179 588 176 412 c 0
 173.034179688 237.999023438 269.0234375 101.202148438 456 97 c 0
 545 95 601 127 646 179 c 1
 715 96 l 1
 642 11 518.858042881 -21.4918534598 412 -27 c 0
 218 -37 37.0537109375 64.8759765625 18 271 c 0
479 390 m 1
 592 382 686 385 794 390 c 1
 804 300 l 1
 787.15234375 300.935546875 721 294 717.45703125 216.010742188 c 0
 715.62109375 175.586914062 717.400390625 161.206054688 715 96 c 1
 561 76 l 5
 568.953125 108.3828125 579.501953125 145.282226562 578.641601562 216.15625 c 0
 578.147460938 256.852539062 553.821289062 292.622070312 485 289 c 1
 479 390 l 1
EndSplineSet
Layer: 2
SplineSet
37 299 m 0
 35 537 172 802 503 802 c 0
 624 802 703 767 703 767 c 1
 706 716 712 616 709 574 c 1
 643 577 l 1
 611 665 548 748 502 755 c 1
 516 776 698 747 645 652 c 1
 628 656 551 734 428 734 c 0
 278 734 174 602 171 406 c 0
 168 232 239 50 426 47 c 0
 535 45 581 97 626 149 c 1
 695 116 l 1
 622 1 499 -27 392 -27 c 0
 178 -27 38 92 37 299 c 0
555 46 m 5
 579.953125 108.3828125 582.502339993 195.282167658 581.641625227 266.156616799 c 0
 578.362127455 306.724019986 553.82131021 332.622174208 485 329 c 1
 479 390 l 1
 592 382 666 385 774 390 c 1
 784 330 l 1
 767.152585212 330.935967488 705.627378333 338.00418095 699.45710901 261.011195447 c 1
 700.775446194 208.198485326 699.40071391 151.205709564 695 116 c 1
 555 46 l 5
EndSplineSet
EndChar

StartChar: D
Encoding: 36 68 73
Width: 799
VWidth: 79
Flags: HMW
LayerCount: 3
Back
SplineSet
-3 798 m 1
 189 786 356 803 446 803 c 0
 614 803 778 711 776 463 c 0
 772 142 597 4 320 0 c 0
 252 -1 87 0 13 0 c 1
 3 101 l 1
 82 91 111.671389777 117.070846653 115 167 c 0
 124 302 123 458 119 578 c 0
 117.065156802 636.045295949 99 692 7 685 c 1
 -3 798 l 1
282 679 m 1
 272 523 266.426757812 398.734375 280 225 c 0
 285 161 295.006835938 93.421875 368 95 c 0
 488.987211265 97.6157647121 586 196 592 372 c 0
 600 596 511.019503964 704.624102475 393 708 c 4
 329.021484375 709.830078125 282 679 282 679 c 1
EndSplineSet
Fore
SplineSet
-3 798 m 1
 189 786 356 803 446 803 c 0
 614 803 778 711 776 463 c 0
 772 142 597 4 320 0 c 0
 252 -1 87 0 13 0 c 1
 3 101 l 1
 82 91 111.671389777 117.070846653 115 167 c 0
 124 302 123 458 119 578 c 0
 117.065156802 636.045295949 99 692 7 685 c 1
 -3 798 l 1
282 679 m 1
 272 523 266.426757812 398.734375 280 225 c 0
 285 161 295.006835938 93.421875 368 95 c 0
 488.987211265 97.6157647121 586 196 592 372 c 0
 600 596 511.019503964 704.624102475 393 708 c 4
 329.021484375 709.830078125 282 679 282 679 c 1
EndSplineSet
Layer: 2
SplineSet
17 798 m 1
 209 786 356 803 446 803 c 0
 614 803 768 711 766 463 c 0
 762 142 597 4 320 0 c 0
 252 -1 107 0 33 0 c 1
 23 61 l 1
 102 51 133 77 135 127 c 0
 144 342 147 468 139 628 c 0
 136 686 119 742 27 735 c 1
 17 798 l 1
252 719 m 1
 236 483 240 338 253 142 c 1
 260 80 305 74 358 75 c 0
 549 77 646 196 652 372 c 0
 660 596 541 734 373 738 c 0
 319 739 279 729 252 719 c 1
EndSplineSet
EndChar

StartChar: J
Encoding: 42 74 74
Width: 514
VWidth: 79
Flags: HMW
LayerCount: 3
Back
SplineSet
-32 -133 m 5
 5 -52 l 1
 115 -127 244 -98 248 24 c 4
 251.968466307 145.038222373 240 400 237 583 c 0
 236 674 150 689 120 679 c 1
 117 695 113 791 111 800 c 1
 177 794 265 791 337 792 c 0
 378 792 448 793 509 801 c 1
 509 801 514 705 517 686 c 1
 466 693 407 670 404 615 c 0
 393 365 394 261 400 39 c 0
 404 -94 374.525807642 -214.38517089 208 -227 c 4
 99.3395816791 -235.23135241 -8.47896952194 -168.380554545 -32 -133 c 5
EndSplineSet
Fore
SplineSet
-32 -133 m 5
 5 -52 l 1
 115 -127 244 -98 248 24 c 4
 251.968466307 145.038222373 240 400 237 583 c 0
 236 674 150 689 120 679 c 1
 117 695 113 791 111 800 c 1
 177 794 265 791 337 792 c 0
 378 792 448 793 509 801 c 1
 509 801 514 705 517 686 c 1
 466 693 407 670 404 615 c 0
 393 365 394 261 400 39 c 0
 404 -94 374.525807642 -214.38517089 208 -227 c 4
 99.3395816791 -235.23135241 -8.47896952194 -168.380554545 -32 -133 c 5
EndSplineSet
Layer: 2
SplineSet
58 -193 m 1
 85 -142 l 1
 265 -187 254 -18 258 84 c 0
 263 205 250 460 247 643 c 0
 246 734 160 739 130 729 c 1
 127 745 123 791 121 800 c 1
 187 794 225 791 297 792 c 0
 338 792 418 793 479 801 c 1
 479 801 484 755 487 736 c 1
 436 743 377 720 374 665 c 0
 363 415 364 261 370 39 c 0
 374 -94 335 -226 168 -227 c 0
 113 -227 72 -201 58 -193 c 1
EndSplineSet
EndChar

StartChar: K
Encoding: 43 75 75
Width: 752
VWidth: 79
Flags: HMW
LayerCount: 3
Back
SplineSet
22 64 m 1
 98 60 133 89 140 137 c 1
 248 146 l 1
 246 51 310 53 328 54 c 1
 338 0 l 1
 32 0 l 1
 22 64 l 1
23 798 m 1
 106 796 272 810 272 810 c 1
 247 597 244 208 248 145 c 0
 251 101 218 52 300 52 c 1
 284 1 l 1
 109 0 l 1
 109 0 131 72 139 136 c 0
 149 271 148 489 143 679 c 0
 138 723 108 735 30 735 c 1
 23 798 l 1
194 489 m 5
 225 477 258 458 345 458 c 1
 365 468 475 629 518 692 c 0
 532 713 528 739 450 736 c 1
 441 799 l 1
 558 797 709 802 709 802 c 1
 718 737 l 1
 678 738 650 731 621 699 c 0
 560 630 420 416 389 389 c 1
 358 387 281 390 229 380 c 1
 194 489 l 5
253 469 m 1
 282 462 342 456 376 466 c 1
 376 466 616 60 766 61 c 1
 778 0 l 1
 664 5 586 3 472 0 c 1
 458 57 l 1
 494 53 552 61 507 126 c 1
 485 156 306 390 253 469 c 1
EndSplineSet
Fore
SplineSet
22 64 m 1
 98 60 133 89 140 137 c 1
 248 146 l 1
 246 51 310 53 328 54 c 1
 338 0 l 1
 32 0 l 1
 22 64 l 1
23 798 m 1
 106 796 272 810 272 810 c 1
 247 597 244 208 248 145 c 0
 251 101 218 52 300 52 c 1
 284 1 l 1
 109 0 l 1
 109 0 131 72 139 136 c 0
 149 271 148 489 143 679 c 0
 138 723 108 735 30 735 c 1
 23 798 l 1
194 489 m 5
 225 477 258 458 345 458 c 1
 365 468 475 629 518 692 c 0
 532 713 528 739 450 736 c 1
 441 799 l 1
 558 797 709 802 709 802 c 1
 718 737 l 1
 678 738 650 731 621 699 c 0
 560 630 420 416 389 389 c 1
 358 387 281 390 229 380 c 1
 194 489 l 5
253 469 m 1
 282 462 342 456 376 466 c 1
 376 466 616 60 766 61 c 1
 778 0 l 1
 664 5 586 3 472 0 c 1
 458 57 l 1
 494 53 552 61 507 126 c 1
 485 156 306 390 253 469 c 1
EndSplineSet
Layer: 2
SplineSet
22 64 m 1
 98 60 133 89 140 137 c 1
 248 146 l 1
 246 51 310 53 328 54 c 1
 338 0 l 1
 32 0 l 1
 22 64 l 1
23 798 m 1
 106 796 272 810 272 810 c 1
 247 597 244 208 248 145 c 0
 251 101 218 52 300 52 c 1
 284 1 l 1
 109 0 l 1
 109 0 131 72 139 136 c 0
 149 271 148 489 143 679 c 0
 138 723 108 735 30 735 c 1
 23 798 l 1
194 489 m 5
 225 477 258 458 345 458 c 1
 365 468 475 629 518 692 c 0
 532 713 528 739 450 736 c 1
 441 799 l 1
 558 797 709 802 709 802 c 1
 718 737 l 1
 678 738 650 731 621 699 c 0
 560 630 420 416 389 389 c 1
 358 387 281 390 229 380 c 1
 194 489 l 5
253 469 m 1
 282 462 342 456 376 466 c 1
 376 466 616 60 766 61 c 1
 778 0 l 1
 664 5 586 3 472 0 c 1
 458 57 l 1
 494 53 552 61 507 126 c 1
 485 156 306 390 253 469 c 1
EndSplineSet
EndChar

StartChar: Z
Encoding: 58 90 76
Width: 679
VWidth: 79
Flags: HMW
LayerCount: 3
Back
SplineSet
12 0 m 1
 13 14 17 46 19 71 c 1
 93 128 347 542 447 702 c 0
 458 720 463 733 413 733 c 0
 340 733 221 731 163 727 c 1
 140 687 137 637 132 596 c 1
 60 588 l 1
 60 588 51 661 51 720 c 0
 51 744 54 801 54 801 c 1
 101 803 210 796 296 796 c 0
 379 796 581 794 657 800 c 1
 645 739 l 1
 556 672 196 74 177 56 c 1
 136 115 l 1
 167 85 251 76 307 73 c 0
 384 68 500 75 547 82 c 1
 567 120 574 166 578 204 c 1
 650 212 l 1
 650 212 659 139 659 80 c 0
 659 56 652 0 652 0 c 1
 439 0 225 0 12 0 c 1
EndSplineSet
Fore
SplineSet
12 0 m 1
 13 14 17 46 19 71 c 1
 93 128 347 542 447 702 c 0
 458 720 463 733 413 733 c 0
 340 733 221 731 163 727 c 1
 140 687 137 637 132 596 c 1
 60 588 l 1
 60 588 51 661 51 720 c 0
 51 744 54 801 54 801 c 1
 101 803 210 796 296 796 c 0
 379 796 581 794 657 800 c 1
 645 739 l 1
 556 672 196 74 177 56 c 1
 136 115 l 1
 167 85 251 76 307 73 c 0
 384 68 500 75 547 82 c 1
 567 120 574 166 578 204 c 1
 650 212 l 1
 650 212 659 139 659 80 c 0
 659 56 652 0 652 0 c 1
 439 0 225 0 12 0 c 1
EndSplineSet
Layer: 2
SplineSet
12 0 m 1
 13 14 17 46 19 71 c 1
 93 128 347 542 447 702 c 0
 458 720 463 733 413 733 c 0
 340 733 221 731 163 727 c 1
 140 687 137 637 132 596 c 1
 60 588 l 1
 60 588 51 661 51 720 c 0
 51 744 54 801 54 801 c 1
 101 803 210 796 296 796 c 0
 379 796 581 794 657 800 c 1
 645 739 l 1
 556 672 196 74 177 56 c 1
 136 115 l 1
 167 85 251 76 307 73 c 0
 384 68 500 75 547 82 c 1
 567 120 574 166 578 204 c 1
 650 212 l 1
 650 212 659 139 659 80 c 0
 659 56 652 0 652 0 c 1
 439 0 225 0 12 0 c 1
EndSplineSet
EndChar

StartChar: Y
Encoding: 57 89 77
Width: 724
VWidth: 79
Flags: HMW
LayerCount: 3
Back
SplineSet
-16 813 m 1
 98 808 242 807 336 813 c 1
 350 739 l 1
 274 733 266 716 291 661 c 5
 317 613 336 573 365 508 c 5
 372 473 381 427 381 427 c 1
 425 499 454 550 515 656 c 1
 543 715 494 733 426 730 c 1
 417 813 l 1
 514 807 640 809 737 813 c 1
 748 735 l 1
 688 733 669 701 640 653 c 0
 544 496 463 392 426 312 c 1
 397 309 318 310 284 300 c 1
 231.325195312 401.1015625 190.271484375 483.993164062 98 659 c 1
 69 724 29 736 -8 735 c 1
 -16 813 l 1
182 89 m 1
 255 74 273.40226408 132.346489192 276 165 c 0
 280.000720132 215.289006319 284 239 270 363 c 1
 441 375 l 1
 420 253 422 205 433 158 c 0
 444 109 456 82 508 89 c 1
 529 0 l 1
 197 -1 l 1
 182 89 l 1
EndSplineSet
Fore
SplineSet
-16 813 m 1
 98 808 242 807 336 813 c 1
 350 739 l 1
 274 733 266 716 291 661 c 5
 317 613 336 573 365 508 c 5
 372 473 381 427 381 427 c 1
 425 499 454 550 515 656 c 1
 543 715 494 733 426 730 c 1
 417 813 l 1
 514 807 640 809 737 813 c 1
 748 735 l 1
 688 733 669 701 640 653 c 0
 544 496 463 392 426 312 c 1
 397 309 318 310 284 300 c 1
 231.325195312 401.1015625 190.271484375 483.993164062 98 659 c 1
 69 724 29 736 -8 735 c 1
 -16 813 l 1
182 89 m 1
 255 74 273.40226408 132.346489192 276 165 c 0
 280.000720132 215.289006319 284 239 270 363 c 1
 441 375 l 1
 420 253 422 205 433 158 c 0
 444 109 456 82 508 89 c 1
 529 0 l 1
 197 -1 l 1
 182 89 l 1
EndSplineSet
Layer: 2
SplineSet
-16 802 m 1
 98 797 182 799 296 802 c 1
 310 748 l 1
 234 742 211 725 236 670 c 1
 262 622 290 553 326 488 c 1
 337 453 364 385 364 385 c 1
 408 457 474 559 535 665 c 5
 563 724 514 742 446 739 c 1
 437 802 l 1
 534 796 630 798 727 802 c 1
 738 744 l 1
 678 742 649 710 620 662 c 0
 524 505 443 402 406 322 c 1
 377 319 338 310 304 300 c 1
 250 402 218 483 111 668 c 1
 82 733 39 745 -8 744 c 1
 -16 802 l 1
195 69 m 1
 268 54 289 93 296 145 c 0
 303 196 304 249 290 373 c 1
 421 385 l 1
 399 243 412 169 423 122 c 0
 434 73 455 62 507 69 c 1
 528 0 l 1
 203 -1 l 1
 195 69 l 1
EndSplineSet
EndChar

StartChar: X
Encoding: 56 88 78
Width: 806
VWidth: 79
Flags: HMW
LayerCount: 3
Back
SplineSet
-6 66 m 5
 91 56 125.249591338 104.639736588 162 147 c 0
 205.176757812 196.767578125 288 330 341 414 c 1
 379 442 l 1
 430 507 495 601 522 653 c 0
 555.903320312 718.295898438 539 730 467 731 c 1
 459 801 l 1
 557 793 674 793 761 801 c 1
 772 739 l 5
 683 749 651.447017002 695.25244891 598 623 c 0
 544 550 464 437 428 385 c 1
 409 372 l 1
 355 313 313 234 270 163 c 1
 245 116 218 61 310 61 c 5
 319 1 l 5
 2 1 l 5
 -6 66 l 5
2 801 m 1
 128 790 247 792 346 800 c 1
 365 736 l 1
 263 735 256.194540883 699.609481624 286 650 c 0
 344.831955102 552.077576323 409 443 418 430 c 1
 411 434 l 1
 479 340 605 56 769 72 c 5
 785 1 l 1
 419 1 l 1
 407 62 l 1
 455 60 524 62 469 152 c 0
 433 210 373 315 329 373 c 1
 337 373 l 1
 294 449 226.399869022 532.103765557 159 632 c 0
 103 715 75 745 12 734 c 5
 2 801 l 1
EndSplineSet
Fore
SplineSet
-6 66 m 5
 91 56 125.249591338 104.639736588 162 147 c 0
 205.176757812 196.767578125 288 330 341 414 c 1
 379 442 l 1
 430 507 495 601 522 653 c 0
 555.903320312 718.295898438 539 730 467 731 c 1
 459 801 l 1
 557 793 674 793 761 801 c 1
 772 739 l 5
 683 749 651.447017002 695.25244891 598 623 c 0
 544 550 464 437 428 385 c 1
 409 372 l 1
 355 313 313 234 270 163 c 1
 245 116 218 61 310 61 c 5
 319 1 l 5
 2 1 l 5
 -6 66 l 5
2 801 m 1
 128 790 247 792 346 800 c 1
 365 736 l 1
 263 735 256.194540883 699.609481624 286 650 c 0
 344.831955102 552.077576323 409 443 418 430 c 1
 411 434 l 1
 479 340 605 56 769 72 c 5
 785 1 l 1
 419 1 l 1
 407 62 l 1
 455 60 524 62 469 152 c 0
 433 210 373 315 329 373 c 1
 337 373 l 1
 294 449 226.399869022 532.103765557 159 632 c 0
 103 715 75 745 12 734 c 5
 2 801 l 1
EndSplineSet
Layer: 2
SplineSet
-6 66 m 5
 91 56 125.249591338 104.639736588 162 147 c 0
 205.176757812 196.767578125 288 330 341 414 c 1
 379 442 l 1
 430 507 495 601 522 653 c 0
 555.903320312 718.295898438 539 730 467 731 c 1
 459 801 l 1
 557 793 674 793 761 801 c 1
 772 739 l 5
 683 749 651.447017002 695.25244891 598 623 c 0
 544 550 464 437 428 385 c 1
 409 372 l 1
 355 313 313 234 270 163 c 1
 245 116 218 61 310 61 c 5
 319 1 l 5
 2 1 l 5
 -6 66 l 5
2 801 m 1
 128 790 247 792 346 800 c 1
 365 736 l 1
 263 735 256.194540883 699.609481624 286 650 c 0
 344.831955102 552.077576323 409 443 418 430 c 1
 411 434 l 1
 479 340 605 56 769 72 c 5
 785 1 l 1
 419 1 l 1
 407 62 l 1
 455 60 524 62 469 152 c 0
 433 210 373 315 329 373 c 1
 337 373 l 1
 294 449 226.399869022 532.103765557 159 632 c 0
 103 715 75 745 12 734 c 5
 2 801 l 1
EndSplineSet
EndChar

StartChar: N
Encoding: 46 78 79
Width: 926
VWidth: 79
Flags: HMW
LayerCount: 3
Back
SplineSet
13 69 m 5
 86 54 133 79 138 162 c 4
 146 273 149 479 145 643 c 4
 144 734 98 739 28 729 c 5
 25 745 21 791 19 800 c 5
 118 791 179 790 293 794 c 5
 370 677 656 266 744 140 c 4
 749 132 683 104 688 96 c 5
 706 177 704 518 695 643 c 4
 688 734 646 739 576 729 c 5
 573 745 569 791 567 800 c 5
 633 794 653 791 725 792 c 4
 766 792 836 793 897 801 c 5
 897 801 902 755 905 736 c 5
 854 743 807 720 802 665 c 4
 787 486 790 215 798 0 c 5
 770 -4 753 -5 703 -16 c 5
 701 -17 l 5
 521 255 391 446 242 650 c 5
 230 468 234 186 240 139 c 4
 251 69 307 62 359 69 c 5
 370 0 l 5
 21 -1 l 5
 13 69 l 5
EndSplineSet
Fore
SplineSet
13 69 m 5
 86 54 133 79 138 162 c 4
 146 273 149 479 145 643 c 4
 144 734 98 739 28 729 c 5
 25 745 21 791 19 800 c 5
 118 791 179 790 293 794 c 5
 370 677 656 266 744 140 c 4
 749 132 683 104 688 96 c 5
 706 177 704 518 695 643 c 4
 688 734 646 739 576 729 c 5
 573 745 569 791 567 800 c 5
 633 794 653 791 725 792 c 4
 766 792 836 793 897 801 c 5
 897 801 902 755 905 736 c 5
 854 743 807 720 802 665 c 4
 787 486 790 215 798 0 c 5
 770 -4 753 -5 703 -16 c 5
 701 -17 l 5
 521 255 391 446 242 650 c 5
 230 468 234 186 240 139 c 4
 251 69 307 62 359 69 c 5
 370 0 l 5
 21 -1 l 5
 13 69 l 5
EndSplineSet
Layer: 2
SplineSet
13 69 m 5
 86 54 133 79 138 162 c 4
 146 273 149 479 145 643 c 4
 144 734 98 739 28 729 c 5
 25 745 21 791 19 800 c 5
 118 791 179 790 293 794 c 5
 370 677 656 266 744 140 c 4
 749 132 683 104 688 96 c 5
 706 177 704 518 695 643 c 4
 688 734 646 739 576 729 c 5
 573 745 569 791 567 800 c 5
 633 794 653 791 725 792 c 4
 766 792 836 793 897 801 c 5
 897 801 902 755 905 736 c 5
 854 743 807 720 802 665 c 4
 787 486 790 215 798 0 c 5
 770 -4 753 -5 703 -16 c 5
 701 -17 l 5
 521 255 391 446 242 650 c 5
 230 468 234 186 240 139 c 4
 251 69 307 62 359 69 c 5
 370 0 l 5
 21 -1 l 5
 13 69 l 5
EndSplineSet
EndChar

StartChar: M
Encoding: 45 77 80
Width: 1153
VWidth: 79
Flags: HMW
LayerCount: 3
Back
SplineSet
29 800 m 1
 128 791 198 790 312 794 c 1
 345 711 499 404 559 250 c 1
 574 189 592 104 608 66 c 1
 616 16 l 1
 547 -5 l 1
 509 89 290 578 242 650 c 1
 241 641 271 682 270 673 c 0
 260 491 264 183 270 139 c 0
 281 69 337 62 389 69 c 1
 400 0 l 1
 41 -1 l 1
 33 69 l 1
 106 54 163 79 168 162 c 0
 176 273 179 479 175 643 c 0
 174 734 88 739 38 729 c 1
 35 745 31 791 29 800 c 1
541 50 m 1
 650 268 782 677 829 794 c 1
 943 790 1018 791 1117 800 c 1
 1121 771 1124 745 1128 729 c 1
 1058 739 1001 734 1000 643 c 0
 996 479 999 273 1007 162 c 0
 1012 79 1053 54 1126 69 c 1
 1138 -1 l 1
 749 0 l 5
 740 69 l 5
 792 62 859 69 870 139 c 0
 876 186 880 518 868 700 c 1
 861 690 908 738 901 728 c 1
 807 555 728 265 617 16 c 1
 541 50 l 1
EndSplineSet
Fore
SplineSet
29 800 m 1
 128 791 198 790 312 794 c 1
 345 711 499 404 559 250 c 1
 574 189 592 104 608 66 c 1
 616 16 l 1
 547 -5 l 1
 509 89 290 578 242 650 c 1
 241 641 271 682 270 673 c 0
 260 491 264 183 270 139 c 0
 281 69 337 62 389 69 c 1
 400 0 l 1
 41 -1 l 1
 33 69 l 1
 106 54 163 79 168 162 c 0
 176 273 179 479 175 643 c 0
 174 734 88 739 38 729 c 1
 35 745 31 791 29 800 c 1
541 50 m 1
 650 268 782 677 829 794 c 1
 943 790 1018 791 1117 800 c 1
 1121 771 1124 745 1128 729 c 1
 1058 739 1001 734 1000 643 c 0
 996 479 999 273 1007 162 c 0
 1012 79 1053 54 1126 69 c 1
 1138 -1 l 1
 749 0 l 5
 740 69 l 5
 792 62 859 69 870 139 c 0
 876 186 880 518 868 700 c 1
 861 690 908 738 901 728 c 1
 807 555 728 265 617 16 c 1
 541 50 l 1
EndSplineSet
Layer: 2
SplineSet
29 800 m 1
 128 791 198 790 312 794 c 1
 345 711 499 404 559 250 c 1
 574 189 592 104 608 66 c 1
 616 16 l 1
 547 -5 l 1
 509 89 290 578 242 650 c 1
 241 641 271 682 270 673 c 0
 260 491 264 183 270 139 c 0
 281 69 337 62 389 69 c 1
 400 0 l 1
 41 -1 l 1
 33 69 l 1
 106 54 163 79 168 162 c 0
 176 273 179 479 175 643 c 0
 174 734 88 739 38 729 c 1
 35 745 31 791 29 800 c 1
541 50 m 1
 650 268 782 677 829 794 c 1
 943 790 1018 791 1117 800 c 1
 1121 771 1124 745 1128 729 c 1
 1058 739 1001 734 1000 643 c 0
 996 479 999 273 1007 162 c 0
 1012 79 1053 54 1126 69 c 1
 1138 -1 l 1
 749 0 l 5
 740 69 l 5
 792 62 859 69 870 139 c 0
 876 186 880 518 868 700 c 1
 861 690 908 738 901 728 c 1
 807 555 728 265 617 16 c 1
 541 50 l 1
EndSplineSet
EndChar

StartChar: grave
Encoding: 64 96 81
Width: 0
VWidth: 0
Flags: HMW
AnchorPoint: "top" 0 1000 mark 0
LayerCount: 3
Back
SplineSet
-197 950 m 9
 -177 866 l 17
 -69 871 128 958 191 1014 c 9
 121 1128 l 17
 58 1062 -95 982 -197 950 c 9
EndSplineSet
Fore
SplineSet
73 920 m 13
 83 866 l 21
 191 881 368 958 431 1004 c 13
 371 1098 l 21
 308 1032 165 942 73 920 c 13
EndSplineSet
Layer: 2
SplineSet
73 920 m 13
 83 866 l 21
 191 881 368 958 431 1004 c 13
 371 1098 l 21
 308 1032 165 942 73 920 c 13
EndSplineSet
EndChar

StartChar: question
Encoding: 31 63 83
Width: 552
VWidth: 153
Flags: HMW
LayerCount: 3
Back
SplineSet
60 732 m 1
 212 742 l 1
 193 688 185 631 182 576 c 1
 67 560 l 1
 59 592 55 697 60 732 c 1
60 732 m 1
 113 765 200 801 297 801 c 0
 416.6875 801 525.513671875 753.32421875 519.68359375 612 c 0
 511.099609375 403.923828125 289.950195312 355.389648438 203 338 c 1
 198 330 241 398 241 384 c 0
 241 319 253 269 264 218 c 1
 117 216 l 1
 118 253 117 370 118 394 c 1
 170 407 322 410 343 542 c 0
 360 646 316 712 212 722 c 0
 158.100585938 727.182617188 115 710 85 693 c 1
 60 732 l 1
EndSplineSet
Refer: 11 46 N 1 0 0 1 62 2 2
Fore
SplineSet
60 732 m 1
 212 742 l 1
 193 688 185 631 182 576 c 1
 67 560 l 1
 59 592 55 697 60 732 c 1
60 732 m 1
 113 765 200 801 297 801 c 0
 416.6875 801 525.513671875 753.32421875 519.68359375 612 c 0
 511.099609375 403.923828125 289.950195312 355.389648438 203 338 c 1
 198 330 241 398 241 384 c 0
 241 319 253 269 264 218 c 1
 117 216 l 1
 118 253 117 370 118 394 c 1
 170 407 322 410 343 542 c 0
 360 646 316 712 212 722 c 0
 158.100585938 727.182617188 115 710 85 693 c 1
 60 732 l 1
EndSplineSet
Refer: 11 46 N 1 0 0 1 62 2 2
Layer: 2
SplineSet
80 732 m 1
 192 732 l 1
 182 697 175 627 172 592 c 1
 87 580 l 1
 79 612 75 697 80 732 c 1
80 732 m 1
 133 765 220 801 307 801 c 0
 426 801 524 734 496 580 c 0
 461 393 298 345 213 318 c 1
 208 310 261 378 261 364 c 0
 261 299 276 219 280 198 c 1
 167 196 l 1
 168 233 167 340 168 364 c 1
 220 377 362 400 383 532 c 0
 400 636 356 722 232 732 c 0
 178 736 135 710 105 693 c 1
 80 732 l 1
EndSplineSet
Refer: 11 46 N 1 0 0 1 117 2 2
EndChar

StartChar: quotesingle
Encoding: 7 39 84
Width: 202
VWidth: 79
Flags: HMW
LayerCount: 3
Back
SplineSet
11 586 m 1
 27 647 46 729 48 800 c 5
 93.2125095066 802.541413326 135.99609375 806.5234375 202 819 c 5
 190 726 147 635 119 575 c 1
 11 586 l 1
EndSplineSet
Fore
SplineSet
11 586 m 1
 27 647 46 729 48 800 c 5
 93.2125095066 802.541413326 135.99609375 806.5234375 202 819 c 5
 190 726 147 635 119 575 c 1
 11 586 l 1
EndSplineSet
Layer: 2
SplineSet
22 746 m 4
 20 792 54 822 92 822 c 4
 138 822 162 795 162 756 c 4
 162 717 139 688 102 679 c 5
 83 688 24 698 22 746 c 4
41 596 m 5
 47 607 72 659 58 730 c 13
 114 757 l 29
 124 725 163 787 162 756 c 4
 160 703 94 595 69 575 c 5
 41 596 l 5
EndSplineSet
EndChar

StartChar: exclam
Encoding: 1 33 102
Width: 330
VWidth: 153
Flags: HMW
LayerCount: 3
Back
SplineSet
89 752 m 1
 116 776 173 793 207 791 c 5
 207 791 220 759 221 697 c 0
 222 531 197 414 175 211 c 1
 102 206 l 1
 115 399 117 580 89 752 c 1
EndSplineSet
Refer: 11 46 N 1 0 0 1 39 -10 2
Fore
SplineSet
89 752 m 1
 116 776 173 793 207 791 c 5
 207 791 220 759 221 697 c 0
 222 531 197 414 175 211 c 1
 102 206 l 1
 115 399 117 580 89 752 c 1
EndSplineSet
Refer: 11 46 N 1 0 0 1 39 -10 2
Layer: 2
SplineSet
89 752 m 1
 116 776 173 793 207 791 c 5
 207 791 220 759 221 697 c 0
 222 531 197 414 175 211 c 1
 102 206 l 1
 115 399 117 580 89 752 c 1
EndSplineSet
Refer: 11 46 N 1 0 0 1 39 -10 2
EndChar

StartChar: parenright
Encoding: 9 41 103
Width: 401
VWidth: 153
Flags: HMW
LayerCount: 3
Back
SplineSet
357.827148438 375.982421875 m 0
 352.951171875 201.255859375 295.109375 26.4638671875 214.333984375 -122.822265625 c 1
 95.126953125 -97.6337890625 l 1
 166.068359375 40.0341796875 203.123046875 276.841796875 198.48828125 437.790039062 c 0
 194.732421875 568.202148438 150.904296875 741.134765625 47.6572265625 860.819335938 c 1
 144.313476562 921.864257812 l 1
 222.307617188 845.840820312 365.427734375 648.338867188 357.827148438 375.982421875 c 0
EndSplineSet
Fore
SplineSet
357.827148438 375.982421875 m 0
 352.951171875 201.255859375 295.109375 26.4638671875 214.333984375 -122.822265625 c 1
 95.126953125 -97.6337890625 l 1
 166.068359375 40.0341796875 203.123046875 276.841796875 198.48828125 437.790039062 c 0
 194.732421875 568.202148438 150.904296875 741.134765625 47.6572265625 860.819335938 c 1
 144.313476562 921.864257812 l 1
 222.307617188 845.840820312 365.427734375 648.338867188 357.827148438 375.982421875 c 0
EndSplineSet
Layer: 2
SplineSet
82 -95 m 1
 163 37 219.716796875 241.00390625 222 402 c 0
 224 543 193 696 99 814 c 5
 161 865 l 5
 214 817 322 683 337 489 c 0
 355 262 267 54 147 -133 c 1
 82 -95 l 1
EndSplineSet
EndChar

StartChar: parenleft
Encoding: 8 40 104
Width: 371
VWidth: 153
Flags: HMW
LayerCount: 3
Back
SplineSet
35 265 m 4
 17 492 99 726 219 913 c 5
 336 879 l 5
 255 747 199 513 201 352 c 4
 202 221 215 48 319 -80 c 5
 211 -134 l 5
 153 -88 50 71 35 265 c 4
EndSplineSet
Fore
SplineSet
35 265 m 4
 17 492 99 726 219 913 c 5
 336 879 l 5
 255 747 199 513 201 352 c 4
 202 221 215 48 319 -80 c 5
 211 -134 l 5
 153 -88 50 71 35 265 c 4
EndSplineSet
Layer: 2
SplineSet
81 235 m 0
 63 462 145 696 265 883 c 1
 336 849 l 1
 255 717 199 483 201 322 c 0
 202 191 215 18 319 -110 c 1
 257 -164 l 1
 199 -118 96 41 81 235 c 0
EndSplineSet
EndChar

StartChar: hyphen
Encoding: 13 45 105
Width: 526
VWidth: 153
Flags: HW
LayerCount: 3
Back
SplineSet
40 258 m 1
 59 403 l 1
 252 393 314 393 486 403 c 1
 484 376 473 292 471 258 c 1
 40 258 l 1
EndSplineSet
Fore
SplineSet
40 258 m 1
 59 403 l 1
 252 393 314 393 486 403 c 1
 484 376 473 292 471 258 c 1
 40 258 l 1
EndSplineSet
Layer: 2
SplineSet
39 328 m 1
 53 433 l 1
 246 423 308 423 480 433 c 1
 478 406 472 362 470 328 c 1
 39 328 l 1
EndSplineSet
EndChar

StartChar: underscore
Encoding: 63 95 106
Width: 669
VWidth: 153
Flags: HW
LayerCount: 3
Back
SplineSet
39 1 m 5
 53 96 l 5
 246 86 457 86 629 96 c 5
 627 69 621 35 619 1 c 5
 39 1 l 5
EndSplineSet
Fore
SplineSet
39 1 m 5
 53 96 l 5
 246 86 457 86 629 96 c 5
 627 69 621 35 619 1 c 5
 39 1 l 5
EndSplineSet
Layer: 2
SplineSet
39 1 m 5
 53 96 l 5
 246 86 457 86 629 96 c 5
 627 69 621 35 619 1 c 5
 39 1 l 5
EndSplineSet
EndChar

StartChar: emdash
Encoding: 213 8212 107
Width: 1000
VWidth: 153
Flags: HW
LayerCount: 3
Back
SplineSet
40 258 m 1
 40 403 l 1
 960 403 l 1
 960 258 l 1
 40 258 l 1
EndSplineSet
Fore
SplineSet
39 328 m 1
 53 423 l 1
 246 413 457 413 629 423 c 1
 627 396 621 362 619 328 c 1
 39 328 l 1
EndSplineSet
Layer: 2
SplineSet
39 328 m 1
 53 423 l 1
 246 413 457 413 629 423 c 1
 627 396 621 362 619 328 c 1
 39 328 l 1
EndSplineSet
EndChar

StartChar: dotlessi
Encoding: 191 305 109
Width: 477
VWidth: 79
Flags: HW
HStem: 0 163<160 311> 0 87<49 133.397> 0 80<333.644 405> 525 71<47 127.184> 587 20G<326 331>
VStem: 151 160<0 315.5>
LayerCount: 3
Back
SplineSet
41 596 m 1x34
 124 594 331 607 331 607 c 1
 321 552 320 87 311 0 c 1x8c
 151 0 l 1
 166 200 167 388 160 450 c 0
 155 495 119 525 47 525 c 1
 41 596 l 1x34
42 87 m 1x44
 108 83 156 105 160 163 c 1x84
 317 168 l 1
 315 73 377 79 405 80 c 1
 415 0 l 1x24
 49 0 l 1
 42 87 l 1x44
EndSplineSet
EndChar

StartChar: zero
Encoding: 16 48 117
Width: 718
VWidth: 153
Flags: HW
LayerCount: 3
Back
SplineSet
50.0029296875 311.139648438 m 0
 50.5478515625 561.853515625 197.973632812 692.288085938 375.72265625 694.151367188 c 0
 549.634765625 695.974609375 679.46875 592.741210938 680.262695312 340.750976562 c 0
 681.081054688 167.181640625 575.416605884 -20.4285628761 358.286132812 -24.2470703125 c 0
 152.695439993 -27.8626364662 49.6005859375 123.536132812 50.0029296875 311.139648438 c 0
215.572265625 334.72265625 m 0
 216.450195312 154.969726562 278.842078998 66.3745258302 366.352539062 67.8310546875 c 0
 452.324068836 69.2619695053 517.053710938 191.017578125 516.521484375 332.618164062 c 0
 515.907226562 502.18359375 453.186315914 613.172754718 351.448242188 601.96484375 c 0
 290.393496348 595.228662274 214.75 503.153320312 215.572265625 334.72265625 c 0
EndSplineSet
Fore
SplineSet
50.0029296875 311.139648438 m 0
 50.5478515625 561.853515625 197.973632812 692.288085938 375.72265625 694.151367188 c 0
 549.634765625 695.974609375 679.46875 592.741210938 680.262695312 340.750976562 c 0
 681.081054688 167.181640625 575.416605884 -20.4285628761 358.286132812 -24.2470703125 c 0
 152.695439993 -27.8626364662 49.6005859375 123.536132812 50.0029296875 311.139648438 c 0
215.572265625 334.72265625 m 0
 216.450195312 154.969726562 278.842078998 66.3745258302 366.352539062 67.8310546875 c 0
 452.324068836 69.2619695053 517.053710938 191.017578125 516.521484375 332.618164062 c 0
 515.907226562 502.18359375 453.186315914 613.172754718 351.448242188 601.96484375 c 0
 290.393496348 595.228662274 214.75 503.153320312 215.572265625 334.72265625 c 0
EndSplineSet
EndChar

StartChar: one
Encoding: 17 49 118
Width: 539
VWidth: 79
Flags: HW
LayerCount: 3
Back
SplineSet
51 637 m 1
 169.901367188 638 380 692 380 692 c 1
 345.5 328.49609375 359.016601562 145.760742188 371 0 c 1
 203 0 l 1
 218 203.9765625 207 449.767578125 200 513 c 0
 193.6484375 549.760742188 167.458984375 571 56 571 c 1
 51 637 l 1
100 96 m 1
 162.64453125 92 208.203125 114 212 172 c 1
 361 186 l 1
 359 83.443359375 424 89.9208984375 452 91 c 1
 462 0 l 1
 108 0 l 1
 100 96 l 1
EndSplineSet
Fore
SplineSet
51 637 m 1
 169.901367188 638 380 692 380 692 c 1
 345.5 328.49609375 359.016601562 145.760742188 371 0 c 1
 203 0 l 1
 218 203.9765625 207 449.767578125 200 513 c 0
 193.6484375 549.760742188 167.458984375 571 56 571 c 1
 51 637 l 1
100 96 m 1
 162.64453125 92 208.203125 114 212 172 c 1
 361 186 l 1
 359 83.443359375 424 89.9208984375 452 91 c 1
 462 0 l 1
 108 0 l 1
 100 96 l 1
EndSplineSet
EndChar

StartChar: two
Encoding: 18 50 119
Width: 672
VWidth: 153
Flags: HW
LayerCount: 3
Back
SplineSet
87 634 m 1
 129.672851562 653 249.087443232 689.589895526 337 694 c 0
 491.783203125 701.764648438 568.032124656 627.189259799 570 526 c 0
 572.066030152 419.763564664 515.935546875 346.366210938 468 292 c 0
 376.900390625 188.6796875 262.795898438 102.745117188 182 95 c 1
 239 130.2421875 l 1
 452 134 l 1
 508.510742188 135.8046875 526.501953125 168.169921875 539 219 c 1
 619 229 l 1
 607 0 l 1
 74 0 l 0
 63 80 l 1
 160.94921875 132.0546875 273.770507812 211.624023438 340.456054688 330 c 0
 369.602539062 381.739257812 391.260742188 418.981445312 379 511 c 0
 371.166992188 569.788085938 347.956054688 616.28515625 296 615 c 0
 242.963987852 613.688130519 214.705078125 565.537109375 198 489 c 1
 90 475 l 1
 86.1474609375 511.744140625 84.7744140625 607.447265625 87 634 c 1
EndSplineSet
Fore
SplineSet
87 634 m 1
 129.672851562 653 249.087443232 689.589895526 337 694 c 0
 491.783203125 701.764648438 568.032124656 627.189259799 570 526 c 0
 572.066030152 419.763564664 515.935546875 346.366210938 468 292 c 0
 376.900390625 188.6796875 262.795898438 102.745117188 182 95 c 1
 239 130.2421875 l 1
 452 134 l 1
 508.510742188 135.8046875 526.501953125 168.169921875 539 219 c 1
 619 229 l 1
 607 0 l 1
 74 0 l 0
 63 80 l 1
 160.94921875 132.0546875 273.770507812 211.624023438 340.456054688 330 c 0
 369.602539062 381.739257812 391.260742188 418.981445312 379 511 c 0
 371.166992188 569.788085938 347.956054688 616.28515625 296 615 c 0
 242.963987852 613.688130519 214.705078125 565.537109375 198 489 c 1
 90 475 l 1
 86.1474609375 511.744140625 84.7744140625 607.447265625 87 634 c 1
EndSplineSet
EndChar

StartChar: three
Encoding: 19 51 120
Width: 601
VWidth: 153
Flags: HW
LayerCount: 3
Back
SplineSet
51 630 m 1
 99 652 196.041992188 687.25390625 285 690 c 0
 447 695 527.0390625 620.694335938 528 522 c 0
 529.056640625 413.446289062 433.359375 322.846679688 284.583984375 304 c 1
 284.573242188 332 l 1
 434.83984375 334.393554688 547.375976562 254.372070312 554 136 c 0
 562.745117188 -20.2734375 406.708007812 -99.6494140625 313 -121 c 0
 227.021484375 -140.58984375 84.0654296875 -141.888671875 57 -127 c 1
 42.4091796875 -88.81640625 57.1064453125 17.7041015625 95 67 c 1
 121.126953125 16.9736328125 185.0390625 -38.0166015625 281 -32 c 0
 360.887695312 -26.9912109375 403.10546875 26.1591796875 401 84 c 0
 397.086914062 191.49609375 308.0625 254.479492188 184 254 c 1
 177 337 l 1
 292.620117188 351.325195312 349 426 349 509 c 0
 349 584.326171875 316.940429688 620.33984375 257 617 c 0
 207.631835938 614.249023438 167.727539062 573.797851562 155 485 c 1
 54 474 l 1
 48 536.732421875 51 630 51 630 c 1
EndSplineSet
Fore
SplineSet
51 630 m 1
 99 652 196.041992188 687.25390625 285 690 c 0
 447 695 527.0390625 620.694335938 528 522 c 0
 529.056640625 413.446289062 433.359375 322.846679688 284.583984375 304 c 1
 284.573242188 332 l 1
 434.83984375 334.393554688 547.375976562 254.372070312 554 136 c 0
 562.745117188 -20.2734375 406.708007812 -99.6494140625 313 -121 c 0
 227.021484375 -140.58984375 84.0654296875 -141.888671875 57 -127 c 1
 42.4091796875 -88.81640625 57.1064453125 17.7041015625 95 67 c 1
 121.126953125 16.9736328125 185.0390625 -38.0166015625 281 -32 c 0
 360.887695312 -26.9912109375 403.10546875 26.1591796875 401 84 c 0
 397.086914062 191.49609375 308.0625 254.479492188 184 254 c 1
 177 337 l 1
 292.620117188 351.325195312 349 426 349 509 c 0
 349 584.326171875 316.940429688 620.33984375 257 617 c 0
 207.631835938 614.249023438 167.727539062 573.797851562 155 485 c 1
 54 474 l 1
 48 536.732421875 51 630 51 630 c 1
EndSplineSet
EndChar

StartChar: four
Encoding: 20 52 121
Width: 717
VWidth: 79
Flags: HW
LayerCount: 3
Back
SplineSet
408 394 m 9
 408 394 507.500976562 430.795898438 565 450 c 1
 541.643554688 161.8046875 546.552734375 64.859375 557 -112 c 1
 390 -112 l 1
 402.12890625 68.9462890625 411.905273438 229.84765625 408 394 c 9
131 169 m 1
 143.84375 168.580078125 119.392578125 208.235351562 137 207.965820312 c 1
 265.759765625 205.998046875 584.572265625 208.107421875 680 215 c 9
 693 100 l 17
 51 100 l 1
 21 139 l 1
 140.438476562 294.509765625 250.741210938 517.298828125 286 653 c 1
 317.873046875 674.815429688 410.452148438 710.961914062 472 674 c 1
 439.35546875 556.94140625 264.150390625 264.427734375 131 169 c 1
EndSplineSet
Fore
SplineSet
408 394 m 9
 408 394 507.500976562 430.795898438 565 450 c 1
 541.643554688 161.8046875 546.552734375 64.859375 557 -112 c 1
 390 -112 l 1
 402.12890625 68.9462890625 411.905273438 229.84765625 408 394 c 9
131 169 m 1
 143.84375 168.580078125 119.392578125 208.235351562 137 207.965820312 c 1
 265.759765625 205.998046875 584.572265625 208.107421875 680 215 c 9
 693 100 l 17
 51 100 l 1
 21 139 l 1
 140.438476562 294.509765625 250.741210938 517.298828125 286 653 c 1
 317.873046875 674.815429688 410.452148438 710.961914062 472 674 c 1
 439.35546875 556.94140625 264.150390625 264.427734375 131 169 c 1
EndSplineSet
EndChar

StartChar: five
Encoding: 21 53 122
Width: 614
VWidth: 153
Flags: HW
LayerCount: 3
Back
SplineSet
72 300 m 1
 84.01171875 418.706054688 95.9169921875 539.622070312 103 670 c 1
 498.461914062 671 l 1
 493 527 l 1
 365.174804688 534.736328125 314.357421875 535 174 535 c 1
 166.451171875 395.630859375 l 1
 413.549804688 396.005859375 555.358853744 313.617414535 553 147 c 0
 550.745117188 -12.2734375 386.600585938 -101.9765625 263 -122 c 4
 178.877929688 -135.627929688 54.0654296875 -138.888671875 27 -124 c 5
 12.4091796875 -85.81640625 27.1064453125 20.7041015625 65 70 c 5
 91.126953125 19.9736328125 174.108071338 -32.2996256754 268 -22 c 4
 350.576857323 -12.9415992195 400.10546875 30.1591796875 401 99 c 4
 402.874608125 243.265011506 260.4921875 302.71875 72 300 c 1
EndSplineSet
Fore
SplineSet
72 300 m 1
 84.01171875 418.706054688 95.9169921875 539.622070312 103 670 c 1
 498.461914062 671 l 1
 493 527 l 1
 365.174804688 534.736328125 314.357421875 535 174 535 c 1
 166.451171875 395.630859375 l 1
 413.549804688 396.005859375 555.358853744 313.617414535 553 147 c 0
 550.745117188 -12.2734375 386.600585938 -101.9765625 263 -122 c 4
 178.877929688 -135.627929688 54.0654296875 -138.888671875 27 -124 c 5
 12.4091796875 -85.81640625 27.1064453125 20.7041015625 65 70 c 5
 91.126953125 19.9736328125 174.108071338 -32.2996256754 268 -22 c 4
 350.576857323 -12.9415992195 400.10546875 30.1591796875 401 99 c 4
 402.874608125 243.265011506 260.4921875 302.71875 72 300 c 1
EndSplineSet
EndChar

StartChar: six
Encoding: 22 54 123
Width: 680
VWidth: 153
Flags: HW
LayerCount: 3
Back
SplineSet
577.092773438 728.16015625 m 1
 562.676757812 809.241210938 l 1
 292.853515625 822.416992188 56.03515625 615.931640625 54.05078125 303 c 0
 52.8642578125 115.916015625 162.891601562 -13.302734375 324.201171875 -13.9892578125 c 0
 520.903320312 -14.826171875 624.48828125 124.250976562 628.555664062 247.581054688 c 0
 634.064453125 414.622070312 519.54296875 508.799804688 397.149414062 513.91015625 c 0
 297.260742188 518.081054688 235.052734375 470.684570312 200.978515625 440.6484375 c 1
 201.522460938 360.196289062 l 0
 231.116210938 381.1875 293.024479661 415.702156881 355 410 c 0
 440.825195312 402.103515625 470.038085938 324.12109375 466.129882812 241.5546875 c 0
 461.947265625 153.190429688 424.2265625 88.005859375 338.592773438 91.1484375 c 4
 268.248425956 93.7299256022 211.3125 166.5 207 315 c 0
 202.471679688 470.930664062 301.362304688 735.109375 577.092773438 728.16015625 c 1
EndSplineSet
Fore
SplineSet
577.092773438 728.16015625 m 1
 562.676757812 809.241210938 l 1
 292.853515625 822.416992188 56.03515625 615.931640625 54.05078125 303 c 0
 52.8642578125 115.916015625 162.891601562 -13.302734375 324.201171875 -13.9892578125 c 0
 520.903320312 -14.826171875 624.48828125 124.250976562 628.555664062 247.581054688 c 0
 634.064453125 414.622070312 519.54296875 508.799804688 397.149414062 513.91015625 c 0
 297.260742188 518.081054688 235.052734375 470.684570312 200.978515625 440.6484375 c 1
 201.522460938 360.196289062 l 0
 231.116210938 381.1875 293.024479661 415.702156881 355 410 c 0
 440.825195312 402.103515625 470.038085938 324.12109375 466.129882812 241.5546875 c 0
 461.947265625 153.190429688 424.2265625 88.005859375 338.592773438 91.1484375 c 4
 268.248425956 93.7299256022 211.3125 166.5 207 315 c 0
 202.471679688 470.930664062 301.362304688 735.109375 577.092773438 728.16015625 c 1
EndSplineSet
EndChar

StartChar: seven
Encoding: 23 55 124
Width: 645
VWidth: 0
Flags: HW
LayerCount: 3
Back
SplineSet
53 674 m 1
 50.7216796875 604.806640625 45.828125 502.766601562 46 435 c 1
 126 444 l 1
 181.190429688 576.767578125 254.4296875 564.837890625 496 560 c 1
 545.4140625 618 l 1
 419.456448755 510.524379234 212.802734375 183.310546875 111.73046875 -64 c 1
 171.104492188 -134.500976562 255.672851562 -131.83203125 291 -115 c 1
 310.684570312 33.62109375 468.40234375 403.09765625 630 620 c 1
 574 674 l 1
 411.935546875 671.260742188 248.302734375 668.891601562 53 674 c 1
EndSplineSet
Fore
SplineSet
53 674 m 1
 50.7216796875 604.806640625 45.828125 502.766601562 46 435 c 1
 126 444 l 1
 181.190429688 576.767578125 254.4296875 564.837890625 496 560 c 1
 545.4140625 618 l 1
 419.456448755 510.524379234 212.802734375 183.310546875 111.73046875 -64 c 1
 171.104492188 -134.500976562 255.672851562 -131.83203125 291 -115 c 1
 310.684570312 33.62109375 468.40234375 403.09765625 630 620 c 1
 574 674 l 1
 411.935546875 671.260742188 248.302734375 668.891601562 53 674 c 1
EndSplineSet
EndChar

StartChar: eight
Encoding: 24 56 125
Width: 645
VWidth: 153
Flags: HW
LayerCount: 3
Back
SplineSet
210 607 m 0
 204.745117188 677.849609375 252.417860217 717.011280202 315 716 c 0
 366.610351562 715.166015625 406.434570312 677.97265625 407 612 c 0
 407.60546875 537.381835938 374.450062552 472.991749281 308 430 c 1
 338 390 l 1
 417.625557378 397.175103636 545.790039062 476.362304688 545 604 c 0
 544.25 725.206054688 443.252929688 802.900390625 314 800.713867188 c 0
 176.717773438 798.391601562 74.0087890625 711.467773438 75 578 c 0
 76.837890625 330.461914062 417.987270153 384.768363663 426 184 c 0
 428.451171875 122.583007812 382.05859375 78.041015625 303 78.1484375 c 4
 224.904296875 78.2548828125 182.321289062 134.150390625 182 199 c 0
 181.794921875 240.34765625 203.826171875 334.745117188 278 360 c 0
 283.053710938 361.720703125 266.701171875 395.276367188 272 396 c 1
 123.231322714 396.918945312 31 282 31 184 c 0
 31 64 137.5546875 -15.04296875 302 -14.9892578125 c 0
 422.194335938 -14.9501953125 577.00390625 51.701171875 582 194 c 0
 591.38671875 461.354492188 223.0546875 430.995117188 210 607 c 0
EndSplineSet
Fore
SplineSet
210 607 m 0
 204.745117188 677.849609375 252.417860217 717.011280202 315 716 c 0
 366.610351562 715.166015625 406.434570312 677.97265625 407 612 c 0
 407.60546875 537.381835938 374.450062552 472.991749281 308 430 c 1
 338 390 l 1
 417.625557378 397.175103636 545.790039062 476.362304688 545 604 c 0
 544.25 725.206054688 443.252929688 802.900390625 314 800.713867188 c 0
 176.717773438 798.391601562 74.0087890625 711.467773438 75 578 c 0
 76.837890625 330.461914062 417.987270153 384.768363663 426 184 c 0
 428.451171875 122.583007812 382.05859375 78.041015625 303 78.1484375 c 4
 224.904296875 78.2548828125 182.321289062 134.150390625 182 199 c 0
 181.794921875 240.34765625 203.826171875 334.745117188 278 360 c 0
 283.053710938 361.720703125 266.701171875 395.276367188 272 396 c 1
 123.231322714 396.918945312 31 282 31 184 c 0
 31 64 137.5546875 -15.04296875 302 -14.9892578125 c 0
 422.194335938 -14.9501953125 577.00390625 51.701171875 582 194 c 0
 591.38671875 461.354492188 223.0546875 430.995117188 210 607 c 0
EndSplineSet
EndChar

StartChar: nine
Encoding: 25 57 126
Width: 680
VWidth: 153
Flags: HW
LayerCount: 3
Back
SplineSet
122.907226562 23.83984375 m 5
 114.05859375 -23.169921875 102.203125 -69.2939453125 137.323242188 -129.241210938 c 5
 407.146484375 -142.416992188 643.96484375 76.068359375 645.94921875 389 c 0
 647.135742188 576.083984375 537.108398438 705.302734375 375.798828125 705.989257812 c 0
 179.096679688 706.826171875 75.51171875 557.749023438 71.4443359375 434.418945312 c 0
 65.935546875 267.377929688 180.45703125 183.200195312 302.850585938 178.08984375 c 0
 402.739257812 173.918945312 464.947265625 221.315429688 499.021484375 251.3515625 c 1
 498.477539062 331.803710938 l 0
 468.883789062 310.8125 406.911132812 275.63671875 345 282 c 0
 268.174804688 289.896484375 229.961914062 369.87890625 233.870117188 452.4453125 c 0
 238.052734375 540.809570312 273.773398105 602.990186512 359.407226562 602.8515625 c 0
 431.798828125 602.734375 488.6875 534.5 493 377 c 0
 497.269729832 221.062040904 448.637695312 -33.109375 122.907226562 23.83984375 c 5
EndSplineSet
Fore
SplineSet
122.907226562 23.83984375 m 5
 114.05859375 -23.169921875 102.203125 -69.2939453125 137.323242188 -129.241210938 c 5
 407.146484375 -142.416992188 643.96484375 76.068359375 645.94921875 389 c 0
 647.135742188 576.083984375 537.108398438 705.302734375 375.798828125 705.989257812 c 0
 179.096679688 706.826171875 75.51171875 557.749023438 71.4443359375 434.418945312 c 0
 65.935546875 267.377929688 180.45703125 183.200195312 302.850585938 178.08984375 c 0
 402.739257812 173.918945312 464.947265625 221.315429688 499.021484375 251.3515625 c 1
 498.477539062 331.803710938 l 0
 468.883789062 310.8125 406.911132812 275.63671875 345 282 c 0
 268.174804688 289.896484375 229.961914062 369.87890625 233.870117188 452.4453125 c 0
 238.052734375 540.809570312 273.773398105 602.990186512 359.407226562 602.8515625 c 0
 431.798828125 602.734375 488.6875 534.5 493 377 c 0
 497.269729832 221.062040904 448.637695312 -33.109375 122.907226562 23.83984375 c 5
EndSplineSet
EndChar

StartChar: cedilla
Encoding: 119 184 154
Width: 0
VWidth: 79
Flags: HW
AnchorPoint: "bottom" 0 0 mark 0
LayerCount: 3
Back
SplineSet
-50 0 m 17
 -29 -0.407520818051 -8 0.22395430265 13 1 c 9
 26 -83 l 17
 29.2880859375 -81.8564453125 -5.375 -81.8037109375 -2 -80.8447265625 c 1
 14.953125 -75.25390625 46.8134765625 -60.16015625 94 -59.6982421875 c 0
 155.220703125 -59.0986328125 218.3046875 -93.89453125 223 -157 c 0
 231.333953013 -269.009160502 121.237281121 -333.326442161 -10 -331 c 0
 -61.6949909352 -330.083603338 -124 -313 -146 -303 c 9
 -121 -237 l 17
 -89 -252 -49.236328125 -263.510742188 -6 -263 c 0
 59.0048828125 -262.231445312 89 -223 89 -184 c 0
 89 -132 -3 -128 -60 -143 c 9
 -50 0 l 17
EndSplineSet
EndChar

StartChar: circumflex
Encoding: 202 710 201
Width: 0
VWidth: 0
Flags: HW
AnchorPoint: "top" -1 611 mark 0
LayerCount: 3
Back
SplineSet
37.11328125 856.296875 m 1
 62.228515625 810.924804688 137.282226562 730.928710938 208.251953125 699 c 5
 171.532226562 609 l 1
 122.493164062 618.287109375 19.869140625 690.86328125 -9.603515625 724.340820312 c 1
 -14.5078125 718.993164062 29.2333984375 743.3828125 22 737.6640625 c 1
 -16.0830078125 687.555664062 -121.211672919 622.454198881 -158.3046875 609 c 1
 -205.151367188 699 l 1
 -125.079101562 732.331054688 -61.3603515625 811.86328125 -35.9384765625 855.736328125 c 1
 37.11328125 856.296875 l 1
EndSplineSet
EndChar

StartChar: ogonek
Encoding: 208 731 206
Width: 0
VWidth: 79
Flags: HW
AnchorPoint: "bottom" 0 0 mark 0
LayerCount: 3
Back
SplineSet
-50 0 m 17
 -29 -0.407520818051 -8 0.22395430265 13 1 c 9
 26 -83 l 17
 29.2880859375 -81.8564453125 -5.375 -81.8037109375 -2 -80.8447265625 c 1
 14.953125 -75.25390625 46.8134765625 -60.16015625 94 -59.6982421875 c 0
 155.220703125 -59.0986328125 218.3046875 -93.89453125 223 -157 c 0
 231.333953013 -269.009160502 121.237281121 -333.326442161 -10 -331 c 0
 -61.6949909352 -330.083603338 -124 -313 -146 -303 c 9
 -121 -237 l 17
 -89 -252 -49.236328125 -263.510742188 -6 -263 c 0
 59.0048828125 -262.231445312 89 -223 89 -184 c 0
 89 -132 -3 -128 -60 -143 c 9
 -50 0 l 17
EndSplineSet
EndChar

StartChar: endash
Encoding: 212 8211 209
Width: 500
VWidth: 0
Flags: HW
LayerCount: 3
Back
SplineSet
40 258 m 1
 40 403 l 1
 460 403 l 1
 460 258 l 1
 40 258 l 1
EndSplineSet
EndChar

